<mxfile host="app.diagrams.net" modified="2022-11-30T03:41:56.227Z" agent="5.0 (Windows NT 10.0; WOW64) AppleWebKit/537.36 (KHTML, like Gecko) Chrome/78.0.3904.108 Safari/537.36" etag="bTaUj9AuEq_iqScMynuD" version="20.5.3" type="github">
  <diagram id="fPDh-zBnVjvgzqUVRZQK" name="第 1 页">
    <mxGraphModel dx="570" dy="295" grid="1" gridSize="10" guides="1" tooltips="1" connect="1" arrows="1" fold="1" page="1" pageScale="1" pageWidth="827" pageHeight="1169" math="0" shadow="0">
      <root>
        <mxCell id="0" />
        <mxCell id="1" parent="0" />
        <mxCell id="K5NansBB-9LwYK7jqEGy-1" value="" style="shape=image;verticalLabelPosition=bottom;labelBackgroundColor=default;verticalAlign=top;aspect=fixed;imageAspect=0;image=data:image/svg+xml,PHN2ZyB4bWxuczp4bGluaz0iaHR0cDovL3d3dy53My5vcmcvMTk5OS94bGluayIgeG1sbnM9Imh0dHA6Ly93d3cudzMub3JnLzIwMDAvc3ZnIiB2ZXJzaW9uPSIxLjEiIGhlaWdodD0iMTEwOS4wMzU3NjY2MDE1NjI1IiB3aWR0aD0iMjE5Mi41NTM2MTkzODQ3NjU2IiBpZD0iU3ZnanNTdmcxMDA2IiB2aWV3Qm94PSIwIDAgMjE5Mi41NTM2MTkzODQ3NjU2IDExMDkuMDM1NzY2NjAxNTYyNSI+PGRlZnMgaWQ9IlN2Z2pzRGVmczEwMDciPjxwYXR0ZXJuIHBhdHRlcm5Vbml0cz0idXNlclNwYWNlT25Vc2UiIGhlaWdodD0iMTg0LjE2ODA1OTg0MjI1MTI0IiB3aWR0aD0iMjcxLjc3Nzc3Nzc3Nzc3ODMiIHk9IjAiIHg9IjAiIGlkPSJTdmdqc1BhdHRlcm4xMDEwIj48aW1hZ2UgeT0iMCIgeD0iMCIgY3Jvc3NvcmlnaW49ImFub255bW91cyIgcHJlc2VydmVBc3BlY3RSYXRpbz0ibm9uZSIgaGVpZ2h0PSIxODQuMTY4MDU5ODQyMjUxMjQiIHdpZHRoPSIyNzEuNzc3Nzc3Nzc3Nzc4MyIgeGxpbms6aHJlZj0iaHR0cHM6Ly93d3cucHJvY2Vzc29uLmNvbS9hc3NldHMvaW1hZ2VzL2Rlc2lnbmVyL25ldHdvcmtfYXdzL2dyb3Vwcy9BdmFpbGFiaWxpdHlfWm9uZS5zdmciIGlkPSJTdmdqc0ltYWdlMTAxMSIvPjwvcGF0dGVybj48cGF0dGVybiBwYXR0ZXJuVW5pdHM9InVzZXJTcGFjZU9uVXNlIiBoZWlnaHQ9IjU2Ny42Mzk0NTEzOTQ1NTQ3IiB3aWR0aD0iMzEwLjk5Mjc5ODM1MzkxMDEiIHk9IjAiIHg9IjAiIGlkPSJTdmdqc1BhdHRlcm4xMDM2Ij48aW1hZ2UgeT0iMCIgeD0iMCIgY3Jvc3NvcmlnaW49ImFub255bW91cyIgcHJlc2VydmVBc3BlY3RSYXRpbz0ibm9uZSIgaGVpZ2h0PSI1NjcuNjM5NDUxMzk0NTU0NyIgd2lkdGg9IjMxMC45OTI3OTgzNTM5MTAxIiB4bGluazpocmVmPSJodHRwczovL3d3dy5wcm9jZXNzb24uY29tL2Fzc2V0cy9pbWFnZXMvZGVzaWduZXIvbmV0d29ya19hd3MvZ3JvdXBzL0F2YWlsYWJpbGl0eV9ab25lLnN2ZyIgaWQ9IlN2Z2pzSW1hZ2UxMDM3Ii8+PC9wYXR0ZXJuPjxwYXR0ZXJuIHBhdHRlcm5Vbml0cz0idXNlclNwYWNlT25Vc2UiIGhlaWdodD0iMjQwLjI5ODkwNDkxNzY4OTkyIiB3aWR0aD0iOTEyIiB5PSIwIiB4PSIwIiBpZD0iU3ZnanNQYXR0ZXJuMTA0NCI+PGltYWdlIHk9IjAiIHg9IjAiIGNyb3Nzb3JpZ2luPSJhbm9ueW1vdXMiIHByZXNlcnZlQXNwZWN0UmF0aW89Im5vbmUiIGhlaWdodD0iMjQwLjI5ODkwNDkxNzY4OTkyIiB3aWR0aD0iOTEyIiB4bGluazpocmVmPSJodHRwczovL3d3dy5wcm9jZXNzb24uY29tL2Fzc2V0cy9pbWFnZXMvZGVzaWduZXIvbmV0d29ya19hd3MvZ3JvdXBzL0F2YWlsYWJpbGl0eV9ab25lLnN2ZyIgaWQ9IlN2Z2pzSW1hZ2UxMDQ1Ii8+PC9wYXR0ZXJuPjxwYXR0ZXJuIHBhdHRlcm5Vbml0cz0idXNlclNwYWNlT25Vc2UiIGhlaWdodD0iMTg1LjY4OTk4MzU4MTU0NjciIHdpZHRoPSIzMTMuNDEzNzg1NTA5ODI4OCIgeT0iMCIgeD0iMCIgaWQ9IlN2Z2pzUGF0dGVybjEwNTIiPjxpbWFnZSB5PSIwIiB4PSIwIiBjcm9zc29yaWdpbj0iYW5vbnltb3VzIiBwcmVzZXJ2ZUFzcGVjdFJhdGlvPSJub25lIiBoZWlnaHQ9IjE4NS42ODk5ODM1ODE1NDY3IiB3aWR0aD0iMzEzLjQxMzc4NTUwOTgyODgiIHhsaW5rOmhyZWY9Imh0dHBzOi8vd3d3LnByb2Nlc3Nvbi5jb20vYXNzZXRzL2ltYWdlcy9kZXNpZ25lci9uZXR3b3JrX2F3cy9ncm91cHMvQXZhaWxhYmlsaXR5X1pvbmUuc3ZnIiBpZD0iU3ZnanNJbWFnZTEwNTMiLz48L3BhdHRlcm4+PHBhdHRlcm4gcGF0dGVyblVuaXRzPSJ1c2VyU3BhY2VPblVzZSIgaGVpZ2h0PSIxOTAuOTMxMTQ2NTA2OTU0OTciIHdpZHRoPSIxMTYuMjY5NjkxOTMyMTc2NzgiIHk9IjAiIHg9IjAiIGlkPSJTdmdqc1BhdHRlcm4xMDYyIj48aW1hZ2UgeT0iMCIgeD0iMCIgY3Jvc3NvcmlnaW49ImFub255bW91cyIgcHJlc2VydmVBc3BlY3RSYXRpbz0ibm9uZSIgaGVpZ2h0PSIxOTAuOTMxMTQ2NTA2OTU0OTciIHdpZHRoPSIxMTYuMjY5NjkxOTMyMTc2NzgiIHhsaW5rOmhyZWY9Imh0dHBzOi8vd3d3LnByb2Nlc3Nvbi5jb20vYXNzZXRzL2ltYWdlcy9kZXNpZ25lci9uZXR3b3JrX2F3cy9ncm91cHMvQXZhaWxhYmlsaXR5X1pvbmUuc3ZnIiBpZD0iU3ZnanNJbWFnZTEwNjMiLz48L3BhdHRlcm4+PHBhdHRlcm4gcGF0dGVyblVuaXRzPSJ1c2VyU3BhY2VPblVzZSIgaGVpZ2h0PSIxOTAuOTMxMTQ2NTA2OTU0OTciIHdpZHRoPSIxMTcuMjIyMjIyMjIyMjIxNzIiIHk9IjAiIHg9IjAiIGlkPSJTdmdqc1BhdHRlcm4xMDcyIj48aW1hZ2UgeT0iMCIgeD0iMCIgY3Jvc3NvcmlnaW49ImFub255bW91cyIgcHJlc2VydmVBc3BlY3RSYXRpbz0ibm9uZSIgaGVpZ2h0PSIxOTAuOTMxMTQ2NTA2OTU0OTciIHdpZHRoPSIxMTcuMjIyMjIyMjIyMjIxNzIiIHhsaW5rOmhyZWY9Imh0dHBzOi8vd3d3LnByb2Nlc3Nvbi5jb20vYXNzZXRzL2ltYWdlcy9kZXNpZ25lci9uZXR3b3JrX2F3cy9ncm91cHMvQXZhaWxhYmlsaXR5X1pvbmUuc3ZnIiBpZD0iU3ZnanNJbWFnZTEwNzMiLz48L3BhdHRlcm4+PHBhdHRlcm4gcGF0dGVyblVuaXRzPSJ1c2VyU3BhY2VPblVzZSIgaGVpZ2h0PSIxMDIuMzc1MTEwODg3MjEzNjIiIHdpZHRoPSIyNTkuNTI2NzQ4OTcxMTkzMjMiIHk9IjAiIHg9IjAiIGlkPSJTdmdqc1BhdHRlcm4xMDgyIj48aW1hZ2UgeT0iMCIgeD0iMCIgY3Jvc3NvcmlnaW49ImFub255bW91cyIgcHJlc2VydmVBc3BlY3RSYXRpbz0ibm9uZSIgaGVpZ2h0PSIxMDIuMzc1MTEwODg3MjEzNjIiIHdpZHRoPSIyNTkuNTI2NzQ4OTcxMTkzMjMiIHhsaW5rOmhyZWY9Imh0dHBzOi8vd3d3LnByb2Nlc3Nvbi5jb20vYXNzZXRzL2ltYWdlcy9kZXNpZ25lci9uZXR3b3JrX2F3cy9ncm91cHMvQXZhaWxhYmlsaXR5X1pvbmUuc3ZnIiBpZD0iU3ZnanNJbWFnZTEwODMiLz48L3BhdHRlcm4+PHBhdHRlcm4gcGF0dGVyblVuaXRzPSJ1c2VyU3BhY2VPblVzZSIgaGVpZ2h0PSIyMTAuNjgwOTc4Njk3NTQxMzgiIHdpZHRoPSIxMzkuNTg0MzYyMTM5OTE4NiIgeT0iMCIgeD0iMCIgaWQ9IlN2Z2pzUGF0dGVybjEwOTIiPjxpbWFnZSB5PSIwIiB4PSIwIiBjcm9zc29yaWdpbj0iYW5vbnltb3VzIiBwcmVzZXJ2ZUFzcGVjdFJhdGlvPSJub25lIiBoZWlnaHQ9IjIxMC42ODA5Nzg2OTc1NDEzOCIgd2lkdGg9IjEzOS41ODQzNjIxMzk5MTg2IiB4bGluazpocmVmPSJodHRwczovL3d3dy5wcm9jZXNzb24uY29tL2Fzc2V0cy9pbWFnZXMvZGVzaWduZXIvbmV0d29ya19hd3MvZ3JvdXBzL0F2YWlsYWJpbGl0eV9ab25lLnN2ZyIgaWQ9IlN2Z2pzSW1hZ2UxMDkzIi8+PC9wYXR0ZXJuPjxwYXR0ZXJuIHBhdHRlcm5Vbml0cz0idXNlclNwYWNlT25Vc2UiIGhlaWdodD0iNzQiIHdpZHRoPSI4MCIgeT0iMCIgeD0iMCIgaWQ9IlN2Z2pzUGF0dGVybjEwOTgiPjxpbWFnZSB5PSIwIiB4PSIwIiBjcm9zc29yaWdpbj0iYW5vbnltb3VzIiBwcmVzZXJ2ZUFzcGVjdFJhdGlvPSJub25lIiBoZWlnaHQ9Ijc0IiB3aWR0aD0iODAiIHhsaW5rOmhyZWY9Imh0dHBzOi8vd3d3LnByb2Nlc3Nvbi5jb20vYXNzZXRzL2ltYWdlcy9kZXNpZ25lci9uZXR3b3JrX2F6dXJlL0NvbXB1dGVyLnN2ZyIgaWQ9IlN2Z2pzSW1hZ2UxMDk5Ii8+PC9wYXR0ZXJuPjxtYXJrZXIgc3Ryb2tlLWRhc2hhcnJheT0iMCwwIiBtYXJrZXJVbml0cz0idXNlclNwYWNlT25Vc2UiIG9yaWVudD0iYXV0byIgdmlld0JveD0iMCAwIDE0IDEwIiByZWZZPSI1IiByZWZYPSI0IiBtYXJrZXJIZWlnaHQ9IjEwIiBtYXJrZXJXaWR0aD0iMTQiIGlkPSJTdmdqc01hcmtlcjExNDYiPjxwYXRoIHN0cm9rZS13aWR0aD0iMSIgc3Ryb2tlPSIjMzIzMjMyIiBmaWxsPSIjMzIzMjMyIiBkPSJNMTQsMCBMMCw1IEwxNCwxMCBMMTQsMCIgaWQ9IlN2Z2pzUGF0aDExNDciLz48L21hcmtlcj48bWFya2VyIHN0cm9rZS1kYXNoYXJyYXk9IjAsMCIgbWFya2VyVW5pdHM9InVzZXJTcGFjZU9uVXNlIiBvcmllbnQ9ImF1dG8iIHZpZXdCb3g9IjAgMCAxNCAxMCIgcmVmWT0iNSIgcmVmWD0iMTAiIG1hcmtlckhlaWdodD0iMTAiIG1hcmtlcldpZHRoPSIxNCIgaWQ9IlN2Z2pzTWFya2VyMTE0OCI+PHBhdGggc3Ryb2tlLXdpZHRoPSIxIiBzdHJva2U9IiMzMjMyMzIiIGZpbGw9IiMzMjMyMzIiIGQ9Ik0wLDAgTDE0LDUgTDAsMTAgTDAsMCIgaWQ9IlN2Z2pzUGF0aDExNDkiLz48L21hcmtlcj48bWFya2VyIHN0cm9rZS1kYXNoYXJyYXk9IjAsMCIgbWFya2VyVW5pdHM9InVzZXJTcGFjZU9uVXNlIiBvcmllbnQ9ImF1dG8iIHZpZXdCb3g9IjAgMCAxNCAxMCIgcmVmWT0iNSIgcmVmWD0iNCIgbWFya2VySGVpZ2h0PSIxMCIgbWFya2VyV2lkdGg9IjE0IiBpZD0iU3ZnanNNYXJrZXIxMTU2Ij48cGF0aCBzdHJva2Utd2lkdGg9IjEiIHN0cm9rZT0iIzMyMzIzMiIgZmlsbD0iIzMyMzIzMiIgZD0iTTE0LDAgTDAsNSBMMTQsMTAgTDE0LDAiIGlkPSJTdmdqc1BhdGgxMTU3Ii8+PC9tYXJrZXI+PG1hcmtlciBzdHJva2UtZGFzaGFycmF5PSIwLDAiIG1hcmtlclVuaXRzPSJ1c2VyU3BhY2VPblVzZSIgb3JpZW50PSJhdXRvIiB2aWV3Qm94PSIwIDAgMTQgMTAiIHJlZlk9IjUiIHJlZlg9IjEwIiBtYXJrZXJIZWlnaHQ9IjEwIiBtYXJrZXJXaWR0aD0iMTQiIGlkPSJTdmdqc01hcmtlcjExNTgiPjxwYXRoIHN0cm9rZS13aWR0aD0iMSIgc3Ryb2tlPSIjMzIzMjMyIiBmaWxsPSIjMzIzMjMyIiBkPSJNMCwwIEwxNCw1IEwwLDEwIEwwLDAiIGlkPSJTdmdqc1BhdGgxMTU5Ii8+PC9tYXJrZXI+PG1hcmtlciBzdHJva2UtZGFzaGFycmF5PSIwLDAiIG1hcmtlclVuaXRzPSJ1c2VyU3BhY2VPblVzZSIgb3JpZW50PSJhdXRvIiB2aWV3Qm94PSIwIDAgMTQgMTAiIHJlZlk9IjUiIHJlZlg9IjQiIG1hcmtlckhlaWdodD0iMTAiIG1hcmtlcldpZHRoPSIxNCIgaWQ9IlN2Z2pzTWFya2VyMTE2NiI+PHBhdGggc3Ryb2tlLXdpZHRoPSIxIiBzdHJva2U9IiMzMjMyMzIiIGZpbGw9IiMzMjMyMzIiIGQ9Ik0xNCwwIEwwLDUgTDE0LDEwIEwxNCwwIiBpZD0iU3ZnanNQYXRoMTE2NyIvPjwvbWFya2VyPjxtYXJrZXIgc3Ryb2tlLWRhc2hhcnJheT0iMCwwIiBtYXJrZXJVbml0cz0idXNlclNwYWNlT25Vc2UiIG9yaWVudD0iYXV0byIgdmlld0JveD0iMCAwIDE0IDEwIiByZWZZPSI1IiByZWZYPSIxMCIgbWFya2VySGVpZ2h0PSIxMCIgbWFya2VyV2lkdGg9IjE0IiBpZD0iU3ZnanNNYXJrZXIxMTY4Ij48cGF0aCBzdHJva2Utd2lkdGg9IjEiIHN0cm9rZT0iIzMyMzIzMiIgZmlsbD0iIzMyMzIzMiIgZD0iTTAsMCBMMTQsNSBMMCwxMCBMMCwwIiBpZD0iU3ZnanNQYXRoMTE2OSIvPjwvbWFya2VyPjxtYXJrZXIgc3Ryb2tlLWRhc2hhcnJheT0iMCwwIiBtYXJrZXJVbml0cz0idXNlclNwYWNlT25Vc2UiIG9yaWVudD0iYXV0byIgdmlld0JveD0iMCAwIDE0IDEwIiByZWZZPSI1IiByZWZYPSIxMCIgbWFya2VySGVpZ2h0PSIxMCIgbWFya2VyV2lkdGg9IjE0IiBpZD0iU3ZnanNNYXJrZXIxMTc2Ij48cGF0aCBzdHJva2Utd2lkdGg9IjEiIHN0cm9rZT0iIzMyMzIzMiIgZmlsbD0iIzMyMzIzMiIgZD0iTTAsMCBMMTQsNSBMMCwxMCBMMCwwIiBpZD0iU3ZnanNQYXRoMTE3NyIvPjwvbWFya2VyPjxtYXJrZXIgc3Ryb2tlLWRhc2hhcnJheT0iMCwwIiBtYXJrZXJVbml0cz0idXNlclNwYWNlT25Vc2UiIG9yaWVudD0iYXV0byIgdmlld0JveD0iMCAwIDE0IDEwIiByZWZZPSI1IiByZWZYPSIxMCIgbWFya2VySGVpZ2h0PSIxMCIgbWFya2VyV2lkdGg9IjE0IiBpZD0iU3ZnanNNYXJrZXIxMTg0Ij48cGF0aCBzdHJva2Utd2lkdGg9IjEiIHN0cm9rZT0iIzMyMzIzMiIgZmlsbD0iIzMyMzIzMiIgZD0iTTAsMCBMMTQsNSBMMCwxMCBMMCwwIiBpZD0iU3ZnanNQYXRoMTE4NSIvPjwvbWFya2VyPjxtYXJrZXIgc3Ryb2tlLWRhc2hhcnJheT0iMCwwIiBtYXJrZXJVbml0cz0idXNlclNwYWNlT25Vc2UiIG9yaWVudD0iYXV0byIgdmlld0JveD0iMCAwIDE0IDEwIiByZWZZPSI1IiByZWZYPSI0IiBtYXJrZXJIZWlnaHQ9IjEwIiBtYXJrZXJXaWR0aD0iMTQiIGlkPSJTdmdqc01hcmtlcjEyMTYiPjxwYXRoIHN0cm9rZS13aWR0aD0iMSIgc3Ryb2tlPSIjMzIzMjMyIiBmaWxsPSIjMzIzMjMyIiBkPSJNMTQsMCBMMCw1IEwxNCwxMCBMMTQsMCIgaWQ9IlN2Z2pzUGF0aDEyMTciLz48L21hcmtlcj48bWFya2VyIHN0cm9rZS1kYXNoYXJyYXk9IjAsMCIgbWFya2VyVW5pdHM9InVzZXJTcGFjZU9uVXNlIiBvcmllbnQ9ImF1dG8iIHZpZXdCb3g9IjAgMCAxNCAxMCIgcmVmWT0iNSIgcmVmWD0iMTAiIG1hcmtlckhlaWdodD0iMTAiIG1hcmtlcldpZHRoPSIxNCIgaWQ9IlN2Z2pzTWFya2VyMTIxOCI+PHBhdGggc3Ryb2tlLXdpZHRoPSIxIiBzdHJva2U9IiMzMjMyMzIiIGZpbGw9IiMzMjMyMzIiIGQ9Ik0wLDAgTDE0LDUgTDAsMTAgTDAsMCIgaWQ9IlN2Z2pzUGF0aDEyMTkiLz48L21hcmtlcj48cGF0dGVybiBwYXR0ZXJuVW5pdHM9InVzZXJTcGFjZU9uVXNlIiBoZWlnaHQ9IjEwMiIgd2lkdGg9IjQxMC41NzkwMTI4NDQwODA0NyIgeT0iMCIgeD0iMCIgaWQ9IlN2Z2pzUGF0dGVybjEyNDQiPjxpbWFnZSB5PSIwIiB4PSIwIiBjcm9zc29yaWdpbj0iYW5vbnltb3VzIiBwcmVzZXJ2ZUFzcGVjdFJhdGlvPSJub25lIiBoZWlnaHQ9IjEwMiIgd2lkdGg9IjQxMC41NzkwMTI4NDQwODA0NyIgeGxpbms6aHJlZj0iaHR0cHM6Ly93d3cucHJvY2Vzc29uLmNvbS9hc3NldHMvaW1hZ2VzL2Rlc2lnbmVyL25ldHdvcmtfYXdzL2dyb3Vwcy9BdmFpbGFiaWxpdHlfWm9uZS5zdmciIGlkPSJTdmdqc0ltYWdlMTI0NSIvPjwvcGF0dGVybj48cGF0dGVybiBwYXR0ZXJuVW5pdHM9InVzZXJTcGFjZU9uVXNlIiBoZWlnaHQ9IjEwMC44MTAyMTEyMTAzNzQwNiIgd2lkdGg9IjI2Ny44ODg4ODg4ODg4ODk2IiB5PSIwIiB4PSIwIiBpZD0iU3ZnanNQYXR0ZXJuMTI2MCI+PGltYWdlIHk9IjAiIHg9IjAiIGNyb3Nzb3JpZ2luPSJhbm9ueW1vdXMiIHByZXNlcnZlQXNwZWN0UmF0aW89Im5vbmUiIGhlaWdodD0iMTAwLjgxMDIxMTIxMDM3NDA2IiB3aWR0aD0iMjY3Ljg4ODg4ODg4ODg4OTYiIHhsaW5rOmhyZWY9Imh0dHBzOi8vd3d3LnByb2Nlc3Nvbi5jb20vYXNzZXRzL2ltYWdlcy9kZXNpZ25lci9uZXR3b3JrX2F3cy9ncm91cHMvQXZhaWxhYmlsaXR5X1pvbmUuc3ZnIiBpZD0iU3ZnanNJbWFnZTEyNjEiLz48L3BhdHRlcm4+PHBhdHRlcm4gcGF0dGVyblVuaXRzPSJ1c2VyU3BhY2VPblVzZSIgaGVpZ2h0PSIxMDQuOTM2NjI3NTgwODcxMTIiIHdpZHRoPSIyNjcuODg4ODg4ODg4ODg5NiIgeT0iMCIgeD0iMCIgaWQ9IlN2Z2pzUGF0dGVybjEyNzYiPjxpbWFnZSB5PSIwIiB4PSIwIiBjcm9zc29yaWdpbj0iYW5vbnltb3VzIiBwcmVzZXJ2ZUFzcGVjdFJhdGlvPSJub25lIiBoZWlnaHQ9IjEwNC45MzY2Mjc1ODA4NzExMiIgd2lkdGg9IjI2Ny44ODg4ODg4ODg4ODk2IiB4bGluazpocmVmPSJodHRwczovL3d3dy5wcm9jZXNzb24uY29tL2Fzc2V0cy9pbWFnZXMvZGVzaWduZXIvbmV0d29ya19hd3MvZ3JvdXBzL0F2YWlsYWJpbGl0eV9ab25lLnN2ZyIgaWQ9IlN2Z2pzSW1hZ2UxMjc3Ii8+PC9wYXR0ZXJuPjxtYXJrZXIgc3Ryb2tlLWRhc2hhcnJheT0iMCwwIiBtYXJrZXJVbml0cz0idXNlclNwYWNlT25Vc2UiIG9yaWVudD0iYXV0byIgdmlld0JveD0iMCAwIDE0IDEwIiByZWZZPSI1IiByZWZYPSI0IiBtYXJrZXJIZWlnaHQ9IjEwIiBtYXJrZXJXaWR0aD0iMTQiIGlkPSJTdmdqc01hcmtlcjEzMTAiPjxwYXRoIHN0cm9rZS13aWR0aD0iMSIgc3Ryb2tlPSIjMzIzMjMyIiBmaWxsPSIjMzIzMjMyIiBkPSJNMTQsMCBMMCw1IEwxNCwxMCBMMTQsMCIgaWQ9IlN2Z2pzUGF0aDEzMTEiLz48L21hcmtlcj48bWFya2VyIHN0cm9rZS1kYXNoYXJyYXk9IjAsMCIgbWFya2VyVW5pdHM9InVzZXJTcGFjZU9uVXNlIiBvcmllbnQ9ImF1dG8iIHZpZXdCb3g9IjAgMCAxNCAxMCIgcmVmWT0iNSIgcmVmWD0iMTAiIG1hcmtlckhlaWdodD0iMTAiIG1hcmtlcldpZHRoPSIxNCIgaWQ9IlN2Z2pzTWFya2VyMTMxMiI+PHBhdGggc3Ryb2tlLXdpZHRoPSIxIiBzdHJva2U9IiMzMjMyMzIiIGZpbGw9IiMzMjMyMzIiIGQ9Ik0wLDAgTDE0LDUgTDAsMTAgTDAsMCIgaWQ9IlN2Z2pzUGF0aDEzMTMiLz48L21hcmtlcj48cGF0dGVybiBwYXR0ZXJuVW5pdHM9InVzZXJTcGFjZU9uVXNlIiBoZWlnaHQ9IjEwNi41MDE1MjcyNTc3MTA5IiB3aWR0aD0iMjU5LjUyNjc0ODk3MTE5MzIzIiB5PSIwIiB4PSIwIiBpZD0iU3ZnanNQYXR0ZXJuMTM1MCI+PGltYWdlIHk9IjAiIHg9IjAiIGNyb3Nzb3JpZ2luPSJhbm9ueW1vdXMiIHByZXNlcnZlQXNwZWN0UmF0aW89Im5vbmUiIGhlaWdodD0iMTA2LjUwMTUyNzI1NzcxMDkiIHdpZHRoPSIyNTkuNTI2NzQ4OTcxMTkzMjMiIHhsaW5rOmhyZWY9Imh0dHBzOi8vd3d3LnByb2Nlc3Nvbi5jb20vYXNzZXRzL2ltYWdlcy9kZXNpZ25lci9uZXR3b3JrX2F3cy9ncm91cHMvQXZhaWxhYmlsaXR5X1pvbmUuc3ZnIiBpZD0iU3ZnanNJbWFnZTEzNTEiLz48L3BhdHRlcm4+PG1hcmtlciBzdHJva2UtZGFzaGFycmF5PSIwLDAiIG1hcmtlclVuaXRzPSJ1c2VyU3BhY2VPblVzZSIgb3JpZW50PSJhdXRvIiB2aWV3Qm94PSIwIDAgMTQgMTAiIHJlZlk9IjUiIHJlZlg9IjEwIiBtYXJrZXJIZWlnaHQ9IjEwIiBtYXJrZXJXaWR0aD0iMTQiIGlkPSJTdmdqc01hcmtlcjEzNjYiPjxwYXRoIHN0cm9rZS13aWR0aD0iMSIgc3Ryb2tlPSIjMzIzMjMyIiBmaWxsPSIjMzIzMjMyIiBkPSJNMCwwIEwxNCw1IEwwLDEwIEwwLDAiIGlkPSJTdmdqc1BhdGgxMzY3Ii8+PC9tYXJrZXI+PHBhdHRlcm4gcGF0dGVyblVuaXRzPSJ1c2VyU3BhY2VPblVzZSIgaGVpZ2h0PSIxMDQuOTM2NjI3NTgwODcxMTIiIHdpZHRoPSIyNjcuODg4ODg4ODg4ODg5NiIgeT0iMCIgeD0iMCIgaWQ9IlN2Z2pzUGF0dGVybjEzNzQiPjxpbWFnZSB5PSIwIiB4PSIwIiBjcm9zc29yaWdpbj0iYW5vbnltb3VzIiBwcmVzZXJ2ZUFzcGVjdFJhdGlvPSJub25lIiBoZWlnaHQ9IjEwNC45MzY2Mjc1ODA4NzExMiIgd2lkdGg9IjI2Ny44ODg4ODg4ODg4ODk2IiB4bGluazpocmVmPSJodHRwczovL3d3dy5wcm9jZXNzb24uY29tL2Fzc2V0cy9pbWFnZXMvZGVzaWduZXIvbmV0d29ya19hd3MvZ3JvdXBzL0F2YWlsYWJpbGl0eV9ab25lLnN2ZyIgaWQ9IlN2Z2pzSW1hZ2UxMzc1Ii8+PC9wYXR0ZXJuPjxtYXJrZXIgc3Ryb2tlLWRhc2hhcnJheT0iMCwwIiBtYXJrZXJVbml0cz0idXNlclNwYWNlT25Vc2UiIG9yaWVudD0iYXV0byIgdmlld0JveD0iMCAwIDE0IDEwIiByZWZZPSI1IiByZWZYPSIxMCIgbWFya2VySGVpZ2h0PSIxMCIgbWFya2VyV2lkdGg9IjE0IiBpZD0iU3ZnanNNYXJrZXIxMzkwIj48cGF0aCBzdHJva2Utd2lkdGg9IjEiIHN0cm9rZT0iIzMyMzIzMiIgZmlsbD0iIzMyMzIzMiIgZD0iTTAsMCBMMTQsNSBMMCwxMCBMMCwwIiBpZD0iU3ZnanNQYXRoMTM5MSIvPjwvbWFya2VyPjxtYXJrZXIgc3Ryb2tlLWRhc2hhcnJheT0iMCwwIiBtYXJrZXJVbml0cz0idXNlclNwYWNlT25Vc2UiIG9yaWVudD0iYXV0byIgdmlld0JveD0iMCAwIDE0IDEwIiByZWZZPSI1IiByZWZYPSIxMCIgbWFya2VySGVpZ2h0PSIxMCIgbWFya2VyV2lkdGg9IjE0IiBpZD0iU3ZnanNNYXJrZXIxMzk4Ij48cGF0aCBzdHJva2Utd2lkdGg9IjEiIHN0cm9rZT0iIzMyMzIzMiIgZmlsbD0iIzMyMzIzMiIgZD0iTTAsMCBMMTQsNSBMMCwxMCBMMCwwIiBpZD0iU3ZnanNQYXRoMTM5OSIvPjwvbWFya2VyPjxtYXJrZXIgc3Ryb2tlLWRhc2hhcnJheT0iMCwwIiBtYXJrZXJVbml0cz0idXNlclNwYWNlT25Vc2UiIG9yaWVudD0iYXV0byIgdmlld0JveD0iMCAwIDE0IDEwIiByZWZZPSI1IiByZWZYPSIxMCIgbWFya2VySGVpZ2h0PSIxMCIgbWFya2VyV2lkdGg9IjE0IiBpZD0iU3ZnanNNYXJrZXIxNDA2Ij48cGF0aCBzdHJva2Utd2lkdGg9IjEiIHN0cm9rZT0iIzMyMzIzMiIgZmlsbD0iIzMyMzIzMiIgZD0iTTAsMCBMMTQsNSBMMCwxMCBMMCwwIiBpZD0iU3ZnanNQYXRoMTQwNyIvPjwvbWFya2VyPjxtYXJrZXIgc3Ryb2tlLWRhc2hhcnJheT0iMCwwIiBtYXJrZXJVbml0cz0idXNlclNwYWNlT25Vc2UiIG9yaWVudD0iYXV0byIgdmlld0JveD0iMCAwIDE0IDEwIiByZWZZPSI1IiByZWZYPSIxMCIgbWFya2VySGVpZ2h0PSIxMCIgbWFya2VyV2lkdGg9IjE0IiBpZD0iU3ZnanNNYXJrZXIxNDE0Ij48cGF0aCBzdHJva2Utd2lkdGg9IjEiIHN0cm9rZT0iIzMyMzIzMiIgZmlsbD0iIzMyMzIzMiIgZD0iTTAsMCBMMTQsNSBMMCwxMCBMMCwwIiBpZD0iU3ZnanNQYXRoMTQxNSIvPjwvbWFya2VyPjxtYXJrZXIgc3Ryb2tlLWRhc2hhcnJheT0iMCwwIiBtYXJrZXJVbml0cz0idXNlclNwYWNlT25Vc2UiIG9yaWVudD0iYXV0byIgdmlld0JveD0iMCAwIDE0IDEwIiByZWZZPSI1IiByZWZYPSIxMCIgbWFya2VySGVpZ2h0PSIxMCIgbWFya2VyV2lkdGg9IjE0IiBpZD0iU3ZnanNNYXJrZXIxNDIyIj48cGF0aCBzdHJva2Utd2lkdGg9IjEiIHN0cm9rZT0iIzMyMzIzMiIgZmlsbD0iIzMyMzIzMiIgZD0iTTAsMCBMMTQsNSBMMCwxMCBMMCwwIiBpZD0iU3ZnanNQYXRoMTQyMyIvPjwvbWFya2VyPjxtYXJrZXIgc3Ryb2tlLWRhc2hhcnJheT0iMCwwIiBtYXJrZXJVbml0cz0idXNlclNwYWNlT25Vc2UiIG9yaWVudD0iYXV0byIgdmlld0JveD0iMCAwIDE0IDEwIiByZWZZPSI1IiByZWZYPSIxMCIgbWFya2VySGVpZ2h0PSIxMCIgbWFya2VyV2lkdGg9IjE0IiBpZD0iU3ZnanNNYXJrZXIxNDMwIj48cGF0aCBzdHJva2Utd2lkdGg9IjEiIHN0cm9rZT0iIzMyMzIzMiIgZmlsbD0iIzMyMzIzMiIgZD0iTTAsMCBMMTQsNSBMMCwxMCBMMCwwIiBpZD0iU3ZnanNQYXRoMTQzMSIvPjwvbWFya2VyPjxtYXJrZXIgc3Ryb2tlLWRhc2hhcnJheT0iMCwwIiBtYXJrZXJVbml0cz0idXNlclNwYWNlT25Vc2UiIG9yaWVudD0iYXV0byIgdmlld0JveD0iMCAwIDE0IDEwIiByZWZZPSI1IiByZWZYPSI0IiBtYXJrZXJIZWlnaHQ9IjEwIiBtYXJrZXJXaWR0aD0iMTQiIGlkPSJTdmdqc01hcmtlcjE0MzgiPjxwYXRoIHN0cm9rZS13aWR0aD0iMSIgc3Ryb2tlPSIjMzIzMjMyIiBmaWxsPSIjMzIzMjMyIiBkPSJNMTQsMCBMMCw1IEwxNCwxMCBMMTQsMCIgaWQ9IlN2Z2pzUGF0aDE0MzkiLz48L21hcmtlcj48bWFya2VyIHN0cm9rZS1kYXNoYXJyYXk9IjAsMCIgbWFya2VyVW5pdHM9InVzZXJTcGFjZU9uVXNlIiBvcmllbnQ9ImF1dG8iIHZpZXdCb3g9IjAgMCAxNCAxMCIgcmVmWT0iNSIgcmVmWD0iMTAiIG1hcmtlckhlaWdodD0iMTAiIG1hcmtlcldpZHRoPSIxNCIgaWQ9IlN2Z2pzTWFya2VyMTQ0MCI+PHBhdGggc3Ryb2tlLXdpZHRoPSIxIiBzdHJva2U9IiMzMjMyMzIiIGZpbGw9IiMzMjMyMzIiIGQ9Ik0wLDAgTDE0LDUgTDAsMTAgTDAsMCIgaWQ9IlN2Z2pzUGF0aDE0NDEiLz48L21hcmtlcj48bWFya2VyIHN0cm9rZS1kYXNoYXJyYXk9IjAsMCIgbWFya2VyVW5pdHM9InVzZXJTcGFjZU9uVXNlIiBvcmllbnQ9ImF1dG8iIHZpZXdCb3g9IjAgMCAxNCAxMCIgcmVmWT0iNSIgcmVmWD0iNCIgbWFya2VySGVpZ2h0PSIxMCIgbWFya2VyV2lkdGg9IjE0IiBpZD0iU3ZnanNNYXJrZXIxNDQ4Ij48cGF0aCBzdHJva2Utd2lkdGg9IjEiIHN0cm9rZT0iIzMyMzIzMiIgZmlsbD0iIzMyMzIzMiIgZD0iTTE0LDAgTDAsNSBMMTQsMTAgTDE0LDAiIGlkPSJTdmdqc1BhdGgxNDQ5Ii8+PC9tYXJrZXI+PG1hcmtlciBzdHJva2UtZGFzaGFycmF5PSIwLDAiIG1hcmtlclVuaXRzPSJ1c2VyU3BhY2VPblVzZSIgb3JpZW50PSJhdXRvIiB2aWV3Qm94PSIwIDAgMTQgMTAiIHJlZlk9IjUiIHJlZlg9IjEwIiBtYXJrZXJIZWlnaHQ9IjEwIiBtYXJrZXJXaWR0aD0iMTQiIGlkPSJTdmdqc01hcmtlcjE0NTAiPjxwYXRoIHN0cm9rZS13aWR0aD0iMSIgc3Ryb2tlPSIjMzIzMjMyIiBmaWxsPSIjMzIzMjMyIiBkPSJNMCwwIEwxNCw1IEwwLDEwIEwwLDAiIGlkPSJTdmdqc1BhdGgxNDUxIi8+PC9tYXJrZXI+PG1hcmtlciBzdHJva2UtZGFzaGFycmF5PSIwLDAiIG1hcmtlclVuaXRzPSJ1c2VyU3BhY2VPblVzZSIgb3JpZW50PSJhdXRvIiB2aWV3Qm94PSIwIDAgMTQgMTAiIHJlZlk9IjUiIHJlZlg9IjQiIG1hcmtlckhlaWdodD0iMTAiIG1hcmtlcldpZHRoPSIxNCIgaWQ9IlN2Z2pzTWFya2VyMTQ1OCI+PHBhdGggc3Ryb2tlLXdpZHRoPSIxIiBzdHJva2U9IiMzMjMyMzIiIGZpbGw9IiMzMjMyMzIiIGQ9Ik0xNCwwIEwwLDUgTDE0LDEwIEwxNCwwIiBpZD0iU3ZnanNQYXRoMTQ1OSIvPjwvbWFya2VyPjxtYXJrZXIgc3Ryb2tlLWRhc2hhcnJheT0iMCwwIiBtYXJrZXJVbml0cz0idXNlclNwYWNlT25Vc2UiIG9yaWVudD0iYXV0byIgdmlld0JveD0iMCAwIDE0IDEwIiByZWZZPSI1IiByZWZYPSIxMCIgbWFya2VySGVpZ2h0PSIxMCIgbWFya2VyV2lkdGg9IjE0IiBpZD0iU3ZnanNNYXJrZXIxNDYwIj48cGF0aCBzdHJva2Utd2lkdGg9IjEiIHN0cm9rZT0iIzMyMzIzMiIgZmlsbD0iIzMyMzIzMiIgZD0iTTAsMCBMMTQsNSBMMCwxMCBMMCwwIiBpZD0iU3ZnanNQYXRoMTQ2MSIvPjwvbWFya2VyPjxtYXJrZXIgc3Ryb2tlLWRhc2hhcnJheT0iMCwwIiBtYXJrZXJVbml0cz0idXNlclNwYWNlT25Vc2UiIG9yaWVudD0iYXV0byIgdmlld0JveD0iMCAwIDE0IDEwIiByZWZZPSI1IiByZWZYPSIxMCIgbWFya2VySGVpZ2h0PSIxMCIgbWFya2VyV2lkdGg9IjE0IiBpZD0iU3ZnanNNYXJrZXIxNDgwIj48cGF0aCBzdHJva2Utd2lkdGg9IjEiIHN0cm9rZT0iIzMyMzIzMiIgZmlsbD0iIzMyMzIzMiIgZD0iTTAsMCBMMTQsNSBMMCwxMCBMMCwwIiBpZD0iU3ZnanNQYXRoMTQ4MSIvPjwvbWFya2VyPjxtYXJrZXIgc3Ryb2tlLWRhc2hhcnJheT0iMCwwIiBtYXJrZXJVbml0cz0idXNlclNwYWNlT25Vc2UiIG9yaWVudD0iYXV0byIgdmlld0JveD0iMCAwIDE0IDEwIiByZWZZPSI1IiByZWZYPSIxMCIgbWFya2VySGVpZ2h0PSIxMCIgbWFya2VyV2lkdGg9IjE0IiBpZD0iU3ZnanNNYXJrZXIxNDk0Ij48cGF0aCBzdHJva2Utd2lkdGg9IjEiIHN0cm9rZT0iIzMyMzIzMiIgZmlsbD0iIzMyMzIzMiIgZD0iTTAsMCBMMTQsNSBMMCwxMCBMMCwwIiBpZD0iU3ZnanNQYXRoMTQ5NSIvPjwvbWFya2VyPjxtYXJrZXIgc3Ryb2tlLWRhc2hhcnJheT0iMCwwIiBtYXJrZXJVbml0cz0idXNlclNwYWNlT25Vc2UiIG9yaWVudD0iYXV0byIgdmlld0JveD0iMCAwIDE0IDEwIiByZWZZPSI1IiByZWZYPSIxMCIgbWFya2VySGVpZ2h0PSIxMCIgbWFya2VyV2lkdGg9IjE0IiBpZD0iU3ZnanNNYXJrZXIxNTA4Ij48cGF0aCBzdHJva2Utd2lkdGg9IjEiIHN0cm9rZT0iIzMyMzIzMiIgZmlsbD0iIzMyMzIzMiIgZD0iTTAsMCBMMTQsNSBMMCwxMCBMMCwwIiBpZD0iU3ZnanNQYXRoMTUwOSIvPjwvbWFya2VyPjxtYXJrZXIgc3Ryb2tlLWRhc2hhcnJheT0iMCwwIiBtYXJrZXJVbml0cz0idXNlclNwYWNlT25Vc2UiIG9yaWVudD0iYXV0byIgdmlld0JveD0iMCAwIDE0IDEwIiByZWZZPSI1IiByZWZYPSIxMCIgbWFya2VySGVpZ2h0PSIxMCIgbWFya2VyV2lkdGg9IjE0IiBpZD0iU3ZnanNNYXJrZXIxNTEyIj48cGF0aCBzdHJva2Utd2lkdGg9IjEiIHN0cm9rZT0iIzMyMzIzMiIgZmlsbD0iIzMyMzIzMiIgZD0iTTAsMCBMMTQsNSBMMCwxMCBMMCwwIiBpZD0iU3ZnanNQYXRoMTUxMyIvPjwvbWFya2VyPjxwYXR0ZXJuIHBhdHRlcm5Vbml0cz0idXNlclNwYWNlT25Vc2UiIGhlaWdodD0iMTAwLjgxMDIxMTIxMDM3NDA2IiB3aWR0aD0iMjY3Ljg4ODg4ODg4ODg4OTYiIHk9IjAiIHg9IjAiIGlkPSJTdmdqc1BhdHRlcm4xNTE2Ij48aW1hZ2UgeT0iMCIgeD0iMCIgY3Jvc3NvcmlnaW49ImFub255bW91cyIgcHJlc2VydmVBc3BlY3RSYXRpbz0ibm9uZSIgaGVpZ2h0PSIxMDAuODEwMjExMjEwMzc0MDYiIHdpZHRoPSIyNjcuODg4ODg4ODg4ODg5NiIgeGxpbms6aHJlZj0iaHR0cHM6Ly93d3cucHJvY2Vzc29uLmNvbS9hc3NldHMvaW1hZ2VzL2Rlc2lnbmVyL25ldHdvcmtfYXdzL2dyb3Vwcy9BdmFpbGFiaWxpdHlfWm9uZS5zdmciIGlkPSJTdmdqc0ltYWdlMTUxNyIvPjwvcGF0dGVybj48cGF0dGVybiBwYXR0ZXJuVW5pdHM9InVzZXJTcGFjZU9uVXNlIiBoZWlnaHQ9IjEwMC44MTAyMTEyMTAzNzQwNiIgd2lkdGg9IjI2Ny44ODg4ODg4ODg4ODk2IiB5PSIwIiB4PSIwIiBpZD0iU3ZnanNQYXR0ZXJuMTUzMiI+PGltYWdlIHk9IjAiIHg9IjAiIGNyb3Nzb3JpZ2luPSJhbm9ueW1vdXMiIHByZXNlcnZlQXNwZWN0UmF0aW89Im5vbmUiIGhlaWdodD0iMTAwLjgxMDIxMTIxMDM3NDA2IiB3aWR0aD0iMjY3Ljg4ODg4ODg4ODg4OTYiIHhsaW5rOmhyZWY9Imh0dHBzOi8vd3d3LnByb2Nlc3Nvbi5jb20vYXNzZXRzL2ltYWdlcy9kZXNpZ25lci9uZXR3b3JrX2F3cy9ncm91cHMvQXZhaWxhYmlsaXR5X1pvbmUuc3ZnIiBpZD0iU3ZnanNJbWFnZTE1MzMiLz48L3BhdHRlcm4+PG1hcmtlciBzdHJva2UtZGFzaGFycmF5PSIwLDAiIG1hcmtlclVuaXRzPSJ1c2VyU3BhY2VPblVzZSIgb3JpZW50PSJhdXRvIiB2aWV3Qm94PSIwIDAgMTQgMTAiIHJlZlk9IjUiIHJlZlg9IjEwIiBtYXJrZXJIZWlnaHQ9IjEwIiBtYXJrZXJXaWR0aD0iMTQiIGlkPSJTdmdqc01hcmtlcjE1NDgiPjxwYXRoIHN0cm9rZS13aWR0aD0iMSIgc3Ryb2tlPSIjMzIzMjMyIiBmaWxsPSIjMzIzMjMyIiBkPSJNMCwwIEwxNCw1IEwwLDEwIEwwLDAiIGlkPSJTdmdqc1BhdGgxNTQ5Ii8+PC9tYXJrZXI+PG1hcmtlciBzdHJva2UtZGFzaGFycmF5PSIwLDAiIG1hcmtlclVuaXRzPSJ1c2VyU3BhY2VPblVzZSIgb3JpZW50PSJhdXRvIiB2aWV3Qm94PSIwIDAgMTQgMTAiIHJlZlk9IjUiIHJlZlg9IjEwIiBtYXJrZXJIZWlnaHQ9IjEwIiBtYXJrZXJXaWR0aD0iMTQiIGlkPSJTdmdqc01hcmtlcjE1NTIiPjxwYXRoIHN0cm9rZS13aWR0aD0iMSIgc3Ryb2tlPSIjMzIzMjMyIiBmaWxsPSIjMzIzMjMyIiBkPSJNMCwwIEwxNCw1IEwwLDEwIEwwLDAiIGlkPSJTdmdqc1BhdGgxNTUzIi8+PC9tYXJrZXI+PG1hcmtlciBzdHJva2UtZGFzaGFycmF5PSIwLDAiIG1hcmtlclVuaXRzPSJ1c2VyU3BhY2VPblVzZSIgb3JpZW50PSJhdXRvIiB2aWV3Qm94PSIwIDAgMTQgMTAiIHJlZlk9IjUiIHJlZlg9IjEwIiBtYXJrZXJIZWlnaHQ9IjEwIiBtYXJrZXJXaWR0aD0iMTQiIGlkPSJTdmdqc01hcmtlcjE1NjAiPjxwYXRoIHN0cm9rZS13aWR0aD0iMSIgc3Ryb2tlPSIjMzIzMjMyIiBmaWxsPSIjMzIzMjMyIiBkPSJNMCwwIEwxNCw1IEwwLDEwIEwwLDAiIGlkPSJTdmdqc1BhdGgxNTYxIi8+PC9tYXJrZXI+PHBhdHRlcm4gcGF0dGVyblVuaXRzPSJ1c2VyU3BhY2VPblVzZSIgaGVpZ2h0PSIxMDAuODEwMjExMjEwMzc0MDYiIHdpZHRoPSIyNjcuODg4ODg4ODg4ODg5NiIgeT0iMCIgeD0iMCIgaWQ9IlN2Z2pzUGF0dGVybjE1NjgiPjxpbWFnZSB5PSIwIiB4PSIwIiBjcm9zc29yaWdpbj0iYW5vbnltb3VzIiBwcmVzZXJ2ZUFzcGVjdFJhdGlvPSJub25lIiBoZWlnaHQ9IjEwMC44MTAyMTEyMTAzNzQwNiIgd2lkdGg9IjI2Ny44ODg4ODg4ODg4ODk2IiB4bGluazpocmVmPSJodHRwczovL3d3dy5wcm9jZXNzb24uY29tL2Fzc2V0cy9pbWFnZXMvZGVzaWduZXIvbmV0d29ya19hd3MvZ3JvdXBzL0F2YWlsYWJpbGl0eV9ab25lLnN2ZyIgaWQ9IlN2Z2pzSW1hZ2UxNTY5Ii8+PC9wYXR0ZXJuPjxwYXR0ZXJuIHBhdHRlcm5Vbml0cz0idXNlclNwYWNlT25Vc2UiIGhlaWdodD0iMTA0LjkzNjYyNzU4MDg3MTEyIiB3aWR0aD0iMjY3Ljg4ODg4ODg4ODg4OTYiIHk9IjAiIHg9IjAiIGlkPSJTdmdqc1BhdHRlcm4xNTg0Ij48aW1hZ2UgeT0iMCIgeD0iMCIgY3Jvc3NvcmlnaW49ImFub255bW91cyIgcHJlc2VydmVBc3BlY3RSYXRpbz0ibm9uZSIgaGVpZ2h0PSIxMDQuOTM2NjI3NTgwODcxMTIiIHdpZHRoPSIyNjcuODg4ODg4ODg4ODg5NiIgeGxpbms6aHJlZj0iaHR0cHM6Ly93d3cucHJvY2Vzc29uLmNvbS9hc3NldHMvaW1hZ2VzL2Rlc2lnbmVyL25ldHdvcmtfYXdzL2dyb3Vwcy9BdmFpbGFiaWxpdHlfWm9uZS5zdmciIGlkPSJTdmdqc0ltYWdlMTU4NSIvPjwvcGF0dGVybj48bWFya2VyIHN0cm9rZS1kYXNoYXJyYXk9IjAsMCIgbWFya2VyVW5pdHM9InVzZXJTcGFjZU9uVXNlIiBvcmllbnQ9ImF1dG8iIHZpZXdCb3g9IjAgMCAxNCAxMCIgcmVmWT0iNSIgcmVmWD0iMTAiIG1hcmtlckhlaWdodD0iMTAiIG1hcmtlcldpZHRoPSIxNCIgaWQ9IlN2Z2pzTWFya2VyMTYwMCI+PHBhdGggc3Ryb2tlLXdpZHRoPSIxIiBzdHJva2U9IiMzMjMyMzIiIGZpbGw9IiMzMjMyMzIiIGQ9Ik0wLDAgTDE0LDUgTDAsMTAgTDAsMCIgaWQ9IlN2Z2pzUGF0aDE2MDEiLz48L21hcmtlcj48cGF0dGVybiBwYXR0ZXJuVW5pdHM9InVzZXJTcGFjZU9uVXNlIiBoZWlnaHQ9IjEwNC45MzY2Mjc1ODA4NzExMiIgd2lkdGg9IjI2Ny44ODg4ODg4ODg4ODk2IiB5PSIwIiB4PSIwIiBpZD0iU3ZnanNQYXR0ZXJuMTYyMCI+PGltYWdlIHk9IjAiIHg9IjAiIGNyb3Nzb3JpZ2luPSJhbm9ueW1vdXMiIHByZXNlcnZlQXNwZWN0UmF0aW89Im5vbmUiIGhlaWdodD0iMTA0LjkzNjYyNzU4MDg3MTEyIiB3aWR0aD0iMjY3Ljg4ODg4ODg4ODg4OTYiIHhsaW5rOmhyZWY9Imh0dHBzOi8vd3d3LnByb2Nlc3Nvbi5jb20vYXNzZXRzL2ltYWdlcy9kZXNpZ25lci9uZXR3b3JrX2F3cy9ncm91cHMvQXZhaWxhYmlsaXR5X1pvbmUuc3ZnIiBpZD0iU3ZnanNJbWFnZTE2MjEiLz48L3BhdHRlcm4+PG1hcmtlciBzdHJva2UtZGFzaGFycmF5PSIwLDAiIG1hcmtlclVuaXRzPSJ1c2VyU3BhY2VPblVzZSIgb3JpZW50PSJhdXRvIiB2aWV3Qm94PSIwIDAgMTQgMTAiIHJlZlk9IjUiIHJlZlg9IjEwIiBtYXJrZXJIZWlnaHQ9IjEwIiBtYXJrZXJXaWR0aD0iMTQiIGlkPSJTdmdqc01hcmtlcjE2MzYiPjxwYXRoIHN0cm9rZS13aWR0aD0iMSIgc3Ryb2tlPSIjMzIzMjMyIiBmaWxsPSIjMzIzMjMyIiBkPSJNMCwwIEwxNCw1IEwwLDEwIEwwLDAiIGlkPSJTdmdqc1BhdGgxNjM3Ii8+PC9tYXJrZXI+PG1hcmtlciBzdHJva2UtZGFzaGFycmF5PSIwLDAiIG1hcmtlclVuaXRzPSJ1c2VyU3BhY2VPblVzZSIgb3JpZW50PSJhdXRvIiB2aWV3Qm94PSIwIDAgMTQgMTAiIHJlZlk9IjUiIHJlZlg9IjQiIG1hcmtlckhlaWdodD0iMTAiIG1hcmtlcldpZHRoPSIxNCIgaWQ9IlN2Z2pzTWFya2VyMTY0NCI+PHBhdGggc3Ryb2tlLXdpZHRoPSIxIiBzdHJva2U9IiMzMjMyMzIiIGZpbGw9IiMzMjMyMzIiIGQ9Ik0xNCwwIEwwLDUgTDE0LDEwIEwxNCwwIiBpZD0iU3ZnanNQYXRoMTY0NSIvPjwvbWFya2VyPjxtYXJrZXIgc3Ryb2tlLWRhc2hhcnJheT0iMCwwIiBtYXJrZXJVbml0cz0idXNlclNwYWNlT25Vc2UiIG9yaWVudD0iYXV0byIgdmlld0JveD0iMCAwIDE0IDEwIiByZWZZPSI1IiByZWZYPSI0IiBtYXJrZXJIZWlnaHQ9IjEwIiBtYXJrZXJXaWR0aD0iMTQiIGlkPSJTdmdqc01hcmtlcjE2NTIiPjxwYXRoIHN0cm9rZS13aWR0aD0iMSIgc3Ryb2tlPSIjMzIzMjMyIiBmaWxsPSIjMzIzMjMyIiBkPSJNMTQsMCBMMCw1IEwxNCwxMCBMMTQsMCIgaWQ9IlN2Z2pzUGF0aDE2NTMiLz48L21hcmtlcj48L2RlZnM+PGcgdHJhbnNmb3JtPSJ0cmFuc2xhdGUoNDA4LjEyMDAzNzUwMjcxMjQsMjQxLjM0MDg1ODkxOTk1NTgpIiBpZD0iU3ZnanNHMTAwOCI+PHBhdGggb3BhY2l0eT0iMSIgZmlsbD0idXJsKCNTdmdqc1BhdHRlcm4xMDEwKSIgc3Ryb2tlPSJub25lIiBkPSJNIDAgMEwgMjcxLjc3Nzc3Nzc3Nzc3ODMgMEwgMjcxLjc3Nzc3Nzc3Nzc3ODMgMTg0LjE2ODA1OTg0MjI1MTI0TCAwIDE4NC4xNjgwNTk4NDIyNTEyNFoiIGlkPSJTdmdqc1BhdGgxMDA5Ii8+PGcgaWQ9IlN2Z2pzRzEwMTIiPjx0ZXh0IHRyYW5zZm9ybT0icm90YXRlKDApIiB5PSI4LjQ1OTAyOTkyMTEyNTYyIiBvcGFjaXR5PSIxIiBmb250LXN0eWxlPSIiIHNpemU9IjEzcHgiIGFsaWduPSJtaWRkbGUiIGZvbnQtd2VpZ2h0PSI0MDAiIGZpbGw9IiMzMjMyMzIiIHdpZHRoPSIyNzJweCIgZm9udC1zaXplPSIxM3B4IiB0ZXh0LWFuY2hvcj0ibWlkZGxlIiBmb250LWZhbWlseT0i5b6u6L2v6ZuF6buRIiBpZD0iU3ZnanNUZXh0MTAxMyI+PHRzcGFuIHg9IjEzNiIgZHk9IjE2IiBpZD0iU3ZnanNUc3BhbjEwMTQiPjx0c3BhbiBzdHlsZT0idGV4dC1kZWNvcmF0aW9uOjsiIGlkPSJTdmdqc1RzcGFuMTAxNSI+wqA8L3RzcGFuPjwvdHNwYW4+PHRzcGFuIHg9IjEzNiIgZHk9IjE2IiBpZD0iU3ZnanNUc3BhbjEwMTYiPjx0c3BhbiBzdHlsZT0idGV4dC1kZWNvcmF0aW9uOjsiIGlkPSJTdmdqc1RzcGFuMTAxNyI+wqA8L3RzcGFuPjwvdHNwYW4+PHRzcGFuIHg9IjEzNiIgZHk9IjE2IiBpZD0iU3ZnanNUc3BhbjEwMTgiPjx0c3BhbiBzdHlsZT0idGV4dC1kZWNvcmF0aW9uOjsiIGlkPSJTdmdqc1RzcGFuMTAxOSI+wqA8L3RzcGFuPjwvdHNwYW4+PHRzcGFuIHg9IjEzNiIgZHk9IjE2IiBpZD0iU3ZnanNUc3BhbjEwMjAiPjx0c3BhbiBzdHlsZT0idGV4dC1kZWNvcmF0aW9uOjsiIGlkPSJTdmdqc1RzcGFuMTAyMSI+wqA8L3RzcGFuPjwvdHNwYW4+PHRzcGFuIHg9IjEzNiIgZHk9IjE2IiBpZD0iU3ZnanNUc3BhbjEwMjIiPjx0c3BhbiBzdHlsZT0idGV4dC1kZWNvcmF0aW9uOjsiIGlkPSJTdmdqc1RzcGFuMTAyMyI+wqA8L3RzcGFuPjwvdHNwYW4+PHRzcGFuIHg9IjEzNiIgZHk9IjE2IiBpZD0iU3ZnanNUc3BhbjEwMjQiPjx0c3BhbiBzdHlsZT0idGV4dC1kZWNvcmF0aW9uOjsiIGlkPSJTdmdqc1RzcGFuMTAyNSI+wqA8L3RzcGFuPjwvdHNwYW4+PHRzcGFuIHg9IjEzNiIgZHk9IjE2IiBpZD0iU3ZnanNUc3BhbjEwMjYiPjx0c3BhbiBzdHlsZT0idGV4dC1kZWNvcmF0aW9uOjsiIGlkPSJTdmdqc1RzcGFuMTAyNyI+wqA8L3RzcGFuPjwvdHNwYW4+PHRzcGFuIHg9IjEzNiIgZHk9IjE2IiBpZD0iU3ZnanNUc3BhbjEwMjgiPjx0c3BhbiBzdHlsZT0idGV4dC1kZWNvcmF0aW9uOjsiIGlkPSJTdmdqc1RzcGFuMTAyOSI+wqA8L3RzcGFuPjwvdHNwYW4+PHRzcGFuIHg9IjEzNiIgZHk9IjE2IiBpZD0iU3ZnanNUc3BhbjEwMzAiPjx0c3BhbiBzdHlsZT0idGV4dC1kZWNvcmF0aW9uOjsiIGlkPSJTdmdqc1RzcGFuMTAzMSI+5pyN5Yqh5rOo5YaM5Lit5b+D6ZuG576kPC90c3Bhbj48L3RzcGFuPjx0c3BhbiB4PSIxMzYiIGR5PSIxNiIgaWQ9IlN2Z2pzVHNwYW4xMDMyIj48dHNwYW4gc3R5bGU9InRleHQtZGVjb3JhdGlvbjo7IiBpZD0iU3ZnanNUc3BhbjEwMzMiPumFjee9rueuoeeQhuS4reW/g+mbhue+pDwvdHNwYW4+PC90c3Bhbj48L3RleHQ+PC9nPjwvZz48ZyB0cmFuc2Zvcm09InRyYW5zbGF0ZSgxNDQ4LjAxNjEyODAzNzY5MTUsMzU5LjY4MzQzOTE4MTc1NjMpIiBpZD0iU3ZnanNHMTAzNCI+PHBhdGggb3BhY2l0eT0iMSIgZmlsbD0idXJsKCNTdmdqc1BhdHRlcm4xMDM2KSIgc3Ryb2tlPSJub25lIiBkPSJNIDAgMEwgMzEwLjk5Mjc5ODM1MzkxMDEgMEwgMzEwLjk5Mjc5ODM1MzkxMDEgNTY3LjYzOTQ1MTM5NDU1NDdMIDAgNTY3LjYzOTQ1MTM5NDU1NDdaIiBpZD0iU3ZnanNQYXRoMTAzNSIvPjxnIGlkPSJTdmdqc0cxMDM4Ij48dGV4dCB0cmFuc2Zvcm09InJvdGF0ZSgwKSIgeT0iNTQ5LjAxNDQ1MTM5NDU1NDciIG9wYWNpdHk9IjEiIGZvbnQtc3R5bGU9IiIgc2l6ZT0iMTNweCIgYWxpZ249ImJvdHRvbSIgZm9udC13ZWlnaHQ9IjQwMCIgZmlsbD0iIzMyMzIzMiIgd2lkdGg9IjMxMXB4IiBmb250LXNpemU9IjEzcHgiIHRleHQtYW5jaG9yPSJtaWRkbGUiIGZvbnQtZmFtaWx5PSLlvq7ova/pm4Xpu5EiIGlkPSJTdmdqc1RleHQxMDM5Ij48dHNwYW4geD0iMTU1LjUiIGR5PSIxNiIgaWQ9IlN2Z2pzVHNwYW4xMDQwIj48dHNwYW4gc3R5bGU9InRleHQtZGVjb3JhdGlvbjo7IiBpZD0iU3ZnanNUc3BhbjEwNDEiPsKgPC90c3Bhbj48L3RzcGFuPjwvdGV4dD48L2c+PC9nPjxnIHRyYW5zZm9ybT0idHJhbnNsYXRlKDQzNi4wMDg5MjYzOTE2MDE1Niw1MjMuMTM1MDU1OTc1MjkyOSkiIGlkPSJTdmdqc0cxMDQyIj48cGF0aCBvcGFjaXR5PSIxIiBmaWxsPSJ1cmwoI1N2Z2pzUGF0dGVybjEwNDQpIiBzdHJva2U9Im5vbmUiIGQ9Ik0gMCAwTCA5MTIgMEwgOTEyIDI0MC4yOTg5MDQ5MTc2ODk5MkwgMCAyNDAuMjk4OTA0OTE3Njg5OTJaIiBpZD0iU3ZnanNQYXRoMTA0MyIvPjxnIGlkPSJTdmdqc0cxMDQ2Ij48dGV4dCB0cmFuc2Zvcm09InJvdGF0ZSgwKSIgeT0iMTA5LjUyNDQ1MjQ1ODg0NDk2IiBvcGFjaXR5PSIxIiBmb250LXN0eWxlPSIiIHNpemU9IjEzcHgiIGFsaWduPSJtaWRkbGUiIGZvbnQtd2VpZ2h0PSI0MDAiIGZpbGw9IiMzMjMyMzIiIHdpZHRoPSI5MTJweCIgZm9udC1zaXplPSIxM3B4IiB0ZXh0LWFuY2hvcj0ibWlkZGxlIiBmb250LWZhbWlseT0i5b6u6L2v6ZuF6buRIiBpZD0iU3ZnanNUZXh0MTA0NyI+PHRzcGFuIHg9IjQ1NiIgZHk9IjE2IiBpZD0iU3ZnanNUc3BhbjEwNDgiPjx0c3BhbiBzdHlsZT0idGV4dC1kZWNvcmF0aW9uOjsiIGlkPSJTdmdqc1RzcGFuMTA0OSI+wqA8L3RzcGFuPjwvdHNwYW4+PC90ZXh0PjwvZz48L2c+PGcgdHJhbnNmb3JtPSJ0cmFuc2xhdGUoOTk5LjAwODkyNjM5MTYwMTYsNTQ3LjgxODkzNTE4MDY2MDMpIiBpZD0iU3ZnanNHMTA1MCI+PHBhdGggb3BhY2l0eT0iMSIgZmlsbD0idXJsKCNTdmdqc1BhdHRlcm4xMDUyKSIgc3Ryb2tlPSJub25lIiBkPSJNIDAgMEwgMzEzLjQxMzc4NTUwOTgyODggMEwgMzEzLjQxMzc4NTUwOTgyODggMTg1LjY4OTk4MzU4MTU0NjdMIDAgMTg1LjY4OTk4MzU4MTU0NjdaIiBpZD0iU3ZnanNQYXRoMTA1MSIvPjxnIGlkPSJTdmdqc0cxMDU0Ij48dGV4dCB0cmFuc2Zvcm09InJvdGF0ZSgwKSIgeT0iMTUxLjA2NDk4MzU4MTU0NjciIG9wYWNpdHk9IjEiIGZvbnQtc3R5bGU9IiIgc2l6ZT0iMTNweCIgYWxpZ249ImJvdHRvbSIgZm9udC13ZWlnaHQ9IjQwMCIgZmlsbD0iIzMyMzIzMiIgd2lkdGg9IjMxNHB4IiBmb250LXNpemU9IjEzcHgiIHRleHQtYW5jaG9yPSJtaWRkbGUiIGZvbnQtZmFtaWx5PSLlvq7ova/pm4Xpu5EiIGlkPSJTdmdqc1RleHQxMDU1Ij48dHNwYW4geD0iMTU3IiBkeT0iMTYiIGlkPSJTdmdqc1RzcGFuMTA1NiI+PHRzcGFuIHN0eWxlPSJ0ZXh0LWRlY29yYXRpb246OyIgaWQ9IlN2Z2pzVHNwYW4xMDU3Ij7lvILmnoTmnI3liqHpm4bnvqQ8L3RzcGFuPjwvdHNwYW4+PHRzcGFuIHg9IjE1NyIgZHk9IjE2IiBpZD0iU3ZnanNUc3BhbjEwNTgiPjx0c3BhbiBzdHlsZT0idGV4dC1kZWNvcmF0aW9uOjsiIGlkPSJTdmdqc1RzcGFuMTA1OSI+wqA8L3RzcGFuPjwvdHNwYW4+PC90ZXh0PjwvZz48L2c+PGcgdHJhbnNmb3JtPSJ0cmFuc2xhdGUoNDUzLjAxNzI4OTgwMzY1NDksNTQ3LjgxODkzNTE4MDY2MDMpIiBpZD0iU3ZnanNHMTA2MCI+PHBhdGggb3BhY2l0eT0iMSIgZmlsbD0idXJsKCNTdmdqc1BhdHRlcm4xMDYyKSIgc3Ryb2tlPSJub25lIiBkPSJNIDAgMEwgMTE2LjI2OTY5MTkzMjE3Njc4IDBMIDExNi4yNjk2OTE5MzIxNzY3OCAxOTAuOTMxMTQ2NTA2OTU0OTdMIDAgMTkwLjkzMTE0NjUwNjk1NDk3WiIgaWQ9IlN2Z2pzUGF0aDEwNjEiLz48ZyBpZD0iU3ZnanNHMTA2NCI+PHRleHQgdHJhbnNmb3JtPSJyb3RhdGUoMCkiIHk9IjE1Ni4zMDYxNDY1MDY5NTQ5NyIgb3BhY2l0eT0iMSIgZm9udC1zdHlsZT0iIiBzaXplPSIxM3B4IiBhbGlnbj0iYm90dG9tIiBmb250LXdlaWdodD0iNDAwIiBmaWxsPSIjMzIzMjMyIiB3aWR0aD0iMTE3cHgiIGZvbnQtc2l6ZT0iMTNweCIgdGV4dC1hbmNob3I9Im1pZGRsZSIgZm9udC1mYW1pbHk9IuW+rui9r+mbhem7kSIgaWQ9IlN2Z2pzVGV4dDEwNjUiPjx0c3BhbiB4PSI1OC41IiBkeT0iMTYiIGlkPSJTdmdqc1RzcGFuMTA2NiI+PHRzcGFuIHN0eWxlPSJ0ZXh0LWRlY29yYXRpb246OyIgaWQ9IlN2Z2pzVHNwYW4xMDY3Ij5B5pyN5Yqh6ZuG576kPC90c3Bhbj48L3RzcGFuPjx0c3BhbiB4PSI1OC41IiBkeT0iMTYiIGlkPSJTdmdqc1RzcGFuMTA2OCI+PHRzcGFuIHN0eWxlPSJ0ZXh0LWRlY29yYXRpb246OyIgaWQ9IlN2Z2pzVHNwYW4xMDY5Ij7CoDwvdHNwYW4+PC90c3Bhbj48L3RleHQ+PC9nPjwvZz48ZyB0cmFuc2Zvcm09InRyYW5zbGF0ZSg3MjEuNzg2NzA0MTY5Mzc5OCw1NDcuODE4OTM1MTgwNjYwMykiIGlkPSJTdmdqc0cxMDcwIj48cGF0aCBvcGFjaXR5PSIxIiBmaWxsPSJ1cmwoI1N2Z2pzUGF0dGVybjEwNzIpIiBzdHJva2U9Im5vbmUiIGQ9Ik0gMCAwTCAxMTcuMjIyMjIyMjIyMjIxNzIgMEwgMTE3LjIyMjIyMjIyMjIyMTcyIDE5MC45MzExNDY1MDY5NTQ5N0wgMCAxOTAuOTMxMTQ2NTA2OTU0OTdaIiBpZD0iU3ZnanNQYXRoMTA3MSIvPjxnIGlkPSJTdmdqc0cxMDc0Ij48dGV4dCB0cmFuc2Zvcm09InJvdGF0ZSgwKSIgeT0iMTU2LjMwNjE0NjUwNjk1NDk3IiBvcGFjaXR5PSIxIiBmb250LXN0eWxlPSIiIHNpemU9IjEzcHgiIGFsaWduPSJib3R0b20iIGZvbnQtd2VpZ2h0PSI0MDAiIGZpbGw9IiMzMjMyMzIiIHdpZHRoPSIxMThweCIgZm9udC1zaXplPSIxM3B4IiB0ZXh0LWFuY2hvcj0ibWlkZGxlIiBmb250LWZhbWlseT0i5b6u6L2v6ZuF6buRIiBpZD0iU3ZnanNUZXh0MTA3NSI+PHRzcGFuIHg9IjU5IiBkeT0iMTYiIGlkPSJTdmdqc1RzcGFuMTA3NiI+PHRzcGFuIHN0eWxlPSJ0ZXh0LWRlY29yYXRpb246OyIgaWQ9IlN2Z2pzVHNwYW4xMDc3Ij5C5pyN5Yqh6ZuG576kPC90c3Bhbj48L3RzcGFuPjx0c3BhbiB4PSI1OSIgZHk9IjE2IiBpZD0iU3ZnanNUc3BhbjEwNzgiPjx0c3BhbiBzdHlsZT0idGV4dC1kZWNvcmF0aW9uOjsiIGlkPSJTdmdqc1RzcGFuMTA3OSI+wqA8L3RzcGFuPjwvdHNwYW4+PC90ZXh0PjwvZz48L2c+PGcgdHJhbnNmb3JtPSJ0cmFuc2xhdGUoMTAwLjc0NTU1MTkwNjAwNDk1LDk3OS4zMjI4OTA1NzYzMTA4KSIgaWQ9IlN2Z2pzRzEwODAiPjxwYXRoIG9wYWNpdHk9IjEiIGZpbGw9InVybCgjU3ZnanNQYXR0ZXJuMTA4MikiIHN0cm9rZT0ibm9uZSIgZD0iTSAwIDBMIDI1OS41MjY3NDg5NzExOTMyMyAwTCAyNTkuNTI2NzQ4OTcxMTkzMjMgMTAyLjM3NTExMDg4NzIxMzYyTCAwIDEwMi4zNzUxMTA4ODcyMTM2MloiIGlkPSJTdmdqc1BhdGgxMDgxIi8+PGcgaWQ9IlN2Z2pzRzEwODQiPjx0ZXh0IHRyYW5zZm9ybT0icm90YXRlKDApIiB5PSI2Ny43NTAxMTA4ODcyMTM2MiIgb3BhY2l0eT0iMSIgZm9udC1zdHlsZT0iIiBzaXplPSIxM3B4IiBhbGlnbj0iYm90dG9tIiBmb250LXdlaWdodD0iNDAwIiBmaWxsPSIjMzIzMjMyIiB3aWR0aD0iMjYwcHgiIGZvbnQtc2l6ZT0iMTNweCIgdGV4dC1hbmNob3I9Im1pZGRsZSIgZm9udC1mYW1pbHk9IuW+rui9r+mbhem7kSIgaWQ9IlN2Z2pzVGV4dDEwODUiPjx0c3BhbiB4PSIxMzAiIGR5PSIxNiIgaWQ9IlN2Z2pzVHNwYW4xMDg2Ij48dHNwYW4gc3R5bGU9InRleHQtZGVjb3JhdGlvbjo7IiBpZD0iU3ZnanNUc3BhbjEwODciPuiupOivgeS4reW/gzwvdHNwYW4+PC90c3Bhbj48dHNwYW4geD0iMTMwIiBkeT0iMTYiIGlkPSJTdmdqc1RzcGFuMTA4OCI+PHRzcGFuIHN0eWxlPSJ0ZXh0LWRlY29yYXRpb246OyIgaWQ9IlN2Z2pzVHNwYW4xMDg5Ij7CoDwvdHNwYW4+PC90c3Bhbj48L3RleHQ+PC9nPjwvZz48ZyB0cmFuc2Zvcm09InRyYW5zbGF0ZSgxNjAuNDUzMzcwODM2MDQ1NjgsNTM3Ljk0NDAxOTA4NTM2NzEpIiBpZD0iU3ZnanNHMTA5MCI+PHBhdGggb3BhY2l0eT0iMSIgZmlsbD0idXJsKCNTdmdqc1BhdHRlcm4xMDkyKSIgc3Ryb2tlPSJub25lIiBkPSJNIDAgMEwgMTM5LjU4NDM2MjEzOTkxODYgMEwgMTM5LjU4NDM2MjEzOTkxODYgMjEwLjY4MDk3ODY5NzU0MTM4TCAwIDIxMC42ODA5Nzg2OTc1NDEzOFoiIGlkPSJTdmdqc1BhdGgxMDkxIi8+PGcgaWQ9IlN2Z2pzRzEwOTQiPjx0ZXh0IHRyYW5zZm9ybT0icm90YXRlKDApIiB5PSI5NC43MTU0ODkzNDg3NzA2OSIgb3BhY2l0eT0iMSIgZm9udC1zdHlsZT0iIiBzaXplPSIxM3B4IiBhbGlnbj0ibWlkZGxlIiBmb250LXdlaWdodD0iNDAwIiBmaWxsPSIjMzIzMjMyIiB3aWR0aD0iMTQwcHgiIGZvbnQtc2l6ZT0iMTNweCIgdGV4dC1hbmNob3I9Im1pZGRsZSIgZm9udC1mYW1pbHk9IuW+rui9r+mbhem7kSIgaWQ9IlN2Z2pzVGV4dDEwOTUiLz48L2c+PC9nPjxnIHRyYW5zZm9ybT0idHJhbnNsYXRlKDI1LjAwODkyNjM5MTYwMTU2MiwyNzUuMzY3OTQwMTA5OTQxODYpIiBpZD0iU3ZnanNHMTA5NiI+PHBhdGggb3BhY2l0eT0iMSIgZmlsbD0idXJsKCNTdmdqc1BhdHRlcm4xMDk4KSIgc3Ryb2tlPSJub25lIiBkPSJNIDAgMEwgODAgMEwgODAgNzRMIDAgNzRaIiBpZD0iU3ZnanNQYXRoMTA5NyIvPjxnIGlkPSJTdmdqc0cxMTAwIj48dGV4dCB0cmFuc2Zvcm09InJvdGF0ZSgwKSIgeT0iNzguMzc1IiBvcGFjaXR5PSIxIiBmb250LXN0eWxlPSIiIHNpemU9IjEzcHgiIGFsaWduPSJtaWRkbGUiIGZvbnQtd2VpZ2h0PSI0MDAiIGZpbGw9IiMzMjMyMzIiIHdpZHRoPSIxMjBweCIgZm9udC1zaXplPSIxM3B4IiB0ZXh0LWFuY2hvcj0ibWlkZGxlIiBmb250LWZhbWlseT0i5b6u6L2v6ZuF6buRIiBpZD0iU3ZnanNUZXh0MTEwMSIvPjwvZz48L2c+PGcgdHJhbnNmb3JtPSJ0cmFuc2xhdGUoNTA3Ljk3MzYwMTY3NTU4NzUsMjU3LjUwODkxODc2MjIwNzAzKSIgaWQ9IlN2Z2pzRzExMDIiPjxwYXRoIGZpbGw9IiM2NmIyZmYiIGZpbGwtb3BhY2l0eT0iMSIgc3Ryb2tlLXdpZHRoPSIyIiBzdHJva2U9InJnYmEoMjU1LDI1NSwyNTUsMSkiIGQ9Ik0gMCAwTCA3Ny4wMzUzMjQ3MTYwMTQwOSAwTCA3Ny4wMzUzMjQ3MTYwMTQwOSAzMC41NTU1NTU1NTU1NTU0ODZMIDAgMzAuNTU1NTU1NTU1NTU1NDg2WiIgaWQ9IlN2Z2pzUGF0aDExMDMiLz48ZyBpZD0iU3ZnanNHMTEwNCI+PHRleHQgdHJhbnNmb3JtPSJyb3RhdGUoMCkiIHk9IjQuNjUyNzc3Nzc3Nzc3NzQzIiBvcGFjaXR5PSIxIiBmb250LXN0eWxlPSIiIHNpemU9IjEzcHgiIGFsaWduPSJtaWRkbGUiIGZvbnQtd2VpZ2h0PSI0MDAiIGZpbGw9IiMzMjMyMzIiIHdpZHRoPSI1OHB4IiBmb250LXNpemU9IjEzcHgiIHRleHQtYW5jaG9yPSJtaWRkbGUiIGZvbnQtZmFtaWx5PSLlvq7ova/pm4Xpu5EiIGlkPSJTdmdqc1RleHQxMTA1Ij48dHNwYW4geD0iMzkiIGR5PSIxNiIgaWQ9IlN2Z2pzVHNwYW4xMTA2Ij48dHNwYW4gc3R5bGU9InRleHQtZGVjb3JhdGlvbjo7IiBpZD0iU3ZnanNUc3BhbjExMDciPk5hY29zPC90c3Bhbj48L3RzcGFuPjwvdGV4dD48L2c+PC9nPjxnIHRyYW5zZm9ybT0idHJhbnNsYXRlKDQyMC4zMjYwMDQwODI1MDA3MywzMzcuMzY3OTQwMTA5OTQxODYpIiBpZD0iU3ZnanNHMTEwOCI+PHBhdGggZmlsbD0iIzY2YjJmZiIgZmlsbC1vcGFjaXR5PSIxIiBzdHJva2Utd2lkdGg9IjIiIHN0cm9rZT0icmdiYSgyNTUsMjU1LDI1NSwxKSIgZD0iTSAwIDBMIDc3Ljk3NjU0MjcxMTQ3NTQyIDBMIDc3Ljk3NjU0MjcxMTQ3NTQyIDI3Ljg2MTgwNzY5ODkwNDFMIDAgMjcuODYxODA3Njk4OTA0MVoiIGlkPSJTdmdqc1BhdGgxMTA5Ii8+PGcgaWQ9IlN2Z2pzRzExMTAiPjx0ZXh0IHRyYW5zZm9ybT0icm90YXRlKDApIiB5PSIzLjMwNTkwMzg0OTQ1MjA1MDciIG9wYWNpdHk9IjEiIGZvbnQtc3R5bGU9IiIgc2l6ZT0iMTNweCIgYWxpZ249Im1pZGRsZSIgZm9udC13ZWlnaHQ9IjQwMCIgZmlsbD0iIzMyMzIzMiIgd2lkdGg9IjU4cHgiIGZvbnQtc2l6ZT0iMTNweCIgdGV4dC1hbmNob3I9Im1pZGRsZSIgZm9udC1mYW1pbHk9IuW+rui9r+mbhem7kSIgaWQ9IlN2Z2pzVGV4dDExMTEiPjx0c3BhbiB4PSIzOSIgZHk9IjE2IiBpZD0iU3ZnanNUc3BhbjExMTIiPjx0c3BhbiBzdHlsZT0idGV4dC1kZWNvcmF0aW9uOjsiIGlkPSJTdmdqc1RzcGFuMTExMyI+TmFjb3M8L3RzcGFuPjwvdHNwYW4+PC90ZXh0PjwvZz48L2c+PGcgdHJhbnNmb3JtPSJ0cmFuc2xhdGUoNTg4Ljk1MzM3MDgzNjA0NTgsMzM3LjM2Nzk0MDEwOTk0MTg2KSIgaWQ9IlN2Z2pzRzExMTQiPjxwYXRoIGZpbGw9IiM2NmIyZmYiIGZpbGwtb3BhY2l0eT0iMSIgc3Ryb2tlLXdpZHRoPSIyIiBzdHJva2U9InJnYmEoMjU1LDI1NSwyNTUsMSkiIGQ9Ik0gMCAwTCA3OC4wNTU1NTU1NTU1NTU3NyAwTCA3OC4wNTU1NTU1NTU1NTU3NyAyNy44NjE4MDc2OTg5MDQxTCAwIDI3Ljg2MTgwNzY5ODkwNDFaIiBpZD0iU3ZnanNQYXRoMTExNSIvPjxnIGlkPSJTdmdqc0cxMTE2Ij48dGV4dCB0cmFuc2Zvcm09InJvdGF0ZSgwKSIgeT0iMy4zMDU5MDM4NDk0NTIwNTA3IiBvcGFjaXR5PSIxIiBmb250LXN0eWxlPSIiIHNpemU9IjEzcHgiIGFsaWduPSJtaWRkbGUiIGZvbnQtd2VpZ2h0PSI0MDAiIGZpbGw9IiMzMjMyMzIiIHdpZHRoPSI1OXB4IiBmb250LXNpemU9IjEzcHgiIHRleHQtYW5jaG9yPSJtaWRkbGUiIGZvbnQtZmFtaWx5PSLlvq7ova/pm4Xpu5EiIGlkPSJTdmdqc1RleHQxMTE3Ij48dHNwYW4geD0iMzkuNSIgZHk9IjE2IiBpZD0iU3ZnanNUc3BhbjExMTgiPjx0c3BhbiBzdHlsZT0idGV4dC1kZWNvcmF0aW9uOjsiIGlkPSJTdmdqc1RzcGFuMTExOSI+TmFjb3M8L3RzcGFuPjwvdHNwYW4+PC90ZXh0PjwvZz48L2c+PGcgdHJhbnNmb3JtPSJ0cmFuc2xhdGUoNDYxLjc2MzI0Njg4MDg1NDEsNTU4LjMyMzQwNjEzMjA0MjEpIiBpZD0iU3ZnanNHMTEyMCI+PHBhdGggZmlsbD0iIzMzZmYzMyIgZmlsbC1vcGFjaXR5PSIxIiBzdHJva2Utd2lkdGg9IjIiIHN0cm9rZT0icmdiYSgyNTUsMjU1LDI1NSwxKSIgZD0iTSAwIDBMIDk4Ljc3Nzc3Nzc3Nzc3ODI4IDBMIDk4Ljc3Nzc3Nzc3Nzc3ODI4IDM5LjIwODA3NzY2MDU0OTQxTCAwIDM5LjIwODA3NzY2MDU0OTQxWiIgaWQ9IlN2Z2pzUGF0aDExMjEiLz48ZyBpZD0iU3ZnanNHMTEyMiI+PHRleHQgdHJhbnNmb3JtPSJyb3RhdGUoMCkiIHk9IjguOTc5MDM4ODMwMjc0NzAzIiBvcGFjaXR5PSIxIiBmb250LXN0eWxlPSIiIHNpemU9IjEzcHgiIGFsaWduPSJtaWRkbGUiIGZvbnQtd2VpZ2h0PSI0MDAiIGZpbGw9IiMzMjMyMzIiIHdpZHRoPSI3OXB4IiBmb250LXNpemU9IjEzcHgiIHRleHQtYW5jaG9yPSJtaWRkbGUiIGZvbnQtZmFtaWx5PSLlvq7ova/pm4Xpu5EiIGlkPSJTdmdqc1RleHQxMTIzIj48dHNwYW4geD0iNDkuNSIgZHk9IjE2IiBpZD0iU3ZnanNUc3BhbjExMjQiPjx0c3BhbiBzdHlsZT0idGV4dC1kZWNvcmF0aW9uOjsiIGlkPSJTdmdqc1RzcGFuMTEyNSI+U2VydmljZS1BPC90c3Bhbj48L3RzcGFuPjwvdGV4dD48L2c+PC9nPjxnIHRyYW5zZm9ybT0idHJhbnNsYXRlKDQ2MS43NjMyNDY4ODA4NTQxLDYwNi40MzU3MjQ3NDgyNTk0KSIgaWQ9IlN2Z2pzRzExMjYiPjxwYXRoIGZpbGw9IiMzM2ZmMzMiIGZpbGwtb3BhY2l0eT0iMSIgc3Ryb2tlLXdpZHRoPSIyIiBzdHJva2U9InJnYmEoMjU1LDI1NSwyNTUsMSkiIGQ9Ik0gMCAwTCA5OC43Nzc3Nzc3Nzc3NzgyOCAwTCA5OC43Nzc3Nzc3Nzc3NzgyOCAzOS4yMDgwNzc2NjA1NDk0MUwgMCAzOS4yMDgwNzc2NjA1NDk0MVoiIGlkPSJTdmdqc1BhdGgxMTI3Ii8+PGcgaWQ9IlN2Z2pzRzExMjgiPjx0ZXh0IHRyYW5zZm9ybT0icm90YXRlKDApIiB5PSI4Ljk3OTAzODgzMDI3NDcwMyIgb3BhY2l0eT0iMSIgZm9udC1zdHlsZT0iIiBzaXplPSIxM3B4IiBhbGlnbj0ibWlkZGxlIiBmb250LXdlaWdodD0iNDAwIiBmaWxsPSIjMzIzMjMyIiB3aWR0aD0iNzlweCIgZm9udC1zaXplPSIxM3B4IiB0ZXh0LWFuY2hvcj0ibWlkZGxlIiBmb250LWZhbWlseT0i5b6u6L2v6ZuF6buRIiBpZD0iU3ZnanNUZXh0MTEyOSI+PHRzcGFuIHg9IjQ5LjUiIGR5PSIxNiIgaWQ9IlN2Z2pzVHNwYW4xMTMwIj48dHNwYW4gc3R5bGU9InRleHQtZGVjb3JhdGlvbjo7IiBpZD0iU3ZnanNUc3BhbjExMzEiPlNlcnZpY2UtQTwvdHNwYW4+PC90c3Bhbj48L3RleHQ+PC9nPjwvZz48ZyB0cmFuc2Zvcm09InRyYW5zbGF0ZSg0NjEuNzYzMjQ2ODgwODU0MSw2NTQuMzAwODQxMTAxNjU3NikiIGlkPSJTdmdqc0cxMTMyIj48cGF0aCBmaWxsPSIjMzNmZjMzIiBmaWxsLW9wYWNpdHk9IjEiIHN0cm9rZS13aWR0aD0iMiIgc3Ryb2tlPSJyZ2JhKDI1NSwyNTUsMjU1LDEpIiBkPSJNIDAgMEwgOTguNzc3Nzc3Nzc3Nzc4MjggMEwgOTguNzc3Nzc3Nzc3Nzc4MjggMzkuMjA4MDc3NjYwNTQ5NDFMIDAgMzkuMjA4MDc3NjYwNTQ5NDFaIiBpZD0iU3ZnanNQYXRoMTEzMyIvPjxnIGlkPSJTdmdqc0cxMTM0Ij48dGV4dCB0cmFuc2Zvcm09InJvdGF0ZSgwKSIgeT0iOC45NzkwMzg4MzAyNzQ3MDMiIG9wYWNpdHk9IjEiIGZvbnQtc3R5bGU9IiIgc2l6ZT0iMTNweCIgYWxpZ249Im1pZGRsZSIgZm9udC13ZWlnaHQ9IjQwMCIgZmlsbD0iIzMyMzIzMiIgd2lkdGg9Ijc5cHgiIGZvbnQtc2l6ZT0iMTNweCIgdGV4dC1hbmNob3I9Im1pZGRsZSIgZm9udC1mYW1pbHk9IuW+rui9r+mbhem7kSIgaWQ9IlN2Z2pzVGV4dDExMzUiPjx0c3BhbiB4PSI0OS41IiBkeT0iMTYiIGlkPSJTdmdqc1RzcGFuMTEzNiI+PHRzcGFuIHN0eWxlPSJ0ZXh0LWRlY29yYXRpb246OyIgaWQ9IlN2Z2pzVHNwYW4xMTM3Ij5TZXJ2aWNlLUE8L3RzcGFuPjwvdHNwYW4+PC90ZXh0PjwvZz48L2c+PGcgdHJhbnNmb3JtPSJ0cmFuc2xhdGUoMzA2LjAwODkyNjM5MTYwMTU2LDU4MC41MDg5MTg3NjIyMDcpIiBpZD0iU3ZnanNHMTEzOCI+PHBhdGggZmlsbD0iI2ZmOTk5OSIgZmlsbC1vcGFjaXR5PSIxIiBzdHJva2Utd2lkdGg9IjIiIHN0cm9rZT0icmdiYSgyNTUsMjU1LDI1NSwxKSIgZD0iTSAwIDBMIDEyMSAwTCAxMjEgMzUuMzI5NzgxNzg3MzI5NDY2TCAwIDM1LjMyOTc4MTc4NzMyOTQ2NloiIGlkPSJTdmdqc1BhdGgxMTM5Ii8+PGcgaWQ9IlN2Z2pzRzExNDAiPjx0ZXh0IHRyYW5zZm9ybT0icm90YXRlKDApIiB5PSI3LjAzOTg5MDg5MzY2NDczMyIgb3BhY2l0eT0iMSIgZm9udC1zdHlsZT0iIiBzaXplPSIxM3B4IiBhbGlnbj0ibWlkZGxlIiBmb250LXdlaWdodD0iNDAwIiBmaWxsPSIjMzIzMjMyIiB3aWR0aD0iMTAxcHgiIGZvbnQtc2l6ZT0iMTNweCIgdGV4dC1hbmNob3I9Im1pZGRsZSIgZm9udC1mYW1pbHk9IuW+rui9r+mbhem7kSIgaWQ9IlN2Z2pzVGV4dDExNDEiPjx0c3BhbiB4PSI2MC41IiBkeT0iMTYiIGlkPSJTdmdqc1RzcGFuMTE0MiI+PHRzcGFuIHN0eWxlPSJ0ZXh0LWRlY29yYXRpb246OyIgaWQ9IlN2Z2pzVHNwYW4xMTQzIj5TZW50aW5lbC9SaWJib248L3RzcGFuPjwvdHNwYW4+PC90ZXh0PjwvZz48L2c+PGcgaWQ9IlN2Z2pzRzExNDQiPjxwYXRoIG1hcmtlci1lbmQ9InVybCgjU3ZnanNNYXJrZXIxMTQ4KSIgbWFya2VyLXN0YXJ0PSJ1cmwoI1N2Z2pzTWFya2VyMTE0NikiIGZpbGw9Im5vbmUiIHN0cm9rZS13aWR0aD0iMiIgc3Ryb2tlPSIjMzIzMjMyIiBkPSJNNTA1LjkxMTIxNjI1MTExMjE0IDI4OS43MTA1NzcwMjAxMDU5TDQ2MS44MzEwNjEwOTAwMDI1NSAzMzQuNzkzODc5MTE5MzkxMyIgaWQ9IlN2Z2pzUGF0aDExNDUiLz48cmVjdCBmaWxsPSIjZmZmZmZmIiB5PSIzMDQuNzUyMjI4MDY5NzQ4NjQiIHg9IjQ2My4zNzExMzg2NzA1NTczNCIgaGVpZ2h0PSIxNSIgd2lkdGg9IjQxIiBpZD0iU3ZnanNSZWN0MTE1MCIvPjx0ZXh0IHRyYW5zZm9ybT0icm90YXRlKDApIiB5PSIzMDIuMTI3MjI4MDY5NzQ4NjQiIG9wYWNpdHk9IjEiIGZvbnQtc3R5bGU9IiIgc2l6ZT0iMTNweCIgYWxpZ249InRvcCIgZm9udC13ZWlnaHQ9IjQwMCIgZmlsbD0iIzMyMzIzMiIgd2lkdGg9IjQxcHgiIGZvbnQtc2l6ZT0iMTNweCIgdGV4dC1hbmNob3I9Im1pZGRsZSIgZm9udC1mYW1pbHk9IuW+rui9r+mbhem7kSIgaWQ9IlN2Z2pzVGV4dDExNTEiPjx0c3BhbiB4PSI0ODMuODcxMTM4NjcwNTU3MzQiIGR5PSIxNiIgaWQ9IlN2Z2pzVHNwYW4xMTUyIj48dHNwYW4gc3R5bGU9InRleHQtZGVjb3JhdGlvbjo7IiBpZD0iU3ZnanNUc3BhbjExNTMiPmNsdXN0ZXI8L3RzcGFuPjwvdHNwYW4+PC90ZXh0PjwvZz48ZyBpZD0iU3ZnanNHMTE1NCI+PHBhdGggbWFya2VyLWVuZD0idXJsKCNTdmdqc01hcmtlcjExNTgpIiBtYXJrZXItc3RhcnQ9InVybCgjU3ZnanNNYXJrZXIxMTU2KSIgZmlsbD0ibm9uZSIgc3Ryb2tlLXdpZHRoPSIyIiBzdHJva2U9IiMzMjMyMzIiIGQ9Ik01ODcuMDQxMDQyODAzNzEzNyAyOTAuMzUxOTY1MDUzNzg0OEw2MjUuNjE3MDQzMDU2NjkzOSAzMzQuNjUyOTgwNjQxNTk4NDUiIGlkPSJTdmdqc1BhdGgxMTU1Ii8+PHJlY3QgZmlsbD0iI2ZmZmZmZiIgeT0iMzA1LjAwMjQ3Mjg0NzY5MTYiIHg9IjU4NS44MjkwNDI5MzAyMDM3IiBoZWlnaHQ9IjE1IiB3aWR0aD0iNDEiIGlkPSJTdmdqc1JlY3QxMTYwIi8+PHRleHQgdHJhbnNmb3JtPSJyb3RhdGUoMCkiIHk9IjMwMi4zNzc0NzI4NDc2OTE2IiBvcGFjaXR5PSIxIiBmb250LXN0eWxlPSIiIHNpemU9IjEzcHgiIGFsaWduPSJ0b3AiIGZvbnQtd2VpZ2h0PSI0MDAiIGZpbGw9IiMzMjMyMzIiIHdpZHRoPSI0MXB4IiBmb250LXNpemU9IjEzcHgiIHRleHQtYW5jaG9yPSJtaWRkbGUiIGZvbnQtZmFtaWx5PSLlvq7ova/pm4Xpu5EiIGlkPSJTdmdqc1RleHQxMTYxIj48dHNwYW4geD0iNjA2LjMyOTA0MjkzMDIwMzciIGR5PSIxNiIgaWQ9IlN2Z2pzVHNwYW4xMTYyIj48dHNwYW4gc3R5bGU9InRleHQtZGVjb3JhdGlvbjo7IiBpZD0iU3ZnanNUc3BhbjExNjMiPmNsdXN0ZXI8L3RzcGFuPjwvdHNwYW4+PC90ZXh0PjwvZz48ZyBpZD0iU3ZnanNHMTE2NCI+PHBhdGggbWFya2VyLWVuZD0idXJsKCNTdmdqc01hcmtlcjExNjgpIiBtYXJrZXItc3RhcnQ9InVybCgjU3ZnanNNYXJrZXIxMTY2KSIgZmlsbD0ibm9uZSIgc3Ryb2tlLXdpZHRoPSIyIiBzdHJva2U9IiMzMjMyMzIiIGQ9Ik01MDEuOTAyNTQ2NzkzOTc2MTcgMzUxLjI5ODg0Mzk1OTM5MzkzTDU4NS4zNTMzNzA4MzYwNDU4IDM1MS4yOTg4NDM5NTkzOTM5MyIgaWQ9IlN2Z2pzUGF0aDExNjUiLz48cmVjdCBmaWxsPSIjZmZmZmZmIiB5PSIzNDMuNzk4ODQzOTU5MzkzOTMiIHg9IjUyMy4xMjc5NTg4MTUwMTEiIGhlaWdodD0iMTUiIHdpZHRoPSI0MSIgaWQ9IlN2Z2pzUmVjdDExNzAiLz48dGV4dCB0cmFuc2Zvcm09InJvdGF0ZSgwKSIgeT0iMzQxLjE3Mzg0Mzk1OTM5MzkzIiBvcGFjaXR5PSIxIiBmb250LXN0eWxlPSIiIHNpemU9IjEzcHgiIGFsaWduPSJ0b3AiIGZvbnQtd2VpZ2h0PSI0MDAiIGZpbGw9IiMzMjMyMzIiIHdpZHRoPSI0MXB4IiBmb250LXNpemU9IjEzcHgiIHRleHQtYW5jaG9yPSJtaWRkbGUiIGZvbnQtZmFtaWx5PSLlvq7ova/pm4Xpu5EiIGlkPSJTdmdqc1RleHQxMTcxIj48dHNwYW4geD0iNTQzLjYyNzk1ODgxNTAxMSIgZHk9IjE2IiBpZD0iU3ZnanNUc3BhbjExNzIiPjx0c3BhbiBzdHlsZT0idGV4dC1kZWNvcmF0aW9uOjsiIGlkPSJTdmdqc1RzcGFuMTE3MyI+Y2x1c3RlcjwvdHNwYW4+PC90c3Bhbj48L3RleHQ+PC9nPjxnIGlkPSJTdmdqc0cxMTc0Ij48cGF0aCBtYXJrZXItZW5kPSJ1cmwoI1N2Z2pzTWFya2VyMTE3NikiIGZpbGw9Im5vbmUiIHN0cm9rZS13aWR0aD0iMiIgc3Ryb2tlPSIjMzIzMjMyIiBkPSJNNTQzLjAxOTEyOTk0MjAzNDUgNTIyLjUwODk3MDgxOTc4MjdMNTQzLjk4MjM5NzE2MDQ3NiA0MjguMTA4NzgzNDEyNTEwMiIgaWQ9IlN2Z2pzUGF0aDExNzUiLz48cmVjdCBmaWxsPSIjZmZmZmZmIiB5PSI0NjcuODA4ODc3MTE2MTQ2NDUiIHg9IjUzMC41MDA3NjM1NTEyNTUyIiBoZWlnaHQ9IjE1IiB3aWR0aD0iMjYiIGlkPSJTdmdqc1JlY3QxMTc4Ii8+PHRleHQgdHJhbnNmb3JtPSJyb3RhdGUoMCkiIHk9IjQ2NS4xODM4NzcxMTYxNDY0NSIgb3BhY2l0eT0iMSIgZm9udC1zdHlsZT0iIiBzaXplPSIxM3B4IiBhbGlnbj0idG9wIiBmb250LXdlaWdodD0iNDAwIiBmaWxsPSIjMzIzMjMyIiB3aWR0aD0iMjZweCIgZm9udC1zaXplPSIxM3B4IiB0ZXh0LWFuY2hvcj0ibWlkZGxlIiBmb250LWZhbWlseT0i5b6u6L2v6ZuF6buRIiBpZD0iU3ZnanNUZXh0MTE3OSI+PHRzcGFuIHg9IjU0My41MDA3NjM1NTEyNTUyIiBkeT0iMTYiIGlkPSJTdmdqc1RzcGFuMTE4MCI+PHRzcGFuIHN0eWxlPSJ0ZXh0LWRlY29yYXRpb246OyIgaWQ9IlN2Z2pzVHNwYW4xMTgxIj7ms6jlhow8L3RzcGFuPjwvdHNwYW4+PC90ZXh0PjwvZz48ZyBpZD0iU3ZnanNHMTE4MiI+PHBhdGggbWFya2VyLWVuZD0idXJsKCNTdmdqc01hcmtlcjExODQpIiBmaWxsPSJub25lIiBzdHJva2Utd2lkdGg9IjIiIHN0cm9rZT0iIzMyMzIzMiIgZD0iTTMwMC4wMzc3MzI5NzU5NjQyIDY0My4yODQ1MDg0MzQxMzc4TDM2OC4wMjMzMjk2ODM3ODI5IDY0My4yODQ1MDg0MzQxMzc4TDM2OC4wMjMzMjk2ODM3ODI5IDY0My4yODQ1MDg0MzQxMzc5TDQzMi40MDg5MjYzOTE2MDE1NCA2NDMuMjg0NTA4NDM0MTM3OSIgaWQ9IlN2Z2pzUGF0aDExODMiLz48cmVjdCBmaWxsPSIjZmZmZmZmIiB5PSI2MzUuNzg0NTA4NDM0MTM3OCIgeD0iMzQwLjIyMzMyOTY4Mzc4MyIgaGVpZ2h0PSIxNSIgd2lkdGg9IjUyIiBpZD0iU3ZnanNSZWN0MTE4NiIvPjx0ZXh0IHRyYW5zZm9ybT0icm90YXRlKDApIiB5PSI2MzMuMTU5NTA4NDM0MTM3OCIgb3BhY2l0eT0iMSIgZm9udC1zdHlsZT0iIiBzaXplPSIxM3B4IiBhbGlnbj0idG9wIiBmb250LXdlaWdodD0iNDAwIiBmaWxsPSIjMzIzMjMyIiB3aWR0aD0iNTJweCIgZm9udC1zaXplPSIxM3B4IiB0ZXh0LWFuY2hvcj0ibWlkZGxlIiBmb250LWZhbWlseT0i5b6u6L2v6ZuF6buRIiBpZD0iU3ZnanNUZXh0MTE4NyI+PHRzcGFuIHg9IjM2Ni4yMjMzMjk2ODM3ODMiIGR5PSIxNiIgaWQ9IlN2Z2pzVHNwYW4xMTg4Ij48dHNwYW4gc3R5bGU9InRleHQtZGVjb3JhdGlvbjo7IiBpZD0iU3ZnanNUc3BhbjExODkiPui9rOWPkeacjeWKoTwvdHNwYW4+PC90c3Bhbj48L3RleHQ+PC9nPjxnIHRyYW5zZm9ybT0idHJhbnNsYXRlKDE3NC4xODYzOTU1Mjc0MDQxLDU1MS41MDg5MTg3NjIyMDcpIiBpZD0iU3ZnanNHMTE5MCI+PHBhdGggZmlsbD0iI2ZmYjM2NiIgZmlsbC1vcGFjaXR5PSIxIiBzdHJva2Utd2lkdGg9IjIiIHN0cm9rZT0icmdiYSgyNTUsMjU1LDI1NSwxKSIgZD0iTSAwIDBMIDExMi42NDUwNjE3MjgzOTQ5MiAwTCAxMTIuNjQ1MDYxNzI4Mzk0OTIgMzcuNTYxODQ1MTYxNDE4MzJMIDAgMzcuNTYxODQ1MTYxNDE4MzJaIiBpZD0iU3ZnanNQYXRoMTE5MSIvPjxnIGlkPSJTdmdqc0cxMTkyIj48dGV4dCB0cmFuc2Zvcm09InJvdGF0ZSgwKSIgeT0iOC4xNTU5MjI1ODA3MDkxNiIgb3BhY2l0eT0iMSIgZm9udC1zdHlsZT0iIiBzaXplPSIxM3B4IiBhbGlnbj0ibWlkZGxlIiBmb250LXdlaWdodD0iNDAwIiBmaWxsPSIjMzIzMjMyIiB3aWR0aD0iOTNweCIgZm9udC1zaXplPSIxM3B4IiB0ZXh0LWFuY2hvcj0ibWlkZGxlIiBmb250LWZhbWlseT0i5b6u6L2v6ZuF6buRIiBpZD0iU3ZnanNUZXh0MTE5MyI+PHRzcGFuIHg9IjU2LjUiIGR5PSIxNiIgaWQ9IlN2Z2pzVHNwYW4xMTk0Ij48dHNwYW4gc3R5bGU9InRleHQtZGVjb3JhdGlvbjo7IiBpZD0iU3ZnanNUc3BhbjExOTUiPnJ1b3lpLWdhdGV3YXk8L3RzcGFuPjwvdHNwYW4+PC90ZXh0PjwvZz48L2c+PGcgdHJhbnNmb3JtPSJ0cmFuc2xhdGUoNzMxLjAwODkyNjM5MTYwMTYsNTU4LjMyMzQwNjEzMjA0MjEpIiBpZD0iU3ZnanNHMTE5NiI+PHBhdGggZmlsbD0iIzMzZmYzMyIgZmlsbC1vcGFjaXR5PSIxIiBzdHJva2Utd2lkdGg9IjIiIHN0cm9rZT0icmdiYSgyNTUsMjU1LDI1NSwxKSIgZD0iTSAwIDBMIDk4Ljc3Nzc3Nzc3Nzc3ODI4IDBMIDk4Ljc3Nzc3Nzc3Nzc3ODI4IDM5LjIwODA3NzY2MDU0OTQxTCAwIDM5LjIwODA3NzY2MDU0OTQxWiIgaWQ9IlN2Z2pzUGF0aDExOTciLz48ZyBpZD0iU3ZnanNHMTE5OCI+PHRleHQgdHJhbnNmb3JtPSJyb3RhdGUoMCkiIHk9IjguOTc5MDM4ODMwMjc0NzAzIiBvcGFjaXR5PSIxIiBmb250LXN0eWxlPSIiIHNpemU9IjEzcHgiIGFsaWduPSJtaWRkbGUiIGZvbnQtd2VpZ2h0PSI0MDAiIGZpbGw9IiMzMjMyMzIiIHdpZHRoPSI3OXB4IiBmb250LXNpemU9IjEzcHgiIHRleHQtYW5jaG9yPSJtaWRkbGUiIGZvbnQtZmFtaWx5PSLlvq7ova/pm4Xpu5EiIGlkPSJTdmdqc1RleHQxMTk5Ij48dHNwYW4geD0iNDkuNSIgZHk9IjE2IiBpZD0iU3ZnanNUc3BhbjEyMDAiPjx0c3BhbiBzdHlsZT0idGV4dC1kZWNvcmF0aW9uOjsiIGlkPSJTdmdqc1RzcGFuMTIwMSI+U2VydmljZS1CPC90c3Bhbj48L3RzcGFuPjwvdGV4dD48L2c+PC9nPjxnIHRyYW5zZm9ybT0idHJhbnNsYXRlKDczMS4wMDg5MjYzOTE2MDE2LDYwNi41MzE0ODM3OTI1OTE1KSIgaWQ9IlN2Z2pzRzEyMDIiPjxwYXRoIGZpbGw9IiMzM2ZmMzMiIGZpbGwtb3BhY2l0eT0iMSIgc3Ryb2tlLXdpZHRoPSIyIiBzdHJva2U9InJnYmEoMjU1LDI1NSwyNTUsMSkiIGQ9Ik0gMCAwTCA5OC43Nzc3Nzc3Nzc3NzgyOCAwTCA5OC43Nzc3Nzc3Nzc3NzgyOCAzOS4yMDgwNzc2NjA1NDk0MUwgMCAzOS4yMDgwNzc2NjA1NDk0MVoiIGlkPSJTdmdqc1BhdGgxMjAzIi8+PGcgaWQ9IlN2Z2pzRzEyMDQiPjx0ZXh0IHRyYW5zZm9ybT0icm90YXRlKDApIiB5PSI4Ljk3OTAzODgzMDI3NDcwMyIgb3BhY2l0eT0iMSIgZm9udC1zdHlsZT0iIiBzaXplPSIxM3B4IiBhbGlnbj0ibWlkZGxlIiBmb250LXdlaWdodD0iNDAwIiBmaWxsPSIjMzIzMjMyIiB3aWR0aD0iNzlweCIgZm9udC1zaXplPSIxM3B4IiB0ZXh0LWFuY2hvcj0ibWlkZGxlIiBmb250LWZhbWlseT0i5b6u6L2v6ZuF6buRIiBpZD0iU3ZnanNUZXh0MTIwNSI+PHRzcGFuIHg9IjQ5LjUiIGR5PSIxNiIgaWQ9IlN2Z2pzVHNwYW4xMjA2Ij48dHNwYW4gc3R5bGU9InRleHQtZGVjb3JhdGlvbjo7IiBpZD0iU3ZnanNUc3BhbjEyMDciPlNlcnZpY2UtQjwvdHNwYW4+PC90c3Bhbj48L3RleHQ+PC9nPjwvZz48ZyB0cmFuc2Zvcm09InRyYW5zbGF0ZSg3MzEuMDA4OTI2MzkxNjAxNiw2NTQuMzk2NjAwMTQ1OTg5NykiIGlkPSJTdmdqc0cxMjA4Ij48cGF0aCBmaWxsPSIjMzNmZjMzIiBmaWxsLW9wYWNpdHk9IjEiIHN0cm9rZS13aWR0aD0iMiIgc3Ryb2tlPSJyZ2JhKDI1NSwyNTUsMjU1LDEpIiBkPSJNIDAgMEwgOTguNzc3Nzc3Nzc3Nzc4MjggMEwgOTguNzc3Nzc3Nzc3Nzc4MjggMzkuMjA4MDc3NjYwNTQ5NDFMIDAgMzkuMjA4MDc3NjYwNTQ5NDFaIiBpZD0iU3ZnanNQYXRoMTIwOSIvPjxnIGlkPSJTdmdqc0cxMjEwIj48dGV4dCB0cmFuc2Zvcm09InJvdGF0ZSgwKSIgeT0iOC45NzkwMzg4MzAyNzQ3MDMiIG9wYWNpdHk9IjEiIGZvbnQtc3R5bGU9IiIgc2l6ZT0iMTNweCIgYWxpZ249Im1pZGRsZSIgZm9udC13ZWlnaHQ9IjQwMCIgZmlsbD0iIzMyMzIzMiIgd2lkdGg9Ijc5cHgiIGZvbnQtc2l6ZT0iMTNweCIgdGV4dC1hbmNob3I9Im1pZGRsZSIgZm9udC1mYW1pbHk9IuW+rui9r+mbhem7kSIgaWQ9IlN2Z2pzVGV4dDEyMTEiPjx0c3BhbiB4PSI0OS41IiBkeT0iMTYiIGlkPSJTdmdqc1RzcGFuMTIxMiI+PHRzcGFuIHN0eWxlPSJ0ZXh0LWRlY29yYXRpb246OyIgaWQ9IlN2Z2pzVHNwYW4xMjEzIj5TZXJ2aWNlLUI8L3RzcGFuPjwvdHNwYW4+PC90ZXh0PjwvZz48L2c+PGcgaWQ9IlN2Z2pzRzEyMTQiPjxwYXRoIG1hcmtlci1lbmQ9InVybCgjU3ZnanNNYXJrZXIxMjE4KSIgbWFya2VyLXN0YXJ0PSJ1cmwoI1N2Z2pzTWFya2VyMTIxNikiIGZpbGw9Im5vbmUiIHN0cm9rZS13aWR0aD0iMiIgc3Ryb2tlPSIjMzIzMjMyIiBkPSJNNTcxLjYwODkyNjM5MTYwMTYgNjI4LjUwODkxODc2MjIwN0w2NDUuNDEzMTQ0NzQ3Nzk4IDYyOC41MDg5MTg3NjIyMDdMNjQ1LjQxMzE0NDc0Nzc5OCA2MjcuNTA4OTE4NzYyMjA3TDcxOS4yMTczNjMxMDM5OTQ0IDYyNy41MDg5MTg3NjIyMDciIGlkPSJTdmdqc1BhdGgxMjE1Ii8+PHJlY3QgZmlsbD0iI2ZmZmZmZiIgeT0iNjIwLjUwODkxODc2MjIwNyIgeD0iNjA4LjkxMzE0NDc0Nzc5OCIgaGVpZ2h0PSIxNSIgd2lkdGg9IjczIiBpZD0iU3ZnanNSZWN0MTIyMCIvPjx0ZXh0IHRyYW5zZm9ybT0icm90YXRlKDApIiB5PSI2MTcuODgzOTE4NzYyMjA3IiBvcGFjaXR5PSIxIiBmb250LXN0eWxlPSIiIHNpemU9IjEzcHgiIGFsaWduPSJ0b3AiIGZvbnQtd2VpZ2h0PSI0MDAiIGZpbGw9IiMzMjMyMzIiIHdpZHRoPSI3M3B4IiBmb250LXNpemU9IjEzcHgiIHRleHQtYW5jaG9yPSJtaWRkbGUiIGZvbnQtZmFtaWx5PSLlvq7ova/pm4Xpu5EiIGlkPSJTdmdqc1RleHQxMjIxIj48dHNwYW4geD0iNjQ1LjQxMzE0NDc0Nzc5OCIgZHk9IjE2IiBpZD0iU3ZnanNUc3BhbjEyMjIiPjx0c3BhbiBzdHlsZT0idGV4dC1kZWNvcmF0aW9uOjsiIGlkPSJTdmdqc1RzcGFuMTIyMyI+RmVpZ24gQ2xpZW50PC90c3Bhbj48L3RzcGFuPjwvdGV4dD48L2c+PGcgdHJhbnNmb3JtPSJ0cmFuc2xhdGUoMTc2LjM2Mzg2NDY2MzIwNjY0LDU5Ny40MzU3MjQ3NDgyNTk0KSIgaWQ9IlN2Z2pzRzEyMjQiPjxwYXRoIGZpbGw9IiNmZmIzNjYiIGZpbGwtb3BhY2l0eT0iMSIgc3Ryb2tlLXdpZHRoPSIyIiBzdHJva2U9InJnYmEoMjU1LDI1NSwyNTUsMSkiIGQ9Ik0gMCAwTCAxMTIuNjQ1MDYxNzI4Mzk0OTIgMEwgMTEyLjY0NTA2MTcyODM5NDkyIDM0LjY2Nzg4NzY2Nzg4NjgxNkwgMCAzNC42Njc4ODc2Njc4ODY4MTZaIiBpZD0iU3ZnanNQYXRoMTIyNSIvPjxnIGlkPSJTdmdqc0cxMjI2Ij48dGV4dCB0cmFuc2Zvcm09InJvdGF0ZSgwKSIgeT0iNi43MDg5NDM4MzM5NDM0MDgiIG9wYWNpdHk9IjEiIGZvbnQtc3R5bGU9IiIgc2l6ZT0iMTNweCIgYWxpZ249Im1pZGRsZSIgZm9udC13ZWlnaHQ9IjQwMCIgZmlsbD0iIzMyMzIzMiIgd2lkdGg9IjkzcHgiIGZvbnQtc2l6ZT0iMTNweCIgdGV4dC1hbmNob3I9Im1pZGRsZSIgZm9udC1mYW1pbHk9IuW+rui9r+mbhem7kSIgaWQ9IlN2Z2pzVGV4dDEyMjciPjx0c3BhbiB4PSI1Ni41IiBkeT0iMTYiIGlkPSJTdmdqc1RzcGFuMTIyOCI+PHRzcGFuIHN0eWxlPSJ0ZXh0LWRlY29yYXRpb246OyIgaWQ9IlN2Z2pzVHNwYW4xMjI5Ij5ydW95aS1nYXRld2F5PC90c3Bhbj48L3RzcGFuPjwvdGV4dD48L2c+PC9nPjxnIHRyYW5zZm9ybT0idHJhbnNsYXRlKDE3Ni4zNjM4NjQ2NjMyMDY2NCw2MzkuNTA4OTE4NzYyMjA3KSIgaWQ9IlN2Z2pzRzEyMzAiPjxwYXRoIGZpbGw9IiNmZmIzNjYiIGZpbGwtb3BhY2l0eT0iMSIgc3Ryb2tlLXdpZHRoPSIyIiBzdHJva2U9InJnYmEoMjU1LDI1NSwyNTUsMSkiIGQ9Ik0gMCAwTCAxMTIuNjQ1MDYxNzI4Mzk0OTIgMEwgMTEyLjY0NTA2MTcyODM5NDkyIDM4TCAwIDM4WiIgaWQ9IlN2Z2pzUGF0aDEyMzEiLz48ZyBpZD0iU3ZnanNHMTIzMiI+PHRleHQgdHJhbnNmb3JtPSJyb3RhdGUoMCkiIHk9IjguMzc1IiBvcGFjaXR5PSIxIiBmb250LXN0eWxlPSIiIHNpemU9IjEzcHgiIGFsaWduPSJtaWRkbGUiIGZvbnQtd2VpZ2h0PSI0MDAiIGZpbGw9IiMzMjMyMzIiIHdpZHRoPSI5M3B4IiBmb250LXNpemU9IjEzcHgiIHRleHQtYW5jaG9yPSJtaWRkbGUiIGZvbnQtZmFtaWx5PSLlvq7ova/pm4Xpu5EiIGlkPSJTdmdqc1RleHQxMjMzIj48dHNwYW4geD0iNTYuNSIgZHk9IjE2IiBpZD0iU3ZnanNUc3BhbjEyMzQiPjx0c3BhbiBzdHlsZT0idGV4dC1kZWNvcmF0aW9uOjsiIGlkPSJTdmdqc1RzcGFuMTIzNSI+cnVveWktZ2F0ZXdheTwvdHNwYW4+PC90c3Bhbj48L3RleHQ+PC9nPjwvZz48ZyB0cmFuc2Zvcm09InRyYW5zbGF0ZSgxMzguOTIzMDIxMDQxODA3NSwxMDAyLjMyMjg5MDU3NjMxMTIpIiBpZD0iU3ZnanNHMTIzNiI+PHBhdGggZmlsbD0iI2ZmY2NlNiIgZmlsbC1vcGFjaXR5PSIxIiBzdHJva2Utd2lkdGg9IjIiIHN0cm9rZT0icmdiYSgyNTUsMjU1LDI1NSwxKSIgZD0iTSAwIDBMIDE4Ny41MjY3NDg5NzExOTMyMyAwTCAxODcuNTI2NzQ4OTcxMTkzMjMgMzcuNTYxODQ1MTYxNDE4NDNMIDAgMzcuNTYxODQ1MTYxNDE4NDNaIiBpZD0iU3ZnanNQYXRoMTIzNyIvPjxnIGlkPSJTdmdqc0cxMjM4Ij48dGV4dCB0cmFuc2Zvcm09InJvdGF0ZSgwKSIgeT0iOC4xNTU5MjI1ODA3MDkyMTYiIG9wYWNpdHk9IjEiIGZvbnQtc3R5bGU9IiIgc2l6ZT0iMTNweCIgYWxpZ249Im1pZGRsZSIgZm9udC13ZWlnaHQ9IjQwMCIgZmlsbD0iIzMyMzIzMiIgd2lkdGg9IjE2OHB4IiBmb250LXNpemU9IjEzcHgiIHRleHQtYW5jaG9yPSJtaWRkbGUiIGZvbnQtZmFtaWx5PSLlvq7ova/pm4Xpu5EiIGlkPSJTdmdqc1RleHQxMjM5Ij48dHNwYW4geD0iOTQiIGR5PSIxNiIgaWQ9IlN2Z2pzVHNwYW4xMjQwIj48dHNwYW4gc3R5bGU9InRleHQtZGVjb3JhdGlvbjo7IiBpZD0iU3ZnanNUc3BhbjEyNDEiPnJ1b3lpLWF1dGg8L3RzcGFuPjwvdHNwYW4+PC90ZXh0PjwvZz48L2c+PGcgdHJhbnNmb3JtPSJ0cmFuc2xhdGUoMzk3LjQyOTkxMzU0NzUyMTIsOTc5LjUxMDQ0NjAxOTkxNzcpIiBpZD0iU3ZnanNHMTI0MiI+PHBhdGggb3BhY2l0eT0iMSIgZmlsbD0idXJsKCNTdmdqc1BhdHRlcm4xMjQ0KSIgc3Ryb2tlPSJub25lIiBkPSJNIDAgMEwgNDEwLjU3OTAxMjg0NDA4MDQ3IDBMIDQxMC41NzkwMTI4NDQwODA0NyAxMDJMIDAgMTAyWiIgaWQ9IlN2Z2pzUGF0aDEyNDMiLz48ZyBpZD0iU3ZnanNHMTI0NiI+PHRleHQgdHJhbnNmb3JtPSJyb3RhdGUoMCkiIHk9IjY3LjM3NSIgb3BhY2l0eT0iMSIgZm9udC1zdHlsZT0iIiBzaXplPSIxM3B4IiBhbGlnbj0iYm90dG9tIiBmb250LXdlaWdodD0iNDAwIiBmaWxsPSIjMzIzMjMyIiB3aWR0aD0iNDExcHgiIGZvbnQtc2l6ZT0iMTNweCIgdGV4dC1hbmNob3I9Im1pZGRsZSIgZm9udC1mYW1pbHk9IuW+rui9r+mbhem7kSIgaWQ9IlN2Z2pzVGV4dDEyNDciPjx0c3BhbiB4PSIyMDUuNSIgZHk9IjE2IiBpZD0iU3ZnanNUc3BhbjEyNDgiPjx0c3BhbiBzdHlsZT0idGV4dC1kZWNvcmF0aW9uOjsiIGlkPSJTdmdqc1RzcGFuMTI0OSI+6ZO+6Lev55uR5o6n5pyN5Yqh5Lit5b+DPC90c3Bhbj48L3RzcGFuPjx0c3BhbiB4PSIyMDUuNSIgZHk9IjE2IiBpZD0iU3ZnanNUc3BhbjEyNTAiPjx0c3BhbiBzdHlsZT0idGV4dC1kZWNvcmF0aW9uOjsiIGlkPSJTdmdqc1RzcGFuMTI1MSI+wqA8L3RzcGFuPjwvdHNwYW4+PC90ZXh0PjwvZz48L2c+PGcgdHJhbnNmb3JtPSJ0cmFuc2xhdGUoNDIwLjMyNjAwNDA4MjUwMDczLDEwMDcuMzIyODkwNTc2MzExMikiIGlkPSJTdmdqc0cxMjUyIj48cGF0aCBmaWxsPSIjY2NlNWZmIiBmaWxsLW9wYWNpdHk9IjEiIHN0cm9rZS13aWR0aD0iMiIgc3Ryb2tlPSJyZ2JhKDI1NSwyNTUsMjU1LDEpIiBkPSJNIDAgMEwgMzY0Ljc4NjgzMTc3NDEyMTMgMEwgMzY0Ljc4NjgzMTc3NDEyMTMgMzcuNTYxODQ1MTYxNDE4NDNMIDAgMzcuNTYxODQ1MTYxNDE4NDNaIiBpZD0iU3ZnanNQYXRoMTI1MyIvPjxnIGlkPSJTdmdqc0cxMjU0Ij48dGV4dCB0cmFuc2Zvcm09InJvdGF0ZSgwKSIgeT0iOC4xNTU5MjI1ODA3MDkyMTYiIG9wYWNpdHk9IjEiIGZvbnQtc3R5bGU9IiIgc2l6ZT0iMTNweCIgYWxpZ249Im1pZGRsZSIgZm9udC13ZWlnaHQ9IjQwMCIgZmlsbD0iIzMyMzIzMiIgd2lkdGg9IjM0NXB4IiBmb250LXNpemU9IjEzcHgiIHRleHQtYW5jaG9yPSJtaWRkbGUiIGZvbnQtZmFtaWx5PSLlvq7ova/pm4Xpu5EiIGlkPSJTdmdqc1RleHQxMjU1Ij48dHNwYW4geD0iMTgyLjUiIGR5PSIxNiIgaWQ9IlN2Z2pzVHNwYW4xMjU2Ij48dHNwYW4gc3R5bGU9InRleHQtZGVjb3JhdGlvbjo7IiBpZD0iU3ZnanNUc3BhbjEyNTciPlppcGtpbi9Ta3kgV2Fsa2luZzwvdHNwYW4+PC90c3Bhbj48L3RleHQ+PC9nPjwvZz48ZyB0cmFuc2Zvcm09InRyYW5zbGF0ZSgxNDY5LjU2ODA4Mjc3MDIwMTcsNjcyLjkzOTI0ODc1NDQyMykiIGlkPSJTdmdqc0cxMjU4Ij48cGF0aCBvcGFjaXR5PSIxIiBmaWxsPSJ1cmwoI1N2Z2pzUGF0dGVybjEyNjApIiBzdHJva2U9Im5vbmUiIGQ9Ik0gMCAwTCAyNjcuODg4ODg4ODg4ODg5NiAwTCAyNjcuODg4ODg4ODg4ODg5NiAxMDAuODEwMjExMjEwMzc0MDZMIDAgMTAwLjgxMDIxMTIxMDM3NDA2WiIgaWQ9IlN2Z2pzUGF0aDEyNTkiLz48ZyBpZD0iU3ZnanNHMTI2MiI+PHRleHQgdHJhbnNmb3JtPSJyb3RhdGUoMCkiIHk9IjY2LjE4NTIxMTIxMDM3NDA2IiBvcGFjaXR5PSIxIiBmb250LXN0eWxlPSIiIHNpemU9IjEzcHgiIGFsaWduPSJib3R0b20iIGZvbnQtd2VpZ2h0PSI0MDAiIGZpbGw9IiMzMjMyMzIiIHdpZHRoPSIyNjhweCIgZm9udC1zaXplPSIxM3B4IiB0ZXh0LWFuY2hvcj0ibWlkZGxlIiBmb250LWZhbWlseT0i5b6u6L2v6ZuF6buRIiBpZD0iU3ZnanNUZXh0MTI2MyI+PHRzcGFuIHg9IjEzNCIgZHk9IjE2IiBpZD0iU3ZnanNUc3BhbjEyNjQiPjx0c3BhbiBzdHlsZT0idGV4dC1kZWNvcmF0aW9uOjsiIGlkPSJTdmdqc1RzcGFuMTI2NSI+57yT5a2Y5pyN5YqhPC90c3Bhbj48L3RzcGFuPjx0c3BhbiB4PSIxMzQiIGR5PSIxNiIgaWQ9IlN2Z2pzVHNwYW4xMjY2Ij48dHNwYW4gc3R5bGU9InRleHQtZGVjb3JhdGlvbjo7IiBpZD0iU3ZnanNUc3BhbjEyNjciPsKgPC90c3Bhbj48L3RzcGFuPjwvdGV4dD48L2c+PC9nPjxnIHRyYW5zZm9ybT0idHJhbnNsYXRlKDE0OTcuMDE2MTI4MDM3NjkxNSw2OTMuMDAwODMyNDAzOTQ5NykiIGlkPSJTdmdqc0cxMjY4Ij48cGF0aCBmaWxsPSIjZmZmZjk5IiBmaWxsLW9wYWNpdHk9IjEiIHN0cm9rZS13aWR0aD0iMiIgc3Ryb2tlPSJyZ2JhKDI1NSwyNTUsMjU1LDEpIiBkPSJNIDAgMEwgMjEyLjk5Mjc5ODM1MzkxMDA4IDBMIDIxMi45OTI3OTgzNTM5MTAwOCA0MC43MTEyNjY4MTM4NTQzMUwgMCA0MC43MTEyNjY4MTM4NTQzMVoiIGlkPSJTdmdqc1BhdGgxMjY5Ii8+PGcgaWQ9IlN2Z2pzRzEyNzAiPjx0ZXh0IHRyYW5zZm9ybT0icm90YXRlKDApIiB5PSI5LjczMDYzMzQwNjkyNzE1NCIgb3BhY2l0eT0iMSIgZm9udC1zdHlsZT0iIiBzaXplPSIxM3B4IiBhbGlnbj0ibWlkZGxlIiBmb250LXdlaWdodD0iNDAwIiBmaWxsPSIjMzIzMjMyIiB3aWR0aD0iMTkzcHgiIGZvbnQtc2l6ZT0iMTNweCIgdGV4dC1hbmNob3I9Im1pZGRsZSIgZm9udC1mYW1pbHk9IuW+rui9r+mbhem7kSIgaWQ9IlN2Z2pzVGV4dDEyNzEiPjx0c3BhbiB4PSIxMDYuNSIgZHk9IjE2IiBpZD0iU3ZnanNUc3BhbjEyNzIiPjx0c3BhbiBzdHlsZT0idGV4dC1kZWNvcmF0aW9uOjsiIGlkPSJTdmdqc1RzcGFuMTI3MyI+UmVkaXM8L3RzcGFuPjwvdHNwYW4+PC90ZXh0PjwvZz48L2c+PGcgdHJhbnNmb3JtPSJ0cmFuc2xhdGUoMTQ2OS41NjgwODI3NzAyMDE3LDgwMi4zODYyNjI5OTU0Mzk5KSIgaWQ9IlN2Z2pzRzEyNzQiPjxwYXRoIG9wYWNpdHk9IjEiIGZpbGw9InVybCgjU3ZnanNQYXR0ZXJuMTI3NikiIHN0cm9rZT0ibm9uZSIgZD0iTSAwIDBMIDI2Ny44ODg4ODg4ODg4ODk2IDBMIDI2Ny44ODg4ODg4ODg4ODk2IDEwNC45MzY2Mjc1ODA4NzExMkwgMCAxMDQuOTM2NjI3NTgwODcxMTJaIiBpZD0iU3ZnanNQYXRoMTI3NSIvPjxnIGlkPSJTdmdqc0cxMjc4Ij48dGV4dCB0cmFuc2Zvcm09InJvdGF0ZSgwKSIgeT0iNzAuMzExNjI3NTgwODcxMTIiIG9wYWNpdHk9IjEiIGZvbnQtc3R5bGU9IiIgc2l6ZT0iMTNweCIgYWxpZ249ImJvdHRvbSIgZm9udC13ZWlnaHQ9IjQwMCIgZmlsbD0iIzMyMzIzMiIgd2lkdGg9IjI2OHB4IiBmb250LXNpemU9IjEzcHgiIHRleHQtYW5jaG9yPSJtaWRkbGUiIGZvbnQtZmFtaWx5PSLlvq7ova/pm4Xpu5EiIGlkPSJTdmdqc1RleHQxMjc5Ij48dHNwYW4geD0iMTM0IiBkeT0iMTYiIGlkPSJTdmdqc1RzcGFuMTI4MCI+PHRzcGFuIHN0eWxlPSJ0ZXh0LWRlY29yYXRpb246OyIgaWQ9IlN2Z2pzVHNwYW4xMjgxIj7mlbDmja7lupM8L3RzcGFuPjwvdHNwYW4+PHRzcGFuIHg9IjEzNCIgZHk9IjE2IiBpZD0iU3ZnanNUc3BhbjEyODIiPjx0c3BhbiBzdHlsZT0idGV4dC1kZWNvcmF0aW9uOjsiIGlkPSJTdmdqc1RzcGFuMTI4MyI+wqA8L3RzcGFuPjwvdHNwYW4+PC90ZXh0PjwvZz48L2c+PGcgdHJhbnNmb3JtPSJ0cmFuc2xhdGUoMTQ5Mi40NjQxNzMzMDUxODEyLDgyNi4yODg4NTg5MzIzMjU2KSIgaWQ9IlN2Z2pzRzEyODQiPjxwYXRoIGZpbGw9IiNmZmZmOTkiIGZpbGwtb3BhY2l0eT0iMSIgc3Ryb2tlLXdpZHRoPSIyIiBzdHJva2U9InJnYmEoMjU1LDI1NSwyNTUsMSkiIGQ9Ik0gMCAwTCAyMjIuMDk2NzA3ODE4OTMwNTUgMEwgMjIyLjA5NjcwNzgxODkzMDU1IDM3LjU2MTg0NTE2MTQxODQzTCAwIDM3LjU2MTg0NTE2MTQxODQzWiIgaWQ9IlN2Z2pzUGF0aDEyODUiLz48ZyBpZD0iU3ZnanNHMTI4NiI+PHRleHQgdHJhbnNmb3JtPSJyb3RhdGUoMCkiIHk9IjguMTU1OTIyNTgwNzA5MjE2IiBvcGFjaXR5PSIxIiBmb250LXN0eWxlPSIiIHNpemU9IjEzcHgiIGFsaWduPSJtaWRkbGUiIGZvbnQtd2VpZ2h0PSI0MDAiIGZpbGw9IiMzMjMyMzIiIHdpZHRoPSIyMDNweCIgZm9udC1zaXplPSIxM3B4IiB0ZXh0LWFuY2hvcj0ibWlkZGxlIiBmb250LWZhbWlseT0i5b6u6L2v6ZuF6buRIiBpZD0iU3ZnanNUZXh0MTI4NyI+PHRzcGFuIHg9IjExMS41IiBkeT0iMTYiIGlkPSJTdmdqc1RzcGFuMTI4OCI+PHRzcGFuIHN0eWxlPSJ0ZXh0LWRlY29yYXRpb246OyIgaWQ9IlN2Z2pzVHNwYW4xMjg5Ij5NeXNxbCA1LjcueDwvdHNwYW4+PC90c3Bhbj48L3RleHQ+PC9nPjwvZz48ZyB0cmFuc2Zvcm09InRyYW5zbGF0ZSgxMDE2LjUxNDY4ODcwNTI3NjEsNTU4LjQxOTE2NTE3NjM3NDIpIiBpZD0iU3ZnanNHMTI5MCI+PHBhdGggZmlsbD0iIzMzZmZmZiIgZmlsbC1vcGFjaXR5PSIxIiBzdHJva2Utd2lkdGg9IjIiIHN0cm9rZT0icmdiYSgyNTUsMjU1LDI1NSwxKSIgZD0iTSAwIDBMIDkzLjYwNTM0ODc5NzQzNTkxIDBMIDkzLjYwNTM0ODc5NzQzNTkxIDM5LjAxNjU1OTU3MTg4NTE4TCAwIDM5LjAxNjU1OTU3MTg4NTE4WiIgaWQ9IlN2Z2pzUGF0aDEyOTEiLz48ZyBpZD0iU3ZnanNHMTI5MiI+PHRleHQgdHJhbnNmb3JtPSJyb3RhdGUoMCkiIHk9IjguODgzMjc5Nzg1OTQyNTkxIiBvcGFjaXR5PSIxIiBmb250LXN0eWxlPSIiIHNpemU9IjEzcHgiIGFsaWduPSJtaWRkbGUiIGZvbnQtd2VpZ2h0PSI0MDAiIGZpbGw9IiMzMjMyMzIiIHdpZHRoPSI3NHB4IiBmb250LXNpemU9IjEzcHgiIHRleHQtYW5jaG9yPSJtaWRkbGUiIGZvbnQtZmFtaWx5PSLlvq7ova/pm4Xpu5EiIGlkPSJTdmdqc1RleHQxMjkzIj48dHNwYW4geD0iNDciIGR5PSIxNiIgaWQ9IlN2Z2pzVHNwYW4xMjk0Ij48dHNwYW4gc3R5bGU9InRleHQtZGVjb3JhdGlvbjo7IiBpZD0iU3ZnanNUc3BhbjEyOTUiPlNpZGVjYXI8L3RzcGFuPjwvdHNwYW4+PC90ZXh0PjwvZz48L2c+PGcgdHJhbnNmb3JtPSJ0cmFuc2xhdGUoMTAxNi41MTQ2ODg3MDUyNzYxLDYwNi41MzE0ODM3OTI1OTE1KSIgaWQ9IlN2Z2pzRzEyOTYiPjxwYXRoIGZpbGw9IiMzM2ZmZmYiIGZpbGwtb3BhY2l0eT0iMSIgc3Ryb2tlLXdpZHRoPSIyIiBzdHJva2U9InJnYmEoMjU1LDI1NSwyNTUsMSkiIGQ9Ik0gMCAwTCA5My42MDUzNDg3OTc0MzU5MSAwTCA5My42MDUzNDg3OTc0MzU5MSAzOS4wMTY1NTk1NzE4ODUxOEwgMCAzOS4wMTY1NTk1NzE4ODUxOFoiIGlkPSJTdmdqc1BhdGgxMjk3Ii8+PGcgaWQ9IlN2Z2pzRzEyOTgiPjx0ZXh0IHRyYW5zZm9ybT0icm90YXRlKDApIiB5PSI4Ljg4MzI3OTc4NTk0MjU5MSIgb3BhY2l0eT0iMSIgZm9udC1zdHlsZT0iIiBzaXplPSIxM3B4IiBhbGlnbj0ibWlkZGxlIiBmb250LXdlaWdodD0iNDAwIiBmaWxsPSIjMzIzMjMyIiB3aWR0aD0iNzRweCIgZm9udC1zaXplPSIxM3B4IiB0ZXh0LWFuY2hvcj0ibWlkZGxlIiBmb250LWZhbWlseT0i5b6u6L2v6ZuF6buRIiBpZD0iU3ZnanNUZXh0MTI5OSI+PHRzcGFuIHg9IjQ3IiBkeT0iMTYiIGlkPSJTdmdqc1RzcGFuMTMwMCI+PHRzcGFuIHN0eWxlPSJ0ZXh0LWRlY29yYXRpb246OyIgaWQ9IlN2Z2pzVHNwYW4xMzAxIj5TaWRlY2FyPC90c3Bhbj48L3RzcGFuPjwvdGV4dD48L2c+PC9nPjxnIHRyYW5zZm9ybT0idHJhbnNsYXRlKDEwMTYuNTE0Njg4NzA1Mjc2MSw2NTQuMzk2NjAwMTQ1OTg5NykiIGlkPSJTdmdqc0cxMzAyIj48cGF0aCBmaWxsPSIjMzNmZmZmIiBmaWxsLW9wYWNpdHk9IjEiIHN0cm9rZS13aWR0aD0iMiIgc3Ryb2tlPSJyZ2JhKDI1NSwyNTUsMjU1LDEpIiBkPSJNIDAgMEwgOTMuNjA1MzQ4Nzk3NDM1OTEgMEwgOTMuNjA1MzQ4Nzk3NDM1OTEgMzkuMDE2NTU5NTcxODg1MThMIDAgMzkuMDE2NTU5NTcxODg1MThaIiBpZD0iU3ZnanNQYXRoMTMwMyIvPjxnIGlkPSJTdmdqc0cxMzA0Ij48dGV4dCB0cmFuc2Zvcm09InJvdGF0ZSgwKSIgeT0iOC44ODMyNzk3ODU5NDI1OTEiIG9wYWNpdHk9IjEiIGZvbnQtc3R5bGU9IiIgc2l6ZT0iMTNweCIgYWxpZ249Im1pZGRsZSIgZm9udC13ZWlnaHQ9IjQwMCIgZmlsbD0iIzMyMzIzMiIgd2lkdGg9Ijc0cHgiIGZvbnQtc2l6ZT0iMTNweCIgdGV4dC1hbmNob3I9Im1pZGRsZSIgZm9udC1mYW1pbHk9IuW+rui9r+mbhem7kSIgaWQ9IlN2Z2pzVGV4dDEzMDUiPjx0c3BhbiB4PSI0NyIgZHk9IjE2IiBpZD0iU3ZnanNUc3BhbjEzMDYiPjx0c3BhbiBzdHlsZT0idGV4dC1kZWNvcmF0aW9uOjsiIGlkPSJTdmdqc1RzcGFuMTMwNyI+U2lkZWNhcjwvdHNwYW4+PC90c3Bhbj48L3RleHQ+PC9nPjwvZz48ZyBpZD0iU3ZnanNHMTMwOCI+PHBhdGggbWFya2VyLWVuZD0idXJsKCNTdmdqc01hcmtlcjEzMTIpIiBtYXJrZXItc3RhcnQ9InVybCgjU3ZnanNNYXJrZXIxMzEwKSIgZmlsbD0ibm9uZSIgc3Ryb2tlLXdpZHRoPSIyIiBzdHJva2U9IiMzMjMyMzIiIGQ9Ik04NDAuNjA4OTI2MzkxNjAxNiA2MjUuNTA4OTE4NzYyMjA3TDkxOC41MDg5MjYzOTE2MDE2IDYyNS41MDg5MTg3NjIyMDdMOTE4LjUwODkyNjM5MTYwMTYgNjI1LjUwODkxODc2MjIwN0w5OTYuNDA4OTI2MzkxNjAxNyA2MjUuNTA4OTE4NzYyMjA3IiBpZD0iU3ZnanNQYXRoMTMwOSIvPjxyZWN0IGZpbGw9IiNmZmZmZmYiIHk9IjYxOC4wMDg5MTg3NjIyMDciIHg9Ijg4Mi4wMDg5MjYzOTE2MDE2IiBoZWlnaHQ9IjE1IiB3aWR0aD0iNzMiIGlkPSJTdmdqc1JlY3QxMzE0Ii8+PHRleHQgdHJhbnNmb3JtPSJyb3RhdGUoMCkiIHk9IjYxNS4zODM5MTg3NjIyMDciIG9wYWNpdHk9IjEiIGZvbnQtc3R5bGU9IiIgc2l6ZT0iMTNweCIgYWxpZ249InRvcCIgZm9udC13ZWlnaHQ9IjQwMCIgZmlsbD0iIzMyMzIzMiIgd2lkdGg9IjczcHgiIGZvbnQtc2l6ZT0iMTNweCIgdGV4dC1hbmNob3I9Im1pZGRsZSIgZm9udC1mYW1pbHk9IuW+rui9r+mbhem7kSIgaWQ9IlN2Z2pzVGV4dDEzMTUiPjx0c3BhbiB4PSI5MTguNTA4OTI2MzkxNjAxNiIgZHk9IjE2IiBpZD0iU3ZnanNUc3BhbjEzMTYiPjx0c3BhbiBzdHlsZT0idGV4dC1kZWNvcmF0aW9uOjsiIGlkPSJTdmdqc1RzcGFuMTMxNyI+RmVpZ24gQ2xpZW50PC90c3Bhbj48L3RzcGFuPjwvdGV4dD48L2c+PGcgdHJhbnNmb3JtPSJ0cmFuc2xhdGUoNTg4Ljk1MzM3MDgzNjA0NTgsNTcxLjEyODUwNzk5MTMxNDUpIiBpZD0iU3ZnanNHMTMxOCI+PHBhdGggZmlsbD0iI2ZmOTk5OSIgZmlsbC1vcGFjaXR5PSIxIiBzdHJva2Utd2lkdGg9IjIiIHN0cm9rZT0icmdiYSgyNTUsMjU1LDI1NSwxKSIgZD0iTSAwIDBMIDEyMC43ODYxNDExODk4MzEyNiAwTCAxMjAuNzg2MTQxMTg5ODMxMjYgMzUuNDAyOTc1ODAxMjc3MDhMIDAgMzUuNDAyOTc1ODAxMjc3MDhaIiBpZD0iU3ZnanNQYXRoMTMxOSIvPjxnIGlkPSJTdmdqc0cxMzIwIj48dGV4dCB0cmFuc2Zvcm09InJvdGF0ZSgwKSIgeT0iNy4wNzY0ODc5MDA2Mzg1NCIgb3BhY2l0eT0iMSIgZm9udC1zdHlsZT0iIiBzaXplPSIxM3B4IiBhbGlnbj0ibWlkZGxlIiBmb250LXdlaWdodD0iNDAwIiBmaWxsPSIjMzIzMjMyIiB3aWR0aD0iMTAxcHgiIGZvbnQtc2l6ZT0iMTNweCIgdGV4dC1hbmNob3I9Im1pZGRsZSIgZm9udC1mYW1pbHk9IuW+rui9r+mbhem7kSIgaWQ9IlN2Z2pzVGV4dDEzMjEiPjx0c3BhbiB4PSI2MC41IiBkeT0iMTYiIGlkPSJTdmdqc1RzcGFuMTMyMiI+PHRzcGFuIHN0eWxlPSJ0ZXh0LWRlY29yYXRpb246OyIgaWQ9IlN2Z2pzVHNwYW4xMzIzIj5TZW50aW5lbC9SaWJib248L3RzcGFuPjwvdHNwYW4+PC90ZXh0PjwvZz48L2c+PGcgdHJhbnNmb3JtPSJ0cmFuc2xhdGUoODYyLjAwODkyNjM5MTYwMTYsNTcxLjEyODUwNzk5MTMxNDUpIiBpZD0iU3ZnanNHMTMyNCI+PHBhdGggZmlsbD0iI2ZmOTk5OSIgZmlsbC1vcGFjaXR5PSIxIiBzdHJva2Utd2lkdGg9IjIiIHN0cm9rZT0icmdiYSgyNTUsMjU1LDI1NSwxKSIgZD0iTSAwIDBMIDEyMC41MzIwOTgyNjcwMzA3MyAwTCAxMjAuNTMyMDk4MjY3MDMwNzMgMzUuNDAyOTc1ODAxMjc3MDhMIDAgMzUuNDAyOTc1ODAxMjc3MDhaIiBpZD0iU3ZnanNQYXRoMTMyNSIvPjxnIGlkPSJTdmdqc0cxMzI2Ij48dGV4dCB0cmFuc2Zvcm09InJvdGF0ZSgwKSIgeT0iNy4wNzY0ODc5MDA2Mzg1NCIgb3BhY2l0eT0iMSIgZm9udC1zdHlsZT0iIiBzaXplPSIxM3B4IiBhbGlnbj0ibWlkZGxlIiBmb250LXdlaWdodD0iNDAwIiBmaWxsPSIjMzIzMjMyIiB3aWR0aD0iMTAxcHgiIGZvbnQtc2l6ZT0iMTNweCIgdGV4dC1hbmNob3I9Im1pZGRsZSIgZm9udC1mYW1pbHk9IuW+rui9r+mbhem7kSIgaWQ9IlN2Z2pzVGV4dDEzMjciPjx0c3BhbiB4PSI2MC41IiBkeT0iMTYiIGlkPSJTdmdqc1RzcGFuMTMyOCI+PHRzcGFuIHN0eWxlPSJ0ZXh0LWRlY29yYXRpb246OyIgaWQ9IlN2Z2pzVHNwYW4xMzI5Ij5TZW50aW5lbC9SaWJib248L3RzcGFuPjwvdHNwYW4+PC90ZXh0PjwvZz48L2c+PGcgdHJhbnNmb3JtPSJ0cmFuc2xhdGUoMTIwNy4wMDg5MjYzOTE2MDE2LDU1OC40MTkxNjUxNzYzNzQyKSIgaWQ9IlN2Z2pzRzEzMzAiPjxwYXRoIGZpbGw9IiM5OWNjZmYiIGZpbGwtb3BhY2l0eT0iMSIgc3Ryb2tlLXdpZHRoPSIyIiBzdHJva2U9InJnYmEoMjU1LDI1NSwyNTUsMSkiIGQ9Ik0gMCAwTCA5My42MDUzNDg3OTc0MzU5MSAwTCA5My42MDUzNDg3OTc0MzU5MSAzOS4wMTY1NTk1NzE4ODUxOEwgMCAzOS4wMTY1NTk1NzE4ODUxOFoiIGlkPSJTdmdqc1BhdGgxMzMxIi8+PGcgaWQ9IlN2Z2pzRzEzMzIiPjx0ZXh0IHRyYW5zZm9ybT0icm90YXRlKDApIiB5PSI4Ljg4MzI3OTc4NTk0MjU5MSIgb3BhY2l0eT0iMSIgZm9udC1zdHlsZT0iIiBzaXplPSIxM3B4IiBhbGlnbj0ibWlkZGxlIiBmb250LXdlaWdodD0iNDAwIiBmaWxsPSIjMzIzMjMyIiB3aWR0aD0iNzRweCIgZm9udC1zaXplPSIxM3B4IiB0ZXh0LWFuY2hvcj0ibWlkZGxlIiBmb250LWZhbWlseT0i5b6u6L2v6ZuF6buRIiBpZD0iU3ZnanNUZXh0MTMzMyI+PHRzcGFuIHg9IjQ3IiBkeT0iMTYiIGlkPSJTdmdqc1RzcGFuMTMzNCI+PHRzcGFuIHN0eWxlPSJ0ZXh0LWRlY29yYXRpb246OyIgaWQ9IlN2Z2pzVHNwYW4xMzM1Ij7lvILmnoTmnI3liqE8L3RzcGFuPjwvdHNwYW4+PC90ZXh0PjwvZz48L2c+PGcgdHJhbnNmb3JtPSJ0cmFuc2xhdGUoMTIwNy4wMDg5MjYzOTE2MDE2LDYwNi41MzE0ODM3OTI1OTE1KSIgaWQ9IlN2Z2pzRzEzMzYiPjxwYXRoIGZpbGw9IiM5OWNjZmYiIGZpbGwtb3BhY2l0eT0iMSIgc3Ryb2tlLXdpZHRoPSIyIiBzdHJva2U9InJnYmEoMjU1LDI1NSwyNTUsMSkiIGQ9Ik0gMCAwTCA5My42MDUzNDg3OTc0MzU5MSAwTCA5My42MDUzNDg3OTc0MzU5MSAzOS4wMTY1NTk1NzE4ODUxOEwgMCAzOS4wMTY1NTk1NzE4ODUxOFoiIGlkPSJTdmdqc1BhdGgxMzM3Ii8+PGcgaWQ9IlN2Z2pzRzEzMzgiPjx0ZXh0IHRyYW5zZm9ybT0icm90YXRlKDApIiB5PSI4Ljg4MzI3OTc4NTk0MjU5MSIgb3BhY2l0eT0iMSIgZm9udC1zdHlsZT0iIiBzaXplPSIxM3B4IiBhbGlnbj0ibWlkZGxlIiBmb250LXdlaWdodD0iNDAwIiBmaWxsPSIjMzIzMjMyIiB3aWR0aD0iNzRweCIgZm9udC1zaXplPSIxM3B4IiB0ZXh0LWFuY2hvcj0ibWlkZGxlIiBmb250LWZhbWlseT0i5b6u6L2v6ZuF6buRIiBpZD0iU3ZnanNUZXh0MTMzOSI+PHRzcGFuIHg9IjQ3IiBkeT0iMTYiIGlkPSJTdmdqc1RzcGFuMTM0MCI+PHRzcGFuIHN0eWxlPSJ0ZXh0LWRlY29yYXRpb246OyIgaWQ9IlN2Z2pzVHNwYW4xMzQxIj7lvILmnoTmnI3liqE8L3RzcGFuPjwvdHNwYW4+PC90ZXh0PjwvZz48L2c+PGcgdHJhbnNmb3JtPSJ0cmFuc2xhdGUoMTIwNy4wMDg5MjYzOTE2MDE2LDY1NC4zOTY2MDAxNDU5ODk3KSIgaWQ9IlN2Z2pzRzEzNDIiPjxwYXRoIGZpbGw9IiM5OWNjZmYiIGZpbGwtb3BhY2l0eT0iMSIgc3Ryb2tlLXdpZHRoPSIyIiBzdHJva2U9InJnYmEoMjU1LDI1NSwyNTUsMSkiIGQ9Ik0gMCAwTCA5My42MDUzNDg3OTc0MzU5MSAwTCA5My42MDUzNDg3OTc0MzU5MSAzOS4wMTY1NTk1NzE4ODUxOEwgMCAzOS4wMTY1NTk1NzE4ODUxOFoiIGlkPSJTdmdqc1BhdGgxMzQzIi8+PGcgaWQ9IlN2Z2pzRzEzNDQiPjx0ZXh0IHRyYW5zZm9ybT0icm90YXRlKDApIiB5PSI4Ljg4MzI3OTc4NTk0MjU5MSIgb3BhY2l0eT0iMSIgZm9udC1zdHlsZT0iIiBzaXplPSIxM3B4IiBhbGlnbj0ibWlkZGxlIiBmb250LXdlaWdodD0iNDAwIiBmaWxsPSIjMzIzMjMyIiB3aWR0aD0iNzRweCIgZm9udC1zaXplPSIxM3B4IiB0ZXh0LWFuY2hvcj0ibWlkZGxlIiBmb250LWZhbWlseT0i5b6u6L2v6ZuF6buRIiBpZD0iU3ZnanNUZXh0MTM0NSI+PHRzcGFuIHg9IjQ3IiBkeT0iMTYiIGlkPSJTdmdqc1RzcGFuMTM0NiI+PHRzcGFuIHN0eWxlPSJ0ZXh0LWRlY29yYXRpb246OyIgaWQ9IlN2Z2pzVHNwYW4xMzQ3Ij7lvILmnoTmnI3liqE8L3RzcGFuPjwvdHNwYW4+PC90ZXh0PjwvZz48L2c+PGcgdHJhbnNmb3JtPSJ0cmFuc2xhdGUoNDE0LjI0NTU1MTkwNjAwNDk1LDI1LjAwNzM5MTUwNDQ5NjEyNykiIGlkPSJTdmdqc0cxMzQ4Ij48cGF0aCBvcGFjaXR5PSIxIiBmaWxsPSJ1cmwoI1N2Z2pzUGF0dGVybjEzNTApIiBzdHJva2U9Im5vbmUiIGQ9Ik0gMCAwTCAyNTkuNTI2NzQ4OTcxMTkzMjMgMEwgMjU5LjUyNjc0ODk3MTE5MzIzIDEwNi41MDE1MjcyNTc3MTA5TCAwIDEwNi41MDE1MjcyNTc3MTA5WiIgaWQ9IlN2Z2pzUGF0aDEzNDkiLz48ZyBpZD0iU3ZnanNHMTM1MiI+PHRleHQgdHJhbnNmb3JtPSJyb3RhdGUoMCkiIHk9IjcxLjg3NjUyNzI1NzcxMDkiIG9wYWNpdHk9IjEiIGZvbnQtc3R5bGU9IiIgc2l6ZT0iMTNweCIgYWxpZ249ImJvdHRvbSIgZm9udC13ZWlnaHQ9IjQwMCIgZmlsbD0iIzMyMzIzMiIgd2lkdGg9IjI2MHB4IiBmb250LXNpemU9IjEzcHgiIHRleHQtYW5jaG9yPSJtaWRkbGUiIGZvbnQtZmFtaWx5PSLlvq7ova/pm4Xpu5EiIGlkPSJTdmdqc1RleHQxMzUzIj48dHNwYW4geD0iMTMwIiBkeT0iMTYiIGlkPSJTdmdqc1RzcGFuMTM1NCI+PHRzcGFuIHN0eWxlPSJ0ZXh0LWRlY29yYXRpb246OyIgaWQ9IlN2Z2pzVHNwYW4xMzU1Ij7mnI3liqHnm5HmjqfkuK3lv4M8L3RzcGFuPjwvdHNwYW4+PHRzcGFuIHg9IjEzMCIgZHk9IjE2IiBpZD0iU3ZnanNUc3BhbjEzNTYiPjx0c3BhbiBzdHlsZT0idGV4dC1kZWNvcmF0aW9uOjsiIGlkPSJTdmdqc1RzcGFuMTM1NyI+wqA8L3RzcGFuPjwvdHNwYW4+PC90ZXh0PjwvZz48L2c+PGcgdHJhbnNmb3JtPSJ0cmFuc2xhdGUoNDUwLjI0NTU1MTkwNjAwNDk1LDQ5LjI4NjY5NjUzOTk4NDI5KSIgaWQ9IlN2Z2pzRzEzNTgiPjxwYXRoIGZpbGw9IiNmZjk5Y2MiIGZpbGwtb3BhY2l0eT0iMSIgc3Ryb2tlLXdpZHRoPSIyIiBzdHJva2U9InJnYmEoMjU1LDI1NSwyNTUsMSkiIGQ9Ik0gMCAwTCAxODcuNTI2NzQ4OTcxMTkzMjMgMEwgMTg3LjUyNjc0ODk3MTE5MzIzIDM3LjU2MTg0NTE2MTQxODQzTCAwIDM3LjU2MTg0NTE2MTQxODQzWiIgaWQ9IlN2Z2pzUGF0aDEzNTkiLz48ZyBpZD0iU3ZnanNHMTM2MCI+PHRleHQgdHJhbnNmb3JtPSJyb3RhdGUoMCkiIHk9IjguMTU1OTIyNTgwNzA5MjE2IiBvcGFjaXR5PSIxIiBmb250LXN0eWxlPSIiIHNpemU9IjEzcHgiIGFsaWduPSJtaWRkbGUiIGZvbnQtd2VpZ2h0PSI0MDAiIGZpbGw9IiMzMjMyMzIiIHdpZHRoPSIxNjhweCIgZm9udC1zaXplPSIxM3B4IiB0ZXh0LWFuY2hvcj0ibWlkZGxlIiBmb250LWZhbWlseT0i5b6u6L2v6ZuF6buRIiBpZD0iU3ZnanNUZXh0MTM2MSI+PHRzcGFuIHg9Ijk0IiBkeT0iMTYiIGlkPSJTdmdqc1RzcGFuMTM2MiI+PHRzcGFuIHN0eWxlPSJ0ZXh0LWRlY29yYXRpb246OyIgaWQ9IlN2Z2pzVHNwYW4xMzYzIj5TcHJpbmdCb290QWRtaW4gU2VydmVyPC90c3Bhbj48L3RzcGFuPjwvdGV4dD48L2c+PC9nPjxnIGlkPSJTdmdqc0cxMzY0Ij48cGF0aCBtYXJrZXItZW5kPSJ1cmwoI1N2Z2pzTWFya2VyMTM2NikiIGZpbGw9Im5vbmUiIHN0cm9rZS13aWR0aD0iMiIgc3Ryb2tlPSIjMzIzMjMyIiBkPSJNNTQ0LjAwODkyNjM5MTYwMTYgMjQxLjM0MDg1ODkxOTk1NThMNTQ0LjAwODkyNjM5MTYwMTYgMTg2LjQyNDg4ODg0MTA4MTM4TDU0NC4wMDg5MjYzOTE2MDE2IDE4Ni40MjQ4ODg4NDEwODEzOEw1NDQuMDA4OTI2MzkxNjAxNiAxMzQuMTA4OTE4NzYyMjA3MDMiIGlkPSJTdmdqc1BhdGgxMzY1Ii8+PHJlY3QgZmlsbD0iI2ZmZmZmZiIgeT0iMTgwLjIyNDg4ODg0MTA4MTQiIHg9IjUwNS4wMDg5MjYzOTE2MDE1NiIgaGVpZ2h0PSIxNSIgd2lkdGg9Ijc4IiBpZD0iU3ZnanNSZWN0MTM2OCIvPjx0ZXh0IHRyYW5zZm9ybT0icm90YXRlKDApIiB5PSIxNzcuNTk5ODg4ODQxMDgxNCIgb3BhY2l0eT0iMSIgZm9udC1zdHlsZT0iIiBzaXplPSIxM3B4IiBhbGlnbj0idG9wIiBmb250LXdlaWdodD0iNDAwIiBmaWxsPSIjMzIzMjMyIiB3aWR0aD0iNzhweCIgZm9udC1zaXplPSIxM3B4IiB0ZXh0LWFuY2hvcj0ibWlkZGxlIiBmb250LWZhbWlseT0i5b6u6L2v6ZuF6buRIiBpZD0iU3ZnanNUZXh0MTM2OSI+PHRzcGFuIHg9IjU0NC4wMDg5MjYzOTE2MDE2IiBkeT0iMTYiIGlkPSJTdmdqc1RzcGFuMTM3MCI+PHRzcGFuIHN0eWxlPSJ0ZXh0LWRlY29yYXRpb246OyIgaWQ9IlN2Z2pzVHNwYW4xMzcxIj7ojrflj5bmnI3liqHliJfooag8L3RzcGFuPjwvdHNwYW4+PC90ZXh0PjwvZz48ZyB0cmFuc2Zvcm09InRyYW5zbGF0ZSg4NTIuMzI5OTE0MDQ1OTIxMiw5NzguMDQyMTMyMjI5NDgyMSkiIGlkPSJTdmdqc0cxMzcyIj48cGF0aCBvcGFjaXR5PSIxIiBmaWxsPSJ1cmwoI1N2Z2pzUGF0dGVybjEzNzQpIiBzdHJva2U9Im5vbmUiIGQ9Ik0gMCAwTCAyNjcuODg4ODg4ODg4ODg5NiAwTCAyNjcuODg4ODg4ODg4ODg5NiAxMDQuOTM2NjI3NTgwODcxMTJMIDAgMTA0LjkzNjYyNzU4MDg3MTEyWiIgaWQ9IlN2Z2pzUGF0aDEzNzMiLz48ZyBpZD0iU3ZnanNHMTM3NiI+PHRleHQgdHJhbnNmb3JtPSJyb3RhdGUoMCkiIHk9IjcwLjMxMTYyNzU4MDg3MTEyIiBvcGFjaXR5PSIxIiBmb250LXN0eWxlPSIiIHNpemU9IjEzcHgiIGFsaWduPSJib3R0b20iIGZvbnQtd2VpZ2h0PSI0MDAiIGZpbGw9IiMzMjMyMzIiIHdpZHRoPSIyNjhweCIgZm9udC1zaXplPSIxM3B4IiB0ZXh0LWFuY2hvcj0ibWlkZGxlIiBmb250LWZhbWlseT0i5b6u6L2v6ZuF6buRIiBpZD0iU3ZnanNUZXh0MTM3NyI+PHRzcGFuIHg9IjEzNCIgZHk9IjE2IiBpZD0iU3ZnanNUc3BhbjEzNzgiPjx0c3BhbiBzdHlsZT0idGV4dC1kZWNvcmF0aW9uOjsiIGlkPSJTdmdqc1RzcGFuMTM3OSI+5pel5b+X6IGa5ZCI57O757ufPC90c3Bhbj48L3RzcGFuPjx0c3BhbiB4PSIxMzQiIGR5PSIxNiIgaWQ9IlN2Z2pzVHNwYW4xMzgwIj48dHNwYW4gc3R5bGU9InRleHQtZGVjb3JhdGlvbjo7IiBpZD0iU3ZnanNUc3BhbjEzODEiPsKgPC90c3Bhbj48L3RzcGFuPjwvdGV4dD48L2c+PC9nPjxnIHRyYW5zZm9ybT0idHJhbnNsYXRlKDg3MS4yMjYwMDQ1ODA5MDA3LDEwMDEuMDQyMTMyMjI5NDgyMSkiIGlkPSJTdmdqc0cxMzgyIj48cGF0aCBmaWxsPSIjZmZiMzY2IiBmaWxsLW9wYWNpdHk9IjEiIHN0cm9rZS13aWR0aD0iMiIgc3Ryb2tlPSJyZ2JhKDI1NSwyNTUsMjU1LDEpIiBkPSJNIDAgMEwgMjIyLjA5NjcwNzgxODkzMDU1IDBMIDIyMi4wOTY3MDc4MTg5MzA1NSAzNy41NjE4NDUxNjE0MTg0M0wgMCAzNy41NjE4NDUxNjE0MTg0M1oiIGlkPSJTdmdqc1BhdGgxMzgzIi8+PGcgaWQ9IlN2Z2pzRzEzODQiPjx0ZXh0IHRyYW5zZm9ybT0icm90YXRlKDApIiB5PSI4LjE1NTkyMjU4MDcwOTIxNiIgb3BhY2l0eT0iMSIgZm9udC1zdHlsZT0iIiBzaXplPSIxM3B4IiBhbGlnbj0ibWlkZGxlIiBmb250LXdlaWdodD0iNDAwIiBmaWxsPSIjMzIzMjMyIiB3aWR0aD0iMjAzcHgiIGZvbnQtc2l6ZT0iMTNweCIgdGV4dC1hbmNob3I9Im1pZGRsZSIgZm9udC1mYW1pbHk9IuW+rui9r+mbhem7kSIgaWQ9IlN2Z2pzVGV4dDEzODUiPjx0c3BhbiB4PSIxMTEuNSIgZHk9IjE2IiBpZD0iU3ZnanNUc3BhbjEzODYiPjx0c3BhbiBzdHlsZT0idGV4dC1kZWNvcmF0aW9uOjsiIGlkPSJTdmdqc1RzcGFuMTM4NyI+RUxLPC90c3Bhbj48L3RzcGFuPjwvdGV4dD48L2c+PC9nPjxnIGlkPSJTdmdqc0cxMzg4Ij48cGF0aCBtYXJrZXItZW5kPSJ1cmwoI1N2Z2pzTWFya2VyMTM5MCkiIGZpbGw9Im5vbmUiIHN0cm9rZS13aWR0aD0iMiIgc3Ryb2tlPSIjMzIzMjMyIiBkPSJNMjMwLjI0NTU1MTkwNjAwNDk1IDUzNy45NDQwMTkwODUzNjcxTDIzMC4yNDU1NTE5MDYwMDQ5NSAzMzMuNDI0ODg4ODQxMDgxNEw0MDUuNTIwMDM3NTAyNzEyNCAzMzMuNDI0ODg4ODQxMDgxNCIgaWQ9IlN2Z2pzUGF0aDEzODkiLz48cmVjdCBmaWxsPSIjZmZmZmZmIiB5PSIzNDAuNTQ3MjExMTY0ODcwNTMiIHg9IjIxNy4yNDU1NTE5MDYwMDQ5NSIgaGVpZ2h0PSIxNSIgd2lkdGg9IjI2IiBpZD0iU3ZnanNSZWN0MTM5MiIvPjx0ZXh0IHRyYW5zZm9ybT0icm90YXRlKDApIiB5PSIzMzcuOTIyMjExMTY0ODcwNTMiIG9wYWNpdHk9IjEiIGZvbnQtc3R5bGU9IiIgc2l6ZT0iMTNweCIgYWxpZ249InRvcCIgZm9udC13ZWlnaHQ9IjQwMCIgZmlsbD0iIzMyMzIzMiIgd2lkdGg9IjI2cHgiIGZvbnQtc2l6ZT0iMTNweCIgdGV4dC1hbmNob3I9Im1pZGRsZSIgZm9udC1mYW1pbHk9IuW+rui9r+mbhem7kSIgaWQ9IlN2Z2pzVGV4dDEzOTMiPjx0c3BhbiB4PSIyMzAuMjQ1NTUxOTA2MDA0OTUiIGR5PSIxNiIgaWQ9IlN2Z2pzVHNwYW4xMzk0Ij48dHNwYW4gc3R5bGU9InRleHQtZGVjb3JhdGlvbjo7IiBpZD0iU3ZnanNUc3BhbjEzOTUiPuazqOWGjDwvdHNwYW4+PC90c3Bhbj48L3RleHQ+PC9nPjxnIGlkPSJTdmdqc0cxMzk2Ij48cGF0aCBtYXJrZXItZW5kPSJ1cmwoI1N2Z2pzTWFya2VyMTM5OCkiIGZpbGw9Im5vbmUiIHN0cm9rZS13aWR0aD0iMiIgc3Ryb2tlPSIjMzIzMjMyIiBkPSJNNzk0LjAwODkyNjM5MTYwMTYgNTIyLjUwODkxODc2MjIwN0w3OTQuMDA4OTI2MzkxNjAxNiAzNzcuNTA4OTE4NzYyMjA3MDNMNjgxLjYwODkyNjM5MTYwMTYgMzc3LjUwODkxODc2MjIwNzAzIiBpZD0iU3ZnanNQYXRoMTM5NyIvPjxyZWN0IGZpbGw9IiNmZmZmZmYiIHk9IjM4Ni4zMDg5MTg3NjIyMDcwNCIgeD0iNzgxLjAwODkyNjM5MTYwMTYiIGhlaWdodD0iMTUiIHdpZHRoPSIyNiIgaWQ9IlN2Z2pzUmVjdDE0MDAiLz48dGV4dCB0cmFuc2Zvcm09InJvdGF0ZSgwKSIgeT0iMzgzLjY4MzkxODc2MjIwNzA0IiBvcGFjaXR5PSIxIiBmb250LXN0eWxlPSIiIHNpemU9IjEzcHgiIGFsaWduPSJ0b3AiIGZvbnQtd2VpZ2h0PSI0MDAiIGZpbGw9IiMzMjMyMzIiIHdpZHRoPSIyNnB4IiBmb250LXNpemU9IjEzcHgiIHRleHQtYW5jaG9yPSJtaWRkbGUiIGZvbnQtZmFtaWx5PSLlvq7ova/pm4Xpu5EiIGlkPSJTdmdqc1RleHQxNDAxIj48dHNwYW4geD0iNzk0LjAwODkyNjM5MTYwMTYiIGR5PSIxNiIgaWQ9IlN2Z2pzVHNwYW4xNDAyIj48dHNwYW4gc3R5bGU9InRleHQtZGVjb3JhdGlvbjo7IiBpZD0iU3ZnanNUc3BhbjE0MDMiPuazqOWGjDwvdHNwYW4+PC90c3Bhbj48L3RleHQ+PC9nPjxnIGlkPSJTdmdqc0cxNDA0Ij48cGF0aCBtYXJrZXItZW5kPSJ1cmwoI1N2Z2pzTWFya2VyMTQwNikiIGZpbGw9Im5vbmUiIHN0cm9rZS13aWR0aD0iMiIgc3Ryb2tlPSIjMzIzMjMyIiBkPSJNMjc1LjAwODkyNjM5MTYwMTU2IDc0OC41MDg5MTg3NjIyMDdMMjc1LjAwODkyNjM5MTYwMTU2IDg2NC4zNTQxNDE2MjQ3ODA4TDQ4Mi4wMDg5MjYzOTE2MDE1NiA4NjQuMzU0MTQxNjI0NzgwOEw0ODIuMDA4OTI2MzkxNjAxNTYgOTc3LjA5OTM2NDQ4NzM1NDciIGlkPSJTdmdqc1BhdGgxNDA1Ii8+PHJlY3QgZmlsbD0iI2ZmZmZmZiIgeT0iODU2Ljg1NDE0MTYyNDc4MDgiIHg9IjM1MC45NTg5MjYzOTE2MDE2IiBoZWlnaHQ9IjE1IiB3aWR0aD0iNTIiIGlkPSJTdmdqc1JlY3QxNDA4Ii8+PHRleHQgdHJhbnNmb3JtPSJyb3RhdGUoMCkiIHk9Ijg1NC4yMjkxNDE2MjQ3ODA4IiBvcGFjaXR5PSIxIiBmb250LXN0eWxlPSIiIHNpemU9IjEzcHgiIGFsaWduPSJ0b3AiIGZvbnQtd2VpZ2h0PSI0MDAiIGZpbGw9IiMzMjMyMzIiIHdpZHRoPSI1MnB4IiBmb250LXNpemU9IjEzcHgiIHRleHQtYW5jaG9yPSJtaWRkbGUiIGZvbnQtZmFtaWx5PSLlvq7ova/pm4Xpu5EiIGlkPSJTdmdqc1RleHQxNDA5Ij48dHNwYW4geD0iMzc2Ljk1ODkyNjM5MTYwMTYiIGR5PSIxNiIgaWQ9IlN2Z2pzVHNwYW4xNDEwIj48dHNwYW4gc3R5bGU9InRleHQtZGVjb3JhdGlvbjo7IiBpZD0iU3ZnanNUc3BhbjE0MTEiPuaUtumbhuaVsOaNrjwvdHNwYW4+PC90c3Bhbj48L3RleHQ+PC9nPjxnIGlkPSJTdmdqc0cxNDEyIj48cGF0aCBtYXJrZXItZW5kPSJ1cmwoI1N2Z2pzTWFya2VyMTQxNCkiIGZpbGw9Im5vbmUiIHN0cm9rZS13aWR0aD0iMiIgc3Ryb2tlPSIjMzIzMjMyIiBkPSJNODcxLjAwODkyNjM5MTYwMTYgNzYzLjUwODkxODc2MjIwN0w4NzEuMDA4OTI2MzkxNjAxNiA4NzEuMzU0MTQxNjI0NzgwOEw3MTIuMDA4OTI2MzkxNjAxNiA4NzEuMzU0MTQxNjI0NzgwOEw3MTIuMDA4OTI2MzkxNjAxNiA5NzcuMDk5MzY0NDg3MzU0NyIgaWQ9IlN2Z2pzUGF0aDE0MTMiLz48cmVjdCBmaWxsPSIjZmZmZmZmIiB5PSI4NjMuODU0MTQxNjI0NzgwOCIgeD0iNzY2LjU1ODkyNjM5MTYwMTUiIGhlaWdodD0iMTUiIHdpZHRoPSI1MiIgaWQ9IlN2Z2pzUmVjdDE0MTYiLz48dGV4dCB0cmFuc2Zvcm09InJvdGF0ZSgwKSIgeT0iODYxLjIyOTE0MTYyNDc4MDgiIG9wYWNpdHk9IjEiIGZvbnQtc3R5bGU9IiIgc2l6ZT0iMTNweCIgYWxpZ249InRvcCIgZm9udC13ZWlnaHQ9IjQwMCIgZmlsbD0iIzMyMzIzMiIgd2lkdGg9IjUycHgiIGZvbnQtc2l6ZT0iMTNweCIgdGV4dC1hbmNob3I9Im1pZGRsZSIgZm9udC1mYW1pbHk9IuW+rui9r+mbhem7kSIgaWQ9IlN2Z2pzVGV4dDE0MTciPjx0c3BhbiB4PSI3OTIuNTU4OTI2MzkxNjAxNSIgZHk9IjE2IiBpZD0iU3ZnanNUc3BhbjE0MTgiPjx0c3BhbiBzdHlsZT0idGV4dC1kZWNvcmF0aW9uOjsiIGlkPSJTdmdqc1RzcGFuMTQxOSI+5pS26ZuG5pWw5o2uPC90c3Bhbj48L3RzcGFuPjwvdGV4dD48L2c+PGcgaWQ9IlN2Z2pzRzE0MjAiPjxwYXRoIG1hcmtlci1lbmQ9InVybCgjU3ZnanNNYXJrZXIxNDIyKSIgZmlsbD0ibm9uZSIgc3Ryb2tlLXdpZHRoPSIyIiBzdHJva2U9IiMzMjMyMzIiIGQ9Ik02MDMuMDA4OTI2MzkxNjAxNiA3NjMuNTA4OTE4NzYyMjA3TDYwMy4wMDg5MjYzOTE2MDE2IDg3MS4wMDk2ODIzOTEwNjI0TDYwMi43MTk0MTk5Njk1NjE0IDg3MS4wMDk2ODIzOTEwNjI0TDYwMi43MTk0MTk5Njk1NjE0IDk3Ni40MTA0NDYwMTk5MTc4IiBpZD0iU3ZnanNQYXRoMTQyMSIvPjxyZWN0IGZpbGw9IiNmZmZmZmYiIHk9Ijg2Mi42MDQ0MzU2MDIwODI1IiB4PSI1NzcuMDA4OTI2MzkxNjAxNiIgaGVpZ2h0PSIxNSIgd2lkdGg9IjUyIiBpZD0iU3ZnanNSZWN0MTQyNCIvPjx0ZXh0IHRyYW5zZm9ybT0icm90YXRlKDApIiB5PSI4NTkuOTc5NDM1NjAyMDgyNSIgb3BhY2l0eT0iMSIgZm9udC1zdHlsZT0iIiBzaXplPSIxM3B4IiBhbGlnbj0idG9wIiBmb250LXdlaWdodD0iNDAwIiBmaWxsPSIjMzIzMjMyIiB3aWR0aD0iNTJweCIgZm9udC1zaXplPSIxM3B4IiB0ZXh0LWFuY2hvcj0ibWlkZGxlIiBmb250LWZhbWlseT0i5b6u6L2v6ZuF6buRIiBpZD0iU3ZnanNUZXh0MTQyNSI+PHRzcGFuIHg9IjYwMy4wMDg5MjYzOTE2MDE2IiBkeT0iMTYiIGlkPSJTdmdqc1RzcGFuMTQyNiI+PHRzcGFuIHN0eWxlPSJ0ZXh0LWRlY29yYXRpb246OyIgaWQ9IlN2Z2pzVHNwYW4xNDI3Ij7mlLbpm4bmlbDmja48L3RzcGFuPjwvdHNwYW4+PC90ZXh0PjwvZz48ZyBpZD0iU3ZnanNHMTQyOCI+PHBhdGggbWFya2VyLWVuZD0idXJsKCNTdmdqc01hcmtlcjE0MzApIiBmaWxsPSJub25lIiBzdHJva2Utd2lkdGg9IjIiIHN0cm9rZT0iIzMyMzIzMiIgZD0iTTY1LjAwODkyNjM5MTYwMTU2IDM0OS4zNjc5NDAxMDk5NDE4Nkw2NS4wMDg5MjYzOTE2MDE1NiA2NDMuMjg0NTA4NDM0MTM3OEwxNTcuODUzMzcwODM2MDQ1NjggNjQzLjI4NDUwODQzNDEzNzgiIGlkPSJTdmdqc1BhdGgxNDI5Ii8+PHJlY3QgZmlsbD0iI2ZmZmZmZiIgeT0iNTM1LjI0ODQ0NjQ5NDI2MTkiIHg9IjQxLjUwODkyNjM5MTYwMTU2IiBoZWlnaHQ9IjE1IiB3aWR0aD0iNDciIGlkPSJTdmdqc1JlY3QxNDMyIi8+PHRleHQgdHJhbnNmb3JtPSJyb3RhdGUoMCkiIHk9IjUzMi42MjM0NDY0OTQyNjE5IiBvcGFjaXR5PSIxIiBmb250LXN0eWxlPSIiIHNpemU9IjEzcHgiIGFsaWduPSJ0b3AiIGZvbnQtd2VpZ2h0PSI0MDAiIGZpbGw9IiMzMjMyMzIiIHdpZHRoPSI0N3B4IiBmb250LXNpemU9IjEzcHgiIHRleHQtYW5jaG9yPSJtaWRkbGUiIGZvbnQtZmFtaWx5PSLlvq7ova/pm4Xpu5EiIGlkPSJTdmdqc1RleHQxNDMzIj48dHNwYW4geD0iNjUuMDA4OTI2MzkxNjAxNTYiIGR5PSIxNiIgaWQ9IlN2Z2pzVHNwYW4xNDM0Ij48dHNwYW4gc3R5bGU9InRleHQtZGVjb3JhdGlvbjo7IiBpZD0iU3ZnanNUc3BhbjE0MzUiPkFQSeiwg+eUqDwvdHNwYW4+PC90c3Bhbj48L3RleHQ+PC9nPjxnIGlkPSJTdmdqc0cxNDM2Ij48cGF0aCBtYXJrZXItZW5kPSJ1cmwoI1N2Z2pzTWFya2VyMTQ0MCkiIG1hcmtlci1zdGFydD0idXJsKCNTdmdqc01hcmtlcjE0MzgpIiBmaWxsPSJub25lIiBzdHJva2Utd2lkdGg9IjIiIHN0cm9rZT0iIzMyMzIzMiIgZD0iTTExMTMuNzIwMDM3NTAyNzExOSA1NzcuOTI3NDQ0OTYyMzE2OEwxMTU4LjU2NDQ4MTk0NzE1NjggNTc3LjkyNzQ0NDk2MjMxNjhMMTE1OC41NjQ0ODE5NDcxNTY4IDU3Ny45Mjc0NDQ5NjIzMTY4TDEyMDMuNDA4OTI2MzkxNjAxNyA1NzcuOTI3NDQ0OTYyMzE2OCIgaWQ9IlN2Z2pzUGF0aDE0MzciLz48cmVjdCBmaWxsPSIjZmZmZmZmIiB5PSI1NzAuNDI3NDQ0OTYyMzE2OCIgeD0iMTE0MS41NjQ0ODE5NDcxNTY4IiBoZWlnaHQ9IjE1IiB3aWR0aD0iMzQiIGlkPSJTdmdqc1JlY3QxNDQyIi8+PHRleHQgdHJhbnNmb3JtPSJyb3RhdGUoMCkiIHk9IjU2Ny44MDI0NDQ5NjIzMTY4IiBvcGFjaXR5PSIxIiBmb250LXN0eWxlPSIiIHNpemU9IjEzcHgiIGFsaWduPSJ0b3AiIGZvbnQtd2VpZ2h0PSI0MDAiIGZpbGw9IiMzMjMyMzIiIHdpZHRoPSIzNHB4IiBmb250LXNpemU9IjEzcHgiIHRleHQtYW5jaG9yPSJtaWRkbGUiIGZvbnQtZmFtaWx5PSLlvq7ova/pm4Xpu5EiIGlkPSJTdmdqc1RleHQxNDQzIj48dHNwYW4geD0iMTE1OC41NjQ0ODE5NDcxNTY4IiBkeT0iMTYiIGlkPSJTdmdqc1RzcGFuMTQ0NCI+PHRzcGFuIHN0eWxlPSJ0ZXh0LWRlY29yYXRpb246OyIgaWQ9IlN2Z2pzVHNwYW4xNDQ1Ij5Qcm94eTwvdHNwYW4+PC90c3Bhbj48L3RleHQ+PC9nPjxnIGlkPSJTdmdqc0cxNDQ2Ij48cGF0aCBtYXJrZXItZW5kPSJ1cmwoI1N2Z2pzTWFya2VyMTQ1MCkiIG1hcmtlci1zdGFydD0idXJsKCNTdmdqc01hcmtlcjE0NDgpIiBmaWxsPSJub25lIiBzdHJva2Utd2lkdGg9IjIiIHN0cm9rZT0iIzMyMzIzMiIgZD0iTTExMTMuNzIwMDM3NTAyNzExOSA2MjYuMDM5NzYzNTc4NTM0MUwxMTU4LjU2NDQ4MTk0NzE1NjggNjI2LjAzOTc2MzU3ODUzNDFMMTE1OC41NjQ0ODE5NDcxNTY4IDYyNi4wMzk3NjM1Nzg1MzQxTDEyMDMuNDA4OTI2MzkxNjAxNyA2MjYuMDM5NzYzNTc4NTM0MSIgaWQ9IlN2Z2pzUGF0aDE0NDciLz48cmVjdCBmaWxsPSIjZmZmZmZmIiB5PSI2MTguNTM5NzYzNTc4NTM0MSIgeD0iMTE0MS41NjQ0ODE5NDcxNTY4IiBoZWlnaHQ9IjE1IiB3aWR0aD0iMzQiIGlkPSJTdmdqc1JlY3QxNDUyIi8+PHRleHQgdHJhbnNmb3JtPSJyb3RhdGUoMCkiIHk9IjYxNS45MTQ3NjM1Nzg1MzQxIiBvcGFjaXR5PSIxIiBmb250LXN0eWxlPSIiIHNpemU9IjEzcHgiIGFsaWduPSJ0b3AiIGZvbnQtd2VpZ2h0PSI0MDAiIGZpbGw9IiMzMjMyMzIiIHdpZHRoPSIzNHB4IiBmb250LXNpemU9IjEzcHgiIHRleHQtYW5jaG9yPSJtaWRkbGUiIGZvbnQtZmFtaWx5PSLlvq7ova/pm4Xpu5EiIGlkPSJTdmdqc1RleHQxNDUzIj48dHNwYW4geD0iMTE1OC41NjQ0ODE5NDcxNTY4IiBkeT0iMTYiIGlkPSJTdmdqc1RzcGFuMTQ1NCI+PHRzcGFuIHN0eWxlPSJ0ZXh0LWRlY29yYXRpb246OyIgaWQ9IlN2Z2pzVHNwYW4xNDU1Ij5Qcm94eTwvdHNwYW4+PC90c3Bhbj48L3RleHQ+PC9nPjxnIGlkPSJTdmdqc0cxNDU2Ij48cGF0aCBtYXJrZXItZW5kPSJ1cmwoI1N2Z2pzTWFya2VyMTQ2MCkiIG1hcmtlci1zdGFydD0idXJsKCNTdmdqc01hcmtlcjE0NTgpIiBmaWxsPSJub25lIiBzdHJva2Utd2lkdGg9IjIiIHN0cm9rZT0iIzMyMzIzMiIgZD0iTTExMTMuNzIwMDM3NTAyNzExOSA2NzMuOTA0ODc5OTMxOTMyM0wxMTU4LjU2NDQ4MTk0NzE1NjggNjczLjkwNDg3OTkzMTkzMjNMMTE1OC41NjQ0ODE5NDcxNTY4IDY3My45MDQ4Nzk5MzE5MzIzTDEyMDMuNDA4OTI2MzkxNjAxNyA2NzMuOTA0ODc5OTMxOTMyMyIgaWQ9IlN2Z2pzUGF0aDE0NTciLz48cmVjdCBmaWxsPSIjZmZmZmZmIiB5PSI2NjYuNDA0ODc5OTMxOTMyMyIgeD0iMTE0MS41NjQ0ODE5NDcxNTY4IiBoZWlnaHQ9IjE1IiB3aWR0aD0iMzQiIGlkPSJTdmdqc1JlY3QxNDYyIi8+PHRleHQgdHJhbnNmb3JtPSJyb3RhdGUoMCkiIHk9IjY2My43Nzk4Nzk5MzE5MzIzIiBvcGFjaXR5PSIxIiBmb250LXN0eWxlPSIiIHNpemU9IjEzcHgiIGFsaWduPSJ0b3AiIGZvbnQtd2VpZ2h0PSI0MDAiIGZpbGw9IiMzMjMyMzIiIHdpZHRoPSIzNHB4IiBmb250LXNpemU9IjEzcHgiIHRleHQtYW5jaG9yPSJtaWRkbGUiIGZvbnQtZmFtaWx5PSLlvq7ova/pm4Xpu5EiIGlkPSJTdmdqc1RleHQxNDYzIj48dHNwYW4geD0iMTE1OC41NjQ0ODE5NDcxNTY4IiBkeT0iMTYiIGlkPSJTdmdqc1RzcGFuMTQ2NCI+PHRzcGFuIHN0eWxlPSJ0ZXh0LWRlY29yYXRpb246OyIgaWQ9IlN2Z2pzVHNwYW4xNDY1Ij5Qcm94eTwvdHNwYW4+PC90c3Bhbj48L3RleHQ+PC9nPjxnIHRyYW5zZm9ybT0idHJhbnNsYXRlKDI4MC43NTM3MjE3MDI4MzgyLDc3NC41MzUyMDUwMjE5Mjk2KSIgaWQ9IlN2Z2pzRzE0NjYiPjxwYXRoIGZpbGw9IiM5OWZmZmYiIGZpbGwtb3BhY2l0eT0iMSIgc3Ryb2tlLXdpZHRoPSIyIiBzdHJva2U9InJnYmEoMjU1LDI1NSwyNTUsMSkiIGQ9Ik0gMCAwTCAxMTAuNTcyMjgyMzc5NjYyNTEgMEwgMTEwLjU3MjI4MjM3OTY2MjUxIDM3LjI3NDcyNTI3NDcyNTI1NkwgMCAzNy4yNzQ3MjUyNzQ3MjUyNTZaIiBpZD0iU3ZnanNQYXRoMTQ2NyIvPjxnIGlkPSJTdmdqc0cxNDY4Ij48dGV4dCB0cmFuc2Zvcm09InJvdGF0ZSgwKSIgeT0iOC4wMTIzNjI2MzczNjI2MjgiIG9wYWNpdHk9IjEiIGZvbnQtc3R5bGU9IiIgc2l6ZT0iMTNweCIgYWxpZ249Im1pZGRsZSIgZm9udC13ZWlnaHQ9IjQwMCIgZmlsbD0iIzMyMzIzMiIgd2lkdGg9IjkxcHgiIGZvbnQtc2l6ZT0iMTNweCIgdGV4dC1hbmNob3I9Im1pZGRsZSIgZm9udC1mYW1pbHk9IuW+rui9r+mbhem7kSIgaWQ9IlN2Z2pzVGV4dDE0NjkiPjx0c3BhbiB4PSI1NS41IiBkeT0iMTYiIGlkPSJTdmdqc1RzcGFuMTQ3MCI+PHRzcGFuIHN0eWxlPSJ0ZXh0LWRlY29yYXRpb246OyIgaWQ9IlN2Z2pzVHNwYW4xNDcxIj5TbGV1dGg8L3RzcGFuPjwvdHNwYW4+PC90ZXh0PjwvZz48L2c+PGcgdHJhbnNmb3JtPSJ0cmFuc2xhdGUoNjYzLjAwODkyNjM5MTYwMTYsNzc0LjUzNTIwNTAyMTkyOTYpIiBpZD0iU3ZnanNHMTQ3MiI+PHBhdGggZmlsbD0iIzk5ZmZmZiIgZmlsbC1vcGFjaXR5PSIxIiBzdHJva2Utd2lkdGg9IjIiIHN0cm9rZT0icmdiYSgyNTUsMjU1LDI1NSwxKSIgZD0iTSAwIDBMIDExMC41NzIyODIzNzk2NjI1MSAwTCAxMTAuNTcyMjgyMzc5NjYyNTEgMzcuMjc0NzI1Mjc0NzI1MjU2TCAwIDM3LjI3NDcyNTI3NDcyNTI1NloiIGlkPSJTdmdqc1BhdGgxNDczIi8+PGcgaWQ9IlN2Z2pzRzE0NzQiPjx0ZXh0IHRyYW5zZm9ybT0icm90YXRlKDApIiB5PSI4LjAxMjM2MjYzNzM2MjYyOCIgb3BhY2l0eT0iMSIgZm9udC1zdHlsZT0iIiBzaXplPSIxM3B4IiBhbGlnbj0ibWlkZGxlIiBmb250LXdlaWdodD0iNDAwIiBmaWxsPSIjMzIzMjMyIiB3aWR0aD0iOTFweCIgZm9udC1zaXplPSIxM3B4IiB0ZXh0LWFuY2hvcj0ibWlkZGxlIiBmb250LWZhbWlseT0i5b6u6L2v6ZuF6buRIiBpZD0iU3ZnanNUZXh0MTQ3NSI+PHRzcGFuIHg9IjU1LjUiIGR5PSIxNiIgaWQ9IlN2Z2pzVHNwYW4xNDc2Ij48dHNwYW4gc3R5bGU9InRleHQtZGVjb3JhdGlvbjo7IiBpZD0iU3ZnanNUc3BhbjE0NzciPlNsZXV0aDwvdHNwYW4+PC90c3Bhbj48L3RleHQ+PC9nPjwvZz48ZyBpZD0iU3ZnanNHMTQ3OCI+PHBhdGggbWFya2VyLWVuZD0idXJsKCNTdmdqc01hcmtlcjE0ODApIiBmaWxsPSJub25lIiBzdHJva2Utd2lkdGg9IjIiIHN0cm9rZT0iIzMyMzIzMiIgZD0iTTk4NS4wMDg5MjYzOTE2MDE2IDc2My41MDg5MTg3NjIyMDdMOTg1LjAwODkyNjM5MTYwMTYgODcwLjI3NTUyNTQ5NTg0NDZMOTg2LjI3NDM1ODQ5MDM2NiA4NzAuMjc1NTI1NDk1ODQ0Nkw5ODYuMjc0MzU4NDkwMzY2IDk3NS40NDIxMzIyMjk0ODIyIiBpZD0iU3ZnanNQYXRoMTQ3OSIvPjxyZWN0IGZpbGw9IiNmZmZmZmYiIHk9Ijg2Mi42MDgyNDE1NDUyMjY5IiB4PSI5NTkuMDA4OTI2MzkxNjAxNiIgaGVpZ2h0PSIxNSIgd2lkdGg9IjUyIiBpZD0iU3ZnanNSZWN0MTQ4MiIvPjx0ZXh0IHRyYW5zZm9ybT0icm90YXRlKDApIiB5PSI4NTkuOTgzMjQxNTQ1MjI2OSIgb3BhY2l0eT0iMSIgZm9udC1zdHlsZT0iIiBzaXplPSIxM3B4IiBhbGlnbj0idG9wIiBmb250LXdlaWdodD0iNDAwIiBmaWxsPSIjMzIzMjMyIiB3aWR0aD0iNTJweCIgZm9udC1zaXplPSIxM3B4IiB0ZXh0LWFuY2hvcj0ibWlkZGxlIiBmb250LWZhbWlseT0i5b6u6L2v6ZuF6buRIiBpZD0iU3ZnanNUZXh0MTQ4MyI+PHRzcGFuIHg9Ijk4NS4wMDg5MjYzOTE2MDE2IiBkeT0iMTYiIGlkPSJTdmdqc1RzcGFuMTQ4NCI+PHRzcGFuIHN0eWxlPSJ0ZXh0LWRlY29yYXRpb246OyIgaWQ9IlN2Z2pzVHNwYW4xNDg1Ij7mlLbpm4bmlbDmja48L3RzcGFuPjwvdHNwYW4+PC90ZXh0PjwvZz48ZyB0cmFuc2Zvcm09InRyYW5zbGF0ZSgxMDEzLjAwODkyNjM5MTYwMTYsNzc0LjUzNTIwNTAyMTkyOTYpIiBpZD0iU3ZnanNHMTQ4NiI+PHBhdGggZmlsbD0iIzk5ZmZmZiIgZmlsbC1vcGFjaXR5PSIxIiBzdHJva2Utd2lkdGg9IjIiIHN0cm9rZT0icmdiYSgyNTUsMjU1LDI1NSwxKSIgZD0iTSAwIDBMIDExMC41NzIyODIzNzk2NjI1MSAwTCAxMTAuNTcyMjgyMzc5NjYyNTEgMzcuMjc0NzI1Mjc0NzI1MjU2TCAwIDM3LjI3NDcyNTI3NDcyNTI1NloiIGlkPSJTdmdqc1BhdGgxNDg3Ii8+PGcgaWQ9IlN2Z2pzRzE0ODgiPjx0ZXh0IHRyYW5zZm9ybT0icm90YXRlKDApIiB5PSI4LjAxMjM2MjYzNzM2MjYyOCIgb3BhY2l0eT0iMSIgZm9udC1zdHlsZT0iIiBzaXplPSIxM3B4IiBhbGlnbj0ibWlkZGxlIiBmb250LXdlaWdodD0iNDAwIiBmaWxsPSIjMzIzMjMyIiB3aWR0aD0iOTFweCIgZm9udC1zaXplPSIxM3B4IiB0ZXh0LWFuY2hvcj0ibWlkZGxlIiBmb250LWZhbWlseT0i5b6u6L2v6ZuF6buRIiBpZD0iU3ZnanNUZXh0MTQ4OSI+PHRzcGFuIHg9IjU1LjUiIGR5PSIxNiIgaWQ9IlN2Z2pzVHNwYW4xNDkwIj48dHNwYW4gc3R5bGU9InRleHQtZGVjb3JhdGlvbjo7IiBpZD0iU3ZnanNUc3BhbjE0OTEiPlNsZXV0aDwvdHNwYW4+PC90c3Bhbj48L3RleHQ+PC9nPjwvZz48ZyBpZD0iU3ZnanNHMTQ5MiI+PHBhdGggbWFya2VyLWVuZD0idXJsKCNTdmdqc01hcmtlcjE0OTQpIiBmaWxsPSJub25lIiBzdHJva2Utd2lkdGg9IjIiIHN0cm9rZT0iIzMyMzIzMiIgZD0iTTY3OS44OTc4MTUyODA0OTA3IDMzMy40MjQ4ODg4NDEwODE0TDg1OS4wMDg5MjYzOTE2MDE2IDMzMy40MjQ4ODg4NDEwODE0TDg1OS4wMDg5MjYzOTE2MDE2IDUyMy4xMzUwNTU5NzUyOTI5IiBpZD0iU3ZnanNQYXRoMTQ5MyIvPjxyZWN0IGZpbGw9IiNmZmZmZmYiIHk9IjMzMS4yMjQ0MTY4NTI2MzE3IiB4PSI3OTEuNTA4OTI2MzkxNjAxNiIgaGVpZ2h0PSIxNSIgd2lkdGg9IjEzNSIgaWQ9IlN2Z2pzUmVjdDE0OTYiLz48dGV4dCB0cmFuc2Zvcm09InJvdGF0ZSgwKSIgeT0iMzI4LjU5OTQxNjg1MjYzMTciIG9wYWNpdHk9IjEiIGZvbnQtc3R5bGU9IiIgc2l6ZT0iMTNweCIgYWxpZ249InRvcCIgZm9udC13ZWlnaHQ9IjQwMCIgZmlsbD0iIzMyMzIzMiIgd2lkdGg9IjEzNXB4IiBmb250LXNpemU9IjEzcHgiIHRleHQtYW5jaG9yPSJtaWRkbGUiIGZvbnQtZmFtaWx5PSLlvq7ova/pm4Xpu5EiIGlkPSJTdmdqc1RleHQxNDk3Ij48dHNwYW4geD0iODU5LjAwODkyNjM5MTYwMTYiIGR5PSIxNiIgaWQ9IlN2Z2pzVHNwYW4xNDk4Ij48dHNwYW4gc3R5bGU9InRleHQtZGVjb3JhdGlvbjo7IiBpZD0iU3ZnanNUc3BhbjE0OTkiPuacjeWKoeWPkeeOsC/ojrflj5bphY3nva7lhoXlrrk8L3RzcGFuPjwvdHNwYW4+PC90ZXh0PjwvZz48ZyB0cmFuc2Zvcm09InRyYW5zbGF0ZSgxNzQuOTU5NDEwNzE2MTczNyw4NTMuNTM1MjA1MDIxOTI5NikiIGlkPSJTdmdqc0cxNTAwIj48cGF0aCBmaWxsPSIjZmZmZmNjIiBmaWxsLW9wYWNpdHk9IjEiIHN0cm9rZS13aWR0aD0iMiIgc3Ryb2tlPSJyZ2JhKDI1NSwyNTUsMjU1LDEpIiBkPSJNIDAgMEwgMTEwLjU3MjI4MjM3OTY2MjUxIDBMIDExMC41NzIyODIzNzk2NjI1MSAzNy4yNzQ3MjUyNzQ3MjUyNTZMIDAgMzcuMjc0NzI1Mjc0NzI1MjU2WiIgaWQ9IlN2Z2pzUGF0aDE1MDEiLz48ZyBpZD0iU3ZnanNHMTUwMiI+PHRleHQgdHJhbnNmb3JtPSJyb3RhdGUoMCkiIHk9IjguMDEyMzYyNjM3MzYyNjI4IiBvcGFjaXR5PSIxIiBmb250LXN0eWxlPSIiIHNpemU9IjEzcHgiIGFsaWduPSJtaWRkbGUiIGZvbnQtd2VpZ2h0PSI0MDAiIGZpbGw9IiMzMjMyMzIiIHdpZHRoPSI5MXB4IiBmb250LXNpemU9IjEzcHgiIHRleHQtYW5jaG9yPSJtaWRkbGUiIGZvbnQtZmFtaWx5PSLlvq7ova/pm4Xpu5EiIGlkPSJTdmdqc1RleHQxNTAzIj48dHNwYW4geD0iNTUuNSIgZHk9IjE2IiBpZD0iU3ZnanNUc3BhbjE1MDQiPjx0c3BhbiBzdHlsZT0idGV4dC1kZWNvcmF0aW9uOjsiIGlkPSJTdmdqc1RzcGFuMTUwNSI+6K6k6K+B5pyN5YqhPC90c3Bhbj48L3RzcGFuPjwvdGV4dD48L2c+PC9nPjxnIGlkPSJTdmdqc0cxNTA2Ij48cGF0aCBtYXJrZXItZW5kPSJ1cmwoI1N2Z2pzTWFya2VyMTUwOCkiIGZpbGw9Im5vbmUiIHN0cm9rZS13aWR0aD0iMiIgc3Ryb2tlPSIjMzIzMjMyIiBkPSJNMjMwLjI0NTU1MTkwNjAwNDk1IDc0OC42MjQ5OTc3ODI5MDg1TDIzMC4yNDU1NTE5MDYwMDQ5NSA4MDEuMDgwMTAxNDAyNDE5MUwyMzAuMjQ1NTUxOTA2MDA0OTUgODAxLjA4MDEwMTQwMjQxOTFMMjMwLjI0NTU1MTkwNjAwNDk1IDg0OS45MzUyMDUwMjE5Mjk2IiBpZD0iU3ZnanNQYXRoMTUwNyIvPjwvZz48ZyBpZD0iU3ZnanNHMTUxMCI+PHBhdGggbWFya2VyLWVuZD0idXJsKCNTdmdqc01hcmtlcjE1MTIpIiBmaWxsPSJub25lIiBzdHJva2Utd2lkdGg9IjIiIHN0cm9rZT0iIzMyMzIzMiIgZD0iTTIzMC4yNDU1NTE5MDYwMDQ5NSA4OTEuODA5OTMwMjk2NjU0OUwyMzAuMjQ1NTUxOTA2MDA0OTUgOTM1LjA2NjQxMDQzNjQ4MjhMMjMwLjUwODkyNjM5MTYwMTU2IDkzNS4wNjY0MTA0MzY0ODI4TDIzMC41MDg5MjYzOTE2MDE1NiA5NzYuNzIyODkwNTc2MzEwOSIgaWQ9IlN2Z2pzUGF0aDE1MTEiLz48L2c+PGcgdHJhbnNmb3JtPSJ0cmFuc2xhdGUoMTQ2OS41NjgwODI3NzAyMDE3LDUzMC4yMDAyMzQ4MDk1NDM0KSIgaWQ9IlN2Z2pzRzE1MTQiPjxwYXRoIG9wYWNpdHk9IjEiIGZpbGw9InVybCgjU3ZnanNQYXR0ZXJuMTUxNikiIHN0cm9rZT0ibm9uZSIgZD0iTSAwIDBMIDI2Ny44ODg4ODg4ODg4ODk2IDBMIDI2Ny44ODg4ODg4ODg4ODk2IDEwMC44MTAyMTEyMTAzNzQwNkwgMCAxMDAuODEwMjExMjEwMzc0MDZaIiBpZD0iU3ZnanNQYXRoMTUxNSIvPjxnIGlkPSJTdmdqc0cxNTE4Ij48dGV4dCB0cmFuc2Zvcm09InJvdGF0ZSgwKSIgeT0iNjYuMTg1MjExMjEwMzc0MDYiIG9wYWNpdHk9IjEiIGZvbnQtc3R5bGU9IiIgc2l6ZT0iMTNweCIgYWxpZ249ImJvdHRvbSIgZm9udC13ZWlnaHQ9IjQwMCIgZmlsbD0iIzMyMzIzMiIgd2lkdGg9IjI2OHB4IiBmb250LXNpemU9IjEzcHgiIHRleHQtYW5jaG9yPSJtaWRkbGUiIGZvbnQtZmFtaWx5PSLlvq7ova/pm4Xpu5EiIGlkPSJTdmdqc1RleHQxNTE5Ij48dHNwYW4geD0iMTM0IiBkeT0iMTYiIGlkPSJTdmdqc1RzcGFuMTUyMCI+PHRzcGFuIHN0eWxlPSJ0ZXh0LWRlY29yYXRpb246OyIgaWQ9IlN2Z2pzVHNwYW4xNTIxIj7mlbDmja7mo4DntKLmnI3liqEv57yT5a2Y5pyN5YqhPC90c3Bhbj48L3RzcGFuPjx0c3BhbiB4PSIxMzQiIGR5PSIxNiIgaWQ9IlN2Z2pzVHNwYW4xNTIyIj48dHNwYW4gc3R5bGU9InRleHQtZGVjb3JhdGlvbjo7IiBpZD0iU3ZnanNUc3BhbjE1MjMiPsKgPC90c3Bhbj48L3RzcGFuPjwvdGV4dD48L2c+PC9nPjxnIHRyYW5zZm9ybT0idHJhbnNsYXRlKDE0OTcuMDE2MTI4MDM3NjkxNSw1NDUuMjQ5NzA3MDA3ODAzNCkiIGlkPSJTdmdqc0cxNTI0Ij48cGF0aCBmaWxsPSIjZmZmZjk5IiBmaWxsLW9wYWNpdHk9IjEiIHN0cm9rZS13aWR0aD0iMiIgc3Ryb2tlPSJyZ2JhKDI1NSwyNTUsMjU1LDEpIiBkPSJNIDAgMEwgMjEyLjk5Mjc5ODM1MzkxMDA4IDBMIDIxMi45OTI3OTgzNTM5MTAwOCA0MC43MTEyNjY4MTM4NTQzMUwgMCA0MC43MTEyNjY4MTM4NTQzMVoiIGlkPSJTdmdqc1BhdGgxNTI1Ii8+PGcgaWQ9IlN2Z2pzRzE1MjYiPjx0ZXh0IHRyYW5zZm9ybT0icm90YXRlKDApIiB5PSI5LjczMDYzMzQwNjkyNzE1NCIgb3BhY2l0eT0iMSIgZm9udC1zdHlsZT0iIiBzaXplPSIxM3B4IiBhbGlnbj0ibWlkZGxlIiBmb250LXdlaWdodD0iNDAwIiBmaWxsPSIjMzIzMjMyIiB3aWR0aD0iMTkzcHgiIGZvbnQtc2l6ZT0iMTNweCIgdGV4dC1hbmNob3I9Im1pZGRsZSIgZm9udC1mYW1pbHk9IuW+rui9r+mbhem7kSIgaWQ9IlN2Z2pzVGV4dDE1MjciPjx0c3BhbiB4PSIxMDYuNSIgZHk9IjE2IiBpZD0iU3ZnanNUc3BhbjE1MjgiPjx0c3BhbiBzdHlsZT0idGV4dC1kZWNvcmF0aW9uOjsiIGlkPSJTdmdqc1RzcGFuMTUyOSI+RWxhc3RpY1NlYXJjaDwvdHNwYW4+PC90c3Bhbj48L3RleHQ+PC9nPjwvZz48ZyB0cmFuc2Zvcm09InRyYW5zbGF0ZSgxNDY5LjU2ODA4Mjc3MDIwMTcsMzg5LjkyNDQ1MzAzNzgxNDU0KSIgaWQ9IlN2Z2pzRzE1MzAiPjxwYXRoIG9wYWNpdHk9IjEiIGZpbGw9InVybCgjU3ZnanNQYXR0ZXJuMTUzMikiIHN0cm9rZT0ibm9uZSIgZD0iTSAwIDBMIDI2Ny44ODg4ODg4ODg4ODk2IDBMIDI2Ny44ODg4ODg4ODg4ODk2IDEwMC44MTAyMTEyMTAzNzQwNkwgMCAxMDAuODEwMjExMjEwMzc0MDZaIiBpZD0iU3ZnanNQYXRoMTUzMSIvPjxnIGlkPSJTdmdqc0cxNTM0Ij48dGV4dCB0cmFuc2Zvcm09InJvdGF0ZSgwKSIgeT0iNjYuMTg1MjExMjEwMzc0MDYiIG9wYWNpdHk9IjEiIGZvbnQtc3R5bGU9IiIgc2l6ZT0iMTNweCIgYWxpZ249ImJvdHRvbSIgZm9udC13ZWlnaHQ9IjQwMCIgZmlsbD0iIzMyMzIzMiIgd2lkdGg9IjI2OHB4IiBmb250LXNpemU9IjEzcHgiIHRleHQtYW5jaG9yPSJtaWRkbGUiIGZvbnQtZmFtaWx5PSLlvq7ova/pm4Xpu5EiIGlkPSJTdmdqc1RleHQxNTM1Ij48dHNwYW4geD0iMTM0IiBkeT0iMTYiIGlkPSJTdmdqc1RzcGFuMTUzNiI+PHRzcGFuIHN0eWxlPSJ0ZXh0LWRlY29yYXRpb246OyIgaWQ9IlN2Z2pzVHNwYW4xNTM3Ij7liIbluIPlvI/otYTmupDlrZjlgqjmnI3liqE8L3RzcGFuPjwvdHNwYW4+PHRzcGFuIHg9IjEzNCIgZHk9IjE2IiBpZD0iU3ZnanNUc3BhbjE1MzgiPjx0c3BhbiBzdHlsZT0idGV4dC1kZWNvcmF0aW9uOjsiIGlkPSJTdmdqc1RzcGFuMTUzOSI+wqA8L3RzcGFuPjwvdHNwYW4+PC90ZXh0PjwvZz48L2c+PGcgdHJhbnNmb3JtPSJ0cmFuc2xhdGUoMTQ5Ny4wMTYxMjgwMzc2OTE1LDQwNy44MzM5ODAwNjY4MDYxKSIgaWQ9IlN2Z2pzRzE1NDAiPjxwYXRoIGZpbGw9IiNmZmZmOTkiIGZpbGwtb3BhY2l0eT0iMSIgc3Ryb2tlLXdpZHRoPSIyIiBzdHJva2U9InJnYmEoMjU1LDI1NSwyNTUsMSkiIGQ9Ik0gMCAwTCAyMTIuOTkyNzk4MzUzOTEwMDggMEwgMjEyLjk5Mjc5ODM1MzkxMDA4IDQwLjcxMTI2NjgxMzg1NDMxTCAwIDQwLjcxMTI2NjgxMzg1NDMxWiIgaWQ9IlN2Z2pzUGF0aDE1NDEiLz48ZyBpZD0iU3ZnanNHMTU0MiI+PHRleHQgdHJhbnNmb3JtPSJyb3RhdGUoMCkiIHk9IjkuNzMwNjMzNDA2OTI3MTU0IiBvcGFjaXR5PSIxIiBmb250LXN0eWxlPSIiIHNpemU9IjEzcHgiIGFsaWduPSJtaWRkbGUiIGZvbnQtd2VpZ2h0PSI0MDAiIGZpbGw9IiMzMjMyMzIiIHdpZHRoPSIxOTNweCIgZm9udC1zaXplPSIxM3B4IiB0ZXh0LWFuY2hvcj0ibWlkZGxlIiBmb250LWZhbWlseT0i5b6u6L2v6ZuF6buRIiBpZD0iU3ZnanNUZXh0MTU0MyI+PHRzcGFuIHg9IjEwNi41IiBkeT0iMTYiIGlkPSJTdmdqc1RzcGFuMTU0NCI+PHRzcGFuIHN0eWxlPSJ0ZXh0LWRlY29yYXRpb246OyIgaWQ9IlN2Z2pzVHNwYW4xNTQ1Ij5NaW5pby9GYXN0REZTPC90c3Bhbj48L3RzcGFuPjwvdGV4dD48L2c+PC9nPjxnIGlkPSJTdmdqc0cxNTQ2Ij48cGF0aCBtYXJrZXItZW5kPSJ1cmwoI1N2Z2pzTWFya2VyMTU0OCkiIGZpbGw9Im5vbmUiIHN0cm9rZS13aWR0aD0iMiIgc3Ryb2tlPSIjMzIzMjMyIiBkPSJNMTM0OS4wMDg5MjQwMDE0MjI0IDY0My4yODY2OTQ4MzU5MDM2TDE0NDUuNDE2MTM0MjUyMTU3NSA2NDMuNDk3NDgwMjM0NDQyNyIgaWQ9IlN2Z2pzUGF0aDE1NDciLz48L2c+PGcgaWQ9IlN2Z2pzRzE1NTAiPjxwYXRoIG1hcmtlci1lbmQ9InVybCgjU3ZnanNNYXJrZXIxNTUyKSIgZmlsbD0ibm9uZSIgc3Ryb2tlLXdpZHRoPSIyIiBzdHJva2U9IiMzMjMyMzIiIGQ9Ik0xMjAyLjAwODkyNjM5MTYwMTYgMzg5LjUwODkxODc2MjIwNzAzTDEyMDMuOTU1MjAxMDMyMDk3IDUxOS45MDkzMTk2NzUzOTk0IiBpZD0iU3ZnanNQYXRoMTU1MSIvPjxyZWN0IGZpbGw9IiNmZmZmZmYiIHk9IjQ0Ny4yMDkxMTkyMTg4MDMyIiB4PSIxMTc2Ljk4MjA2MzcxMTg0OTIiIGhlaWdodD0iMTUiIHdpZHRoPSI1MiIgaWQ9IlN2Z2pzUmVjdDE1NTQiLz48dGV4dCB0cmFuc2Zvcm09InJvdGF0ZSgwKSIgeT0iNDQ0LjU4NDExOTIxODgwMzIiIG9wYWNpdHk9IjEiIGZvbnQtc3R5bGU9IiIgc2l6ZT0iMTNweCIgYWxpZ249InRvcCIgZm9udC13ZWlnaHQ9IjQwMCIgZmlsbD0iIzMyMzIzMiIgd2lkdGg9IjUycHgiIGZvbnQtc2l6ZT0iMTNweCIgdGV4dC1hbmNob3I9Im1pZGRsZSIgZm9udC1mYW1pbHk9IuW+rui9r+mbhem7kSIgaWQ9IlN2Z2pzVGV4dDE1NTUiPjx0c3BhbiB4PSIxMjAyLjk4MjA2MzcxMTg0OTIiIGR5PSIxNiIgaWQ9IlN2Z2pzVHNwYW4xNTU2Ij48dHNwYW4gc3R5bGU9InRleHQtZGVjb3JhdGlvbjo7IiBpZD0iU3ZnanNUc3BhbjE1NTciPuS7u+WKoeiwg+W6pjwvdHNwYW4+PC90c3Bhbj48L3RleHQ+PC9nPjxnIGlkPSJTdmdqc0cxNTU4Ij48cGF0aCBtYXJrZXItZW5kPSJ1cmwoI1N2Z2pzTWFya2VyMTU2MCkiIGZpbGw9Im5vbmUiIHN0cm9rZS13aWR0aD0iMiIgc3Ryb2tlPSIjMzIzMjMyIiBkPSJNMTA3Ni4wMDE0NjM5MTI4MzA2IDUyMi41MDg5NDY2MDY4ODk0TDEwNzUuMDA4OTI2MzkxNjAxNiAzODkuNTA4OTE4NzYyMjA3MDMiIGlkPSJTdmdqc1BhdGgxNTU5Ii8+PHJlY3QgZmlsbD0iI2ZmZmZmZiIgeT0iNDQ4LjUwODkzMjY4NDU0ODIiIHg9IjEwNjIuNTA1MTk1MTUyMjE2IiBoZWlnaHQ9IjE1IiB3aWR0aD0iMjYiIGlkPSJTdmdqc1JlY3QxNTYyIi8+PHRleHQgdHJhbnNmb3JtPSJyb3RhdGUoMCkiIHk9IjQ0NS44ODM5MzI2ODQ1NDgyIiBvcGFjaXR5PSIxIiBmb250LXN0eWxlPSIiIHNpemU9IjEzcHgiIGFsaWduPSJ0b3AiIGZvbnQtd2VpZ2h0PSI0MDAiIGZpbGw9IiMzMjMyMzIiIHdpZHRoPSIyNnB4IiBmb250LXNpemU9IjEzcHgiIHRleHQtYW5jaG9yPSJtaWRkbGUiIGZvbnQtZmFtaWx5PSLlvq7ova/pm4Xpu5EiIGlkPSJTdmdqc1RleHQxNTYzIj48dHNwYW4geD0iMTA3NS41MDUxOTUxNTIyMTYiIGR5PSIxNiIgaWQ9IlN2Z2pzVHNwYW4xNTY0Ij48dHNwYW4gc3R5bGU9InRleHQtZGVjb3JhdGlvbjo7IiBpZD0iU3ZnanNUc3BhbjE1NjUiPuazqOWGjDwvdHNwYW4+PC90c3Bhbj48L3RleHQ+PC9nPjxnIHRyYW5zZm9ybT0idHJhbnNsYXRlKDEwMDcuNTY4MDgyNzcwMjAxNywyODkuMTE0MjQxODI3NDQwNSkiIGlkPSJTdmdqc0cxNTY2Ij48cGF0aCBvcGFjaXR5PSIxIiBmaWxsPSJ1cmwoI1N2Z2pzUGF0dGVybjE1NjgpIiBzdHJva2U9Im5vbmUiIGQ9Ik0gMCAwTCAyNjcuODg4ODg4ODg4ODg5NiAwTCAyNjcuODg4ODg4ODg4ODg5NiAxMDAuODEwMjExMjEwMzc0MDZMIDAgMTAwLjgxMDIxMTIxMDM3NDA2WiIgaWQ9IlN2Z2pzUGF0aDE1NjciLz48ZyBpZD0iU3ZnanNHMTU3MCI+PHRleHQgdHJhbnNmb3JtPSJyb3RhdGUoMCkiIHk9IjY2LjE4NTIxMTIxMDM3NDA2IiBvcGFjaXR5PSIxIiBmb250LXN0eWxlPSIiIHNpemU9IjEzcHgiIGFsaWduPSJib3R0b20iIGZvbnQtd2VpZ2h0PSI0MDAiIGZpbGw9IiMzMjMyMzIiIHdpZHRoPSIyNjhweCIgZm9udC1zaXplPSIxM3B4IiB0ZXh0LWFuY2hvcj0ibWlkZGxlIiBmb250LWZhbWlseT0i5b6u6L2v6ZuF6buRIiBpZD0iU3ZnanNUZXh0MTU3MSI+PHRzcGFuIHg9IjEzNCIgZHk9IjE2IiBpZD0iU3ZnanNUc3BhbjE1NzIiPjx0c3BhbiBzdHlsZT0idGV4dC1kZWNvcmF0aW9uOjsiIGlkPSJTdmdqc1RzcGFuMTU3MyI+5YiG5biD5byP5Lu75Yqh6LCD5bqm57O757ufPC90c3Bhbj48L3RzcGFuPjx0c3BhbiB4PSIxMzQiIGR5PSIxNiIgaWQ9IlN2Z2pzVHNwYW4xNTc0Ij48dHNwYW4gc3R5bGU9InRleHQtZGVjb3JhdGlvbjo7IiBpZD0iU3ZnanNUc3BhbjE1NzUiPsKgPC90c3Bhbj48L3RzcGFuPjwvdGV4dD48L2c+PC9nPjxnIHRyYW5zZm9ybT0idHJhbnNsYXRlKDEwMzUuMDE2MTI4MDM3NjkxNSwzMDYuMDAwODMyNDAzOTQ5NzQpIiBpZD0iU3ZnanNHMTU3NiI+PHBhdGggZmlsbD0iI2ZmY2NmZiIgZmlsbC1vcGFjaXR5PSIxIiBzdHJva2Utd2lkdGg9IjIiIHN0cm9rZT0icmdiYSgyNTUsMjU1LDI1NSwxKSIgZD0iTSAwIDBMIDIxMi45OTI3OTgzNTM5MTAwOCAwTCAyMTIuOTkyNzk4MzUzOTEwMDggNDAuNzExMjY2ODEzODU0MzFMIDAgNDAuNzExMjY2ODEzODU0MzFaIiBpZD0iU3ZnanNQYXRoMTU3NyIvPjxnIGlkPSJTdmdqc0cxNTc4Ij48dGV4dCB0cmFuc2Zvcm09InJvdGF0ZSgwKSIgeT0iOS43MzA2MzM0MDY5MjcxNTQiIG9wYWNpdHk9IjEiIGZvbnQtc3R5bGU9IiIgc2l6ZT0iMTNweCIgYWxpZ249Im1pZGRsZSIgZm9udC13ZWlnaHQ9IjQwMCIgZmlsbD0iIzMyMzIzMiIgd2lkdGg9IjE5M3B4IiBmb250LXNpemU9IjEzcHgiIHRleHQtYW5jaG9yPSJtaWRkbGUiIGZvbnQtZmFtaWx5PSLlvq7ova/pm4Xpu5EiIGlkPSJTdmdqc1RleHQxNTc5Ij48dHNwYW4geD0iMTA2LjUiIGR5PSIxNiIgaWQ9IlN2Z2pzVHNwYW4xNTgwIj48dHNwYW4gc3R5bGU9InRleHQtZGVjb3JhdGlvbjo7IiBpZD0iU3ZnanNUc3BhbjE1ODEiPnF1YXJ0eiAyLjMuMjwvdHNwYW4+PC90c3Bhbj48L3RleHQ+PC9nPjwvZz48ZyB0cmFuc2Zvcm09InRyYW5zbGF0ZSgxMTY3LjU2ODA4Mjc3MDIwMTcsOTc4LjA0MjEzMjIyOTQ4MjEpIiBpZD0iU3ZnanNHMTU4MiI+PHBhdGggb3BhY2l0eT0iMSIgZmlsbD0idXJsKCNTdmdqc1BhdHRlcm4xNTg0KSIgc3Ryb2tlPSJub25lIiBkPSJNIDAgMEwgMjY3Ljg4ODg4ODg4ODg4OTYgMEwgMjY3Ljg4ODg4ODg4ODg4OTYgMTA0LjkzNjYyNzU4MDg3MTEyTCAwIDEwNC45MzY2Mjc1ODA4NzExMloiIGlkPSJTdmdqc1BhdGgxNTgzIi8+PGcgaWQ9IlN2Z2pzRzE1ODYiPjx0ZXh0IHRyYW5zZm9ybT0icm90YXRlKDApIiB5PSI3MC4zMTE2Mjc1ODA4NzExMiIgb3BhY2l0eT0iMSIgZm9udC1zdHlsZT0iIiBzaXplPSIxM3B4IiBhbGlnbj0iYm90dG9tIiBmb250LXdlaWdodD0iNDAwIiBmaWxsPSIjMzIzMjMyIiB3aWR0aD0iMjY4cHgiIGZvbnQtc2l6ZT0iMTNweCIgdGV4dC1hbmNob3I9Im1pZGRsZSIgZm9udC1mYW1pbHk9IuW+rui9r+mbhem7kSIgaWQ9IlN2Z2pzVGV4dDE1ODciPjx0c3BhbiB4PSIxMzQiIGR5PSIxNiIgaWQ9IlN2Z2pzVHNwYW4xNTg4Ij48dHNwYW4gc3R5bGU9InRleHQtZGVjb3JhdGlvbjo7IiBpZD0iU3ZnanNUc3BhbjE1ODkiPua2iOaBr+mYn+WIl+S4remXtOS7tjwvdHNwYW4+PC90c3Bhbj48dHNwYW4geD0iMTM0IiBkeT0iMTYiIGlkPSJTdmdqc1RzcGFuMTU5MCI+PHRzcGFuIHN0eWxlPSJ0ZXh0LWRlY29yYXRpb246OyIgaWQ9IlN2Z2pzVHNwYW4xNTkxIj7CoDwvdHNwYW4+PC90c3Bhbj48L3RleHQ+PC9nPjwvZz48ZyB0cmFuc2Zvcm09InRyYW5zbGF0ZSgxMTkwLjQ2NDE3MzMwNTE4MTIsMTAwNy4zMjI4OTA1NzYzMTEyKSIgaWQ9IlN2Z2pzRzE1OTIiPjxwYXRoIGZpbGw9IiNmZjk5Y2MiIGZpbGwtb3BhY2l0eT0iMSIgc3Ryb2tlLXdpZHRoPSIyIiBzdHJva2U9InJnYmEoMjU1LDI1NSwyNTUsMSkiIGQ9Ik0gMCAwTCAyMjIuMDk2NzA3ODE4OTMwNTUgMEwgMjIyLjA5NjcwNzgxODkzMDU1IDM3LjU2MTg0NTE2MTQxODQzTCAwIDM3LjU2MTg0NTE2MTQxODQzWiIgaWQ9IlN2Z2pzUGF0aDE1OTMiLz48ZyBpZD0iU3ZnanNHMTU5NCI+PHRleHQgdHJhbnNmb3JtPSJyb3RhdGUoMCkiIHk9IjguMTU1OTIyNTgwNzA5MjE2IiBvcGFjaXR5PSIxIiBmb250LXN0eWxlPSIiIHNpemU9IjEzcHgiIGFsaWduPSJtaWRkbGUiIGZvbnQtd2VpZ2h0PSI0MDAiIGZpbGw9IiMzMjMyMzIiIHdpZHRoPSIyMDNweCIgZm9udC1zaXplPSIxM3B4IiB0ZXh0LWFuY2hvcj0ibWlkZGxlIiBmb250LWZhbWlseT0i5b6u6L2v6ZuF6buRIiBpZD0iU3ZnanNUZXh0MTU5NSI+PHRzcGFuIHg9IjExMS41IiBkeT0iMTYiIGlkPSJTdmdqc1RzcGFuMTU5NiI+PHRzcGFuIHN0eWxlPSJ0ZXh0LWRlY29yYXRpb246OyIgaWQ9IlN2Z2pzVHNwYW4xNTk3Ij5SYWJiaXRNUeOAgUtBRktBLi4uPC90c3Bhbj48L3RzcGFuPjwvdGV4dD48L2c+PC9nPjxnIGlkPSJTdmdqc0cxNTk4Ij48cGF0aCBtYXJrZXItZW5kPSJ1cmwoI1N2Z2pzTWFya2VyMTYwMCkiIGZpbGw9Im5vbmUiIHN0cm9rZS13aWR0aD0iMiIgc3Ryb2tlPSIjMzIzMjMyIiBkPSJNMTI5OC4wMDg5MjYzOTE2MDE2IDc2MC41MDg5MTg3NjIyMDdMMTI5OC4wMDg5MjYzOTE2MDE2IDg2OC4yNzU1MjU0OTU4NDQ2TDEyOTkuMjc0MzU4NDkwMzY2IDg2OC4yNzU1MjU0OTU4NDQ2TDEyOTkuMjc0MzU4NDkwMzY2IDk3Ni4wNDIxMzIyMjk0ODIxIiBpZD0iU3ZnanNQYXRoMTU5OSIvPjxyZWN0IGZpbGw9IiNmZmZmZmYiIHk9Ijg1My4yNzU1MjU0OTU4NDQ2IiB4PSIxMjMzLjY0MTY0MjQ0MDk4MzgiIGhlaWdodD0iMzAiIHdpZHRoPSIxMzAiIGlkPSJTdmdqc1JlY3QxNjAyIi8+PHRleHQgdHJhbnNmb3JtPSJyb3RhdGUoMCkiIHk9Ijg1MC42NTA1MjU0OTU4NDQ2IiBvcGFjaXR5PSIxIiBmb250LXN0eWxlPSIiIHNpemU9IjEzcHgiIGFsaWduPSJ0b3AiIGZvbnQtd2VpZ2h0PSI0MDAiIGZpbGw9IiMzMjMyMzIiIHdpZHRoPSIxMzBweCIgZm9udC1zaXplPSIxM3B4IiB0ZXh0LWFuY2hvcj0ibWlkZGxlIiBmb250LWZhbWlseT0i5b6u6L2v6ZuF6buRIiBpZD0iU3ZnanNUZXh0MTYwMyI+PHRzcGFuIHg9IjEyOTguNjQxNjQyNDQwOTgzOCIgZHk9IjE2IiBpZD0iU3ZnanNUc3BhbjE2MDQiPjx0c3BhbiBzdHlsZT0idGV4dC1kZWNvcmF0aW9uOjsiIGlkPSJTdmdqc1RzcGFuMTYwNSI+U3ByaW5nIENsb3VkIFN0cmVhbTwvdHNwYW4+PC90c3Bhbj48dHNwYW4geD0iMTI5OC42NDE2NDI0NDA5ODM4IiBkeT0iMTYiIGlkPSJTdmdqc1RzcGFuMTYwNiI+PHRzcGFuIHN0eWxlPSJ0ZXh0LWRlY29yYXRpb246OyIgaWQ9IlN2Z2pzVHNwYW4xNjA3Ij7mtojmga/pmJ/liJfov57mjqXnu4Tku7Y8L3RzcGFuPjwvdHNwYW4+PC90ZXh0PjwvZz48ZyB0cmFuc2Zvcm09InRyYW5zbGF0ZSgyNTMuMDA4OTI2MzkxNjAxNTYsNDM1LjUwODkxODc2MjIwNzAzKSIgaWQ9IlN2Z2pzRzE2MDgiPjxwYXRoIGZpbGw9Im5vbmUiIHN0cm9rZT0ibm9uZSIgZD0iTSAwIDBMIDI1MCAwTCAyNTAgNzZMIDAgNzZaIiBpZD0iU3ZnanNQYXRoMTYwOSIvPjxnIGlkPSJTdmdqc0cxNjEwIj48dGV4dCB0cmFuc2Zvcm09InJvdGF0ZSgwKSIgeT0iMTAuODc1IiBvcGFjaXR5PSIxIiBmb250LXN0eWxlPSIiIHNpemU9IjEzcHgiIGFsaWduPSJtaWRkbGUiIGZvbnQtd2VpZ2h0PSI3MDAiIGZpbGw9IiMzMjMyMzIiIHdpZHRoPSIyNTBweCIgZm9udC1zaXplPSIxM3B4IiB0ZXh0LWFuY2hvcj0ibWlkZGxlIiBmb250LWZhbWlseT0i5b6u6L2v6ZuF6buRIiBpZD0iU3ZnanNUZXh0MTYxMSI+PHRzcGFuIHg9IjEyNSIgZHk9IjE2IiBpZD0iU3ZnanNUc3BhbjE2MTIiPjx0c3BhbiBzdHlsZT0idGV4dC1kZWNvcmF0aW9uOjsiIGlkPSJTdmdqc1RzcGFuMTYxMyI+U3ByaW5nIENsb3Vk54mI5pys77yaSG94dG9uLlNSOTwvdHNwYW4+PC90c3Bhbj48dHNwYW4geD0iMTI1IiBkeT0iMTYiIGlkPSJTdmdqc1RzcGFuMTYxNCI+PHRzcGFuIHN0eWxlPSJ0ZXh0LWRlY29yYXRpb246OyIgaWQ9IlN2Z2pzVHNwYW4xNjE1Ij5TcHJpbmcgQm9vdOeJiOacrO+8mjIuMy43LlJFTEVBU0U8L3RzcGFuPjwvdHNwYW4+PHRzcGFuIHg9IjEyNSIgZHk9IjE2IiBpZD0iU3ZnanNUc3BhbjE2MTYiPjx0c3BhbiBzdHlsZT0idGV4dC1kZWNvcmF0aW9uOjsiIGlkPSJTdmdqc1RzcGFuMTYxNyI+SkRL54mI5pys77yaMS44PC90c3Bhbj48L3RzcGFuPjwvdGV4dD48L2c+PC9nPjxnIHRyYW5zZm9ybT0idHJhbnNsYXRlKDE4OTkuNTY4MDgyNzcwMjAxNyw2NzAuODc2MDQwNTY5MTc0NSkiIGlkPSJTdmdqc0cxNjE4Ij48cGF0aCBvcGFjaXR5PSIxIiBmaWxsPSJ1cmwoI1N2Z2pzUGF0dGVybjE2MjApIiBzdHJva2U9Im5vbmUiIGQ9Ik0gMCAwTCAyNjcuODg4ODg4ODg4ODg5NiAwTCAyNjcuODg4ODg4ODg4ODg5NiAxMDQuOTM2NjI3NTgwODcxMTJMIDAgMTA0LjkzNjYyNzU4MDg3MTEyWiIgaWQ9IlN2Z2pzUGF0aDE2MTkiLz48ZyBpZD0iU3ZnanNHMTYyMiI+PHRleHQgdHJhbnNmb3JtPSJyb3RhdGUoMCkiIHk9IjcwLjMxMTYyNzU4MDg3MTEyIiBvcGFjaXR5PSIxIiBmb250LXN0eWxlPSIiIHNpemU9IjEzcHgiIGFsaWduPSJib3R0b20iIGZvbnQtd2VpZ2h0PSI0MDAiIGZpbGw9IiMzMjMyMzIiIHdpZHRoPSIyNjhweCIgZm9udC1zaXplPSIxM3B4IiB0ZXh0LWFuY2hvcj0ibWlkZGxlIiBmb250LWZhbWlseT0i5b6u6L2v6ZuF6buRIiBpZD0iU3ZnanNUZXh0MTYyMyI+PHRzcGFuIHg9IjEzNCIgZHk9IjE2IiBpZD0iU3ZnanNUc3BhbjE2MjQiPjx0c3BhbiBzdHlsZT0idGV4dC1kZWNvcmF0aW9uOjsiIGlkPSJTdmdqc1RzcGFuMTYyNSI+5pWw5o2u5ZCM5q2l5bel5YW3PC90c3Bhbj48L3RzcGFuPjx0c3BhbiB4PSIxMzQiIGR5PSIxNiIgaWQ9IlN2Z2pzVHNwYW4xNjI2Ij48dHNwYW4gc3R5bGU9InRleHQtZGVjb3JhdGlvbjo7IiBpZD0iU3ZnanNUc3BhbjE2MjciPsKgPC90c3Bhbj48L3RzcGFuPjwvdGV4dD48L2c+PC9nPjxnIHRyYW5zZm9ybT0idHJhbnNsYXRlKDE5MjUuNDY0MTczMzA1MTgxMiw2OTMuNDEzMTU5NzE3ODc0OSkiIGlkPSJTdmdqc0cxNjI4Ij48cGF0aCBmaWxsPSIjY2NmZmZmIiBmaWxsLW9wYWNpdHk9IjEiIHN0cm9rZS13aWR0aD0iMiIgc3Ryb2tlPSJyZ2JhKDI1NSwyNTUsMjU1LDEpIiBkPSJNIDAgMEwgMjIyLjA5NjcwNzgxODkzMDU1IDBMIDIyMi4wOTY3MDc4MTg5MzA1NSAzNy41NjE4NDUxNjE0MTg0M0wgMCAzNy41NjE4NDUxNjE0MTg0M1oiIGlkPSJTdmdqc1BhdGgxNjI5Ii8+PGcgaWQ9IlN2Z2pzRzE2MzAiPjx0ZXh0IHRyYW5zZm9ybT0icm90YXRlKDApIiB5PSI4LjE1NTkyMjU4MDcwOTIxNiIgb3BhY2l0eT0iMSIgZm9udC1zdHlsZT0iIiBzaXplPSIxM3B4IiBhbGlnbj0ibWlkZGxlIiBmb250LXdlaWdodD0iNDAwIiBmaWxsPSIjMzIzMjMyIiB3aWR0aD0iMjAzcHgiIGZvbnQtc2l6ZT0iMTNweCIgdGV4dC1hbmNob3I9Im1pZGRsZSIgZm9udC1mYW1pbHk9IuW+rui9r+mbhem7kSIgaWQ9IlN2Z2pzVGV4dDE2MzEiPjx0c3BhbiB4PSIxMTEuNSIgZHk9IjE2IiBpZD0iU3ZnanNUc3BhbjE2MzIiPjx0c3BhbiBzdHlsZT0idGV4dC1kZWNvcmF0aW9uOjsiIGlkPSJTdmdqc1RzcGFuMTYzMyI+TklGSTwvdHNwYW4+PC90c3Bhbj48L3RleHQ+PC9nPjwvZz48ZyBpZD0iU3ZnanNHMTYzNCI+PHBhdGggbWFya2VyLWVuZD0idXJsKCNTdmdqc01hcmtlcjE2MzYpIiBmaWxsPSJub25lIiBzdHJva2Utd2lkdGg9IjIiIHN0cm9rZT0iIzMyMzIzMiIgZD0iTTE3MzguNDU2OTcxNjU5MDkxMyA4NTQuODU0NTc2Nzg1ODc1NUwyMDMzLjUxMjUyNzIxNDY0NjUgODU0Ljg1NDU3Njc4NTg3NTVMMjAzMy41MTI1MjcyMTQ2NDY1IDc3OS40MTI2NjgxNTAwNDU2IiBpZD0iU3ZnanNQYXRoMTYzNSIvPjxyZWN0IGZpbGw9IiNmZmZmZmYiIHk9Ijg0Ny4zNTQ1NzY3ODU4NzU1IiB4PSIxODY0LjcwNTcwMzc1NDc4MzgiIGhlaWdodD0iMTUiIHdpZHRoPSIxMTgiIGlkPSJTdmdqc1JlY3QxNjM4Ii8+PHRleHQgdHJhbnNmb3JtPSJyb3RhdGUoMCkiIHk9Ijg0NC43Mjk1NzY3ODU4NzU1IiBvcGFjaXR5PSIxIiBmb250LXN0eWxlPSIiIHNpemU9IjEzcHgiIGFsaWduPSJ0b3AiIGZvbnQtd2VpZ2h0PSI0MDAiIGZpbGw9IiMzMjMyMzIiIHdpZHRoPSIxMThweCIgZm9udC1zaXplPSIxM3B4IiB0ZXh0LWFuY2hvcj0ibWlkZGxlIiBmb250LWZhbWlseT0i5b6u6L2v6ZuF6buRIiBpZD0iU3ZnanNUZXh0MTYzOSI+PHRzcGFuIHg9IjE5MjMuNzA1NzAzNzU0NzgzOCIgZHk9IjE2IiBpZD0iU3ZnanNUc3BhbjE2NDAiPjx0c3BhbiBzdHlsZT0idGV4dC1kZWNvcmF0aW9uOjsiIGlkPSJTdmdqc1RzcGFuMTY0MSI+5oq95Y+W77yI5Z+65LqOYmlubG9n77yJPC90c3Bhbj48L3RzcGFuPjwvdGV4dD48L2c+PGcgaWQ9IlN2Z2pzRzE2NDIiPjxwYXRoIG1hcmtlci1zdGFydD0idXJsKCNTdmdqc01hcmtlcjE2NDQpIiBmaWxsPSJub25lIiBzdHJva2Utd2lkdGg9IjIiIHN0cm9rZT0iIzMyMzIzMiIgZD0iTTE3NDAuMDU2OTcxNjU5MDkxMiA3MjMuMzQ0MzU0MzU5NjEwMUwxODE4LjUxMjUyNzIxNDY0NjUgNzIzLjM0NDM1NDM1OTYxMDFMMTgxOC41MTI1MjcyMTQ2NDY1IDcyMy4zNDQzNTQzNTk2MTAxTDE4OTguNTY4MDgyNzcwMjAxNyA3MjMuMzQ0MzU0MzU5NjEwMSIgaWQ9IlN2Z2pzUGF0aDE2NDMiLz48cmVjdCBmaWxsPSIjZmZmZmZmIiB5PSI3MTUuODQ0MzU0MzU5NjEwMSIgeD0iMTc2Ny4zMTI1MjcyMTQ2NDY1IiBoZWlnaHQ9IjE1IiB3aWR0aD0iMTA0IiBpZD0iU3ZnanNSZWN0MTY0NiIvPjx0ZXh0IHRyYW5zZm9ybT0icm90YXRlKDApIiB5PSI3MTMuMjE5MzU0MzU5NjEwMSIgb3BhY2l0eT0iMSIgZm9udC1zdHlsZT0iIiBzaXplPSIxM3B4IiBhbGlnbj0idG9wIiBmb250LXdlaWdodD0iNDAwIiBmaWxsPSIjMzIzMjMyIiB3aWR0aD0iMTA0cHgiIGZvbnQtc2l6ZT0iMTNweCIgdGV4dC1hbmNob3I9Im1pZGRsZSIgZm9udC1mYW1pbHk9IuW+rui9r+mbhem7kSIgaWQ9IlN2Z2pzVGV4dDE2NDciPjx0c3BhbiB4PSIxODE5LjMxMjUyNzIxNDY0NjUiIGR5PSIxNiIgaWQ9IlN2Z2pzVHNwYW4xNjQ4Ij48dHNwYW4gc3R5bGU9InRleHQtZGVjb3JhdGlvbjo7IiBpZD0iU3ZnanNUc3BhbjE2NDkiPua4hea0l+OAgee7hOijheOAgeaOqOmAgTwvdHNwYW4+PC90c3Bhbj48L3RleHQ+PC9nPjxnIGlkPSJTdmdqc0cxNjUwIj48cGF0aCBtYXJrZXItc3RhcnQ9InVybCgjU3ZnanNNYXJrZXIxNjUyKSIgZmlsbD0ibm9uZSIgc3Ryb2tlLXdpZHRoPSIyIiBzdHJva2U9IiMzMjMyMzIiIGQ9Ik0xNzQwLjA1Njk3MTY1OTA5MTIgNTgwLjYwNTM0MDQxNDczMDRMMjAzMy41MTI1MjcyMTQ2NDY1IDU4MC42MDUzNDA0MTQ3MzA0TDIwMzMuNTEyNTI3MjE0NjQ2NSA2NjkuODc2MDQwNTY5MTc0NSIgaWQ9IlN2Z2pzUGF0aDE2NTEiLz48cmVjdCBmaWxsPSIjZmZmZmZmIiB5PSI1NzMuMTA1MzQwNDE0NzMwNCIgeD0iMTg3OS40MjAwOTk1MTQwOTEiIGhlaWdodD0iMTUiIHdpZHRoPSIxMDQiIGlkPSJTdmdqc1JlY3QxNjU0Ii8+PHRleHQgdHJhbnNmb3JtPSJyb3RhdGUoMCkiIHk9IjU3MC40ODAzNDA0MTQ3MzA0IiBvcGFjaXR5PSIxIiBmb250LXN0eWxlPSIiIHNpemU9IjEzcHgiIGFsaWduPSJ0b3AiIGZvbnQtd2VpZ2h0PSI0MDAiIGZpbGw9IiMzMjMyMzIiIHdpZHRoPSIxMDRweCIgZm9udC1zaXplPSIxM3B4IiB0ZXh0LWFuY2hvcj0ibWlkZGxlIiBmb250LWZhbWlseT0i5b6u6L2v6ZuF6buRIiBpZD0iU3ZnanNUZXh0MTY1NSI+PHRzcGFuIHg9IjE5MzEuNDIwMDk5NTE0MDkxIiBkeT0iMTYiIGlkPSJTdmdqc1RzcGFuMTY1NiI+PHRzcGFuIHN0eWxlPSJ0ZXh0LWRlY29yYXRpb246OyIgaWQ9IlN2Z2pzVHNwYW4xNjU3Ij7muIXmtJfjgIHnu4Too4XjgIHmjqjpgIE8L3RzcGFuPjwvdHNwYW4+PC90ZXh0PjwvZz48ZyB0cmFuc2Zvcm09InRyYW5zbGF0ZSgxODEuMDA4OTI2MzkxNjAxNTYsNzAxLjUwODkxODc2MjIwNykiIGlkPSJTdmdqc0cxNjU4Ij48cGF0aCBmaWxsPSJub25lIiBzdHJva2U9Im5vbmUiIGQ9Ik0gMCAwTCA5OSAwTCA5OSAyNUwgMCAyNVoiIGlkPSJTdmdqc1BhdGgxNjU5Ii8+PGcgaWQ9IlN2Z2pzRzE2NjAiPjx0ZXh0IHRyYW5zZm9ybT0icm90YXRlKDApIiB5PSIxLjg3NSIgb3BhY2l0eT0iMSIgZm9udC1zdHlsZT0iIiBzaXplPSIxM3B4IiBhbGlnbj0ibWlkZGxlIiBmb250LXdlaWdodD0iNDAwIiBmaWxsPSIjMzIzMjMyIiB3aWR0aD0iOTlweCIgZm9udC1zaXplPSIxM3B4IiB0ZXh0LWFuY2hvcj0ibWlkZGxlIiBmb250LWZhbWlseT0i5b6u6L2v6ZuF6buRIiBpZD0iU3ZnanNUZXh0MTY2MSI+PHRzcGFuIHg9IjQ5LjUiIGR5PSIxNiIgaWQ9IlN2Z2pzVHNwYW4xNjYyIj48dHNwYW4gc3R5bGU9InRleHQtZGVjb3JhdGlvbjo7IiBpZD0iU3ZnanNUc3BhbjE2NjMiPue9keWFs+mbhue+pDwvdHNwYW4+PC90c3Bhbj48L3RleHQ+PC9nPjwvZz48L3N2Zz4=;" vertex="1" parent="1">
          <mxGeometry x="30" width="520" height="263" as="geometry" />
        </mxCell>
      </root>
    </mxGraphModel>
  </diagram>
</mxfile>
